<?xml version="1.0" encoding="UTF-8" standalone="no"?>
<svg
   id="svg"
   version="1.1"
   style="display:block"
   width="513"
   height="513"
   sodipodi:docname="drone.svg"
   inkscape:version="1.4 (e7c3feb1, 2024-10-09)"
   xmlns:inkscape="http://www.inkscape.org/namespaces/inkscape"
   xmlns:sodipodi="http://sodipodi.sourceforge.net/DTD/sodipodi-0.dtd"
   xmlns="http://www.w3.org/2000/svg"
   xmlns:svg="http://www.w3.org/2000/svg">
  <sodipodi:namedview
     id="namedview1"
     pagecolor="#ffffff"
     bordercolor="#000000"
     borderopacity="0.25"
     inkscape:showpageshadow="2"
     inkscape:pageopacity="0.0"
     inkscape:pagecheckerboard="0"
     inkscape:deskcolor="#d1d1d1"
     inkscape:zoom="0.7156081"
     inkscape:cx="163.49731"
     inkscape:cy="233.36796"
     inkscape:window-width="1104"
     inkscape:window-height="1143"
     inkscape:window-x="0"
     inkscape:window-y="25"
     inkscape:window-maximized="0"
     inkscape:current-layer="svg" />
  <defs
     id="defs22" />
  <path
     d="m 45.302032,0.54464722 c 5.059219,0.75180088 10.098677,1.61679488 15.139374,2.48269648 1.858831,0.3122717 3.717797,0.6237458 5.576889,0.9344635 3.871306,0.6490152 7.741482,1.3042613 11.610855,1.9647065 4.96176,0.8468651 9.925243,1.6830336 14.889481,2.5152349 4.745673,0.7959236 9.490529,1.5966674 14.235279,2.3980954 1.35591,0.228533 1.35591,0.228533 2.73922,0.461683 2.54906,0.43062 5.09751,0.864618 7.64579,1.299791 0.75582,0.127315 1.51164,0.25463 2.29037,0.385803 C 122.38202,13.494474 125.15232,14.050773 128,15 127.9536,14.252344 127.9072,13.504687 127.85938,12.734375 127.56881,4.8061355 127.56881,4.8061355 129.4375,1.3125 133.28001,-0.65561718 136.7752,-0.77661758 141,0 c 2.5284,1.7698829 3.58211,2.9900913 4.75,5.8125 0.35091,3.0704439 0.30936,6.100893 0.25,9.1875 1.73627,-0.451056 1.73627,-0.451056 3.50763,-0.911225 4.09382,-1.021886 8.21007,-1.811266 12.3703,-2.509185 0.74267,-0.127089 1.48534,-0.254177 2.25052,-0.385117 2.43055,-0.414741 4.86189,-0.824581 7.29342,-1.2335355 1.25734,-0.2123838 1.25734,-0.2123838 2.54008,-0.4290581 4.43527,-0.7491671 8.87115,-1.4946579 13.30758,-2.2369575 4.55141,-0.7622209 9.10069,-1.5364559 13.64958,-2.3135777 3.52678,-0.6002894 7.05501,-1.1917272 10.58367,-1.7808552 1.67645,-0.2814096 3.35237,-0.566024 5.0277,-0.8540725 C 236.2082,-1.0294963 236.2082,-1.0294963 244,0 c 3.53203,2.6490249 3.88176,4.1723203 4.5,8.5 -0.59769,4.183838 -1.51003,5.55163 -4.5,8.5 -2.53775,0.828604 -4.63824,1.326592 -7.24219,1.703125 -0.73617,0.124007 -1.47233,0.248013 -2.2308,0.375778 -2.46453,0.410256 -4.93274,0.790527 -7.40201,1.171097 -1.74219,0.283914 -3.48404,0.569852 -5.22559,0.857666 -3.83109,0.630207 -7.66389,1.248332 -11.49805,1.859619 -6.98208,1.118709 -13.95336,2.299009 -20.9248,3.481934 -4.9087,0.830348 -9.81757,1.659657 -14.72656,2.488281 -1.20397,0.203309 -2.40793,0.406618 -3.64838,0.616089 -3.43432,0.578203 -6.86939,1.151716 -10.30475,1.723755 -1.03369,0.174642 -2.06739,0.349285 -3.13241,0.52922 -1.42961,0.236782 -1.42961,0.236782 -2.8881,0.478348 -0.82977,0.13877 -1.65954,0.277541 -2.51446,0.420517 C 150,33 150,33 146,33 c 0,2.97 0,5.94 0,9 1.06927,-0.05221 1.06927,-0.05221 2.16015,-0.105469 C 154.15268,41.72516 158.73279,41.798361 164,45 c 3.18101,3.051172 5.59712,5.791358 7,10 0,9.9 0,19.8 0,30 56.1,0 112.2,0 170,0 0,-9.9 0,-19.8 0,-30 3.40227,-6.804554 3.40227,-6.804554 6.4375,-9.3125 0.57621,-0.491133 1.15242,-0.982266 1.74609,-1.488281 3.683,-2.431571 7.24657,-2.313146 11.56641,-2.261719 0.98484,0.009 1.96969,0.01805 2.98437,0.02734 1.12149,0.0174 1.12149,0.0174 2.26563,0.03516 0,-2.97 0,-5.94 0,-9 -1.41144,-0.1649 -1.41144,-0.1649 -2.8514,-0.33313 -10.58343,-1.264004 -21.08541,-2.88344 -31.59782,-4.63562 -1.71392,-0.283928 -3.42785,-0.567739 -5.1418,-0.851441 -3.55589,-0.589441 -7.11135,-1.181406 -10.66655,-1.775024 -4.54931,-0.759227 -9.09995,-1.510217 -13.65096,-2.259178 -3.52396,-0.58117 -7.04705,-1.167524 -10.56991,-1.755364 -1.67859,-0.279287 -3.35748,-0.556766 -5.03667,-0.832367 -2.33795,-0.38433 -4.67458,-0.775856 -7.01102,-1.169204 -1.02936,-0.166841 -1.02936,-0.166841 -2.07952,-0.337052 C 272.83413,18.273294 268.64113,17.52795 265.1875,14.3125 263.48166,10.990603 263.54747,8.6848518 264,5 c 1.25,-2.9375 1.25,-2.9375 4,-5 10.35783,-1.4435773 21.29071,1.2805585 31.47656,3.0273437 1.86123,0.3122475 3.72259,0.6237222 5.58408,0.9344635 3.87551,0.648968 7.74987,1.3042455 11.62344,1.9647065 4.97074,0.8474358 9.94332,1.6833753 14.91668,2.5152349 3.83164,0.6413719 7.66266,1.2864138 11.49346,1.9328264 1.83478,0.309597 3.66966,0.618583 5.50464,0.926952 2.55179,0.429862 5.10278,0.864109 7.65358,1.299791 0.75942,0.127315 1.51884,0.25463 2.30127,0.385803 C 363.77058,13.88529 363.77058,13.88529 366,15 c -0.0619,-1.577813 -0.0619,-1.577813 -0.125,-3.1875 0.14022,-4.2767341 0.72965,-7.0767237 3.42187,-10.4257813 2.71584,-2.21128588 5.1587,-1.86899708 8.53907,-1.7148437 C 380,0 380,0 382.5625,1.3125 384.90056,5.6836568 384.25102,10.156796 384,15 c 1.12656,-0.222041 2.25312,-0.444082 3.41382,-0.672852 15.52726,-3.025617 31.10989,-5.7078141 46.70947,-8.3286129 2.97657,-0.5005668 5.95205,-1.0070402 8.92676,-1.5185547 3.66025,-0.6293942 7.32204,-1.2489722 10.98512,-1.8617324 1.37223,-0.2311094 2.74393,-0.4654453 4.11501,-0.7033539 C 474.81629,-0.97023198 474.81629,-0.97023198 483,0 c 3.52272,2.6420403 3.87083,4.196283 4.5625,8.5 -0.72759,4.527207 -2.00782,5.650927 -5.5625,8.5 -2.92609,0.88493 -5.50636,1.464791 -8.5,1.921875 -0.89381,0.153378 -1.78761,0.306756 -2.7085,0.464782 -2.06932,0.352354 -4.14027,0.695161 -6.2124,1.030579 -3.99142,0.649899 -7.97662,1.332036 -11.96191,2.018311 -7.89224,1.354909 -15.78943,2.678668 -23.68848,3.993164 -4.1485,0.690419 -8.29596,1.386848 -12.44321,2.08472 -3.22344,0.541543 -6.44748,1.079375 -9.67172,1.616139 -1.53118,0.255478 -3.06215,0.512239 -4.5929,0.77034 -2.12508,0.357872 -4.25097,0.710581 -6.37713,1.062004 -1.20463,0.201114 -2.40926,0.402228 -3.65039,0.609436 C 389.40687,32.945384 386.80485,33.087817 384,33 c 0,2.97 0,5.94 0,9 1.17756,-0.05221 1.17756,-0.05221 2.3789,-0.105469 C 397.52783,41.607258 397.52783,41.607258 403,45 c 4.10847,3.94974 6.89696,7.191326 7.11352,13.094482 -0.005,1.241126 -0.0105,2.482251 -0.0159,3.760987 -0.002,0.992454 -0.002,0.992454 -0.004,2.004959 -0.006,2.10907 -0.0181,4.218034 -0.0309,6.327072 -0.005,1.431639 -0.01,2.86328 -0.0137,4.294922 -0.011,3.505894 -0.0283,7.011725 -0.0488,10.517578 0.57718,0.05406 1.15435,0.10812 1.74902,0.163818 16.88434,1.706247 32.2497,9.188962 43.30176,22.261962 10.56974,13.75461 16.54098,30.10842 14.94922,47.57422 -2.55994,18.59431 -9.71554,33.58653 -24.15625,45.91016 C 436.36132,207.87886 420.99743,217 409.00022,217 c 2.7171,4.1625 5.57442,8.13252 8.625,12.0625 0.88807,1.1471 1.77609,2.29423 2.66406,3.44141 0.67531,0.87036 0.67531,0.87036 1.36426,1.7583 2.5418,3.28001 5.0675,6.57241 7.59521,9.86328 2.07663,2.70213 4.15825,5.40006 6.25147,8.08936 17.75573,22.84859 25.98622,39.44763 25.93359,68.91797 0.005,2.24575 0.01,4.49151 0.0159,6.73727 0.009,4.68838 0.007,9.37659 -0.003,14.06497 -0.0115,5.98953 0.009,11.97848 0.0379,17.96793 0.0184,4.63102 0.0181,9.26189 0.0124,13.89294 -1.5e-4,2.20786 0.006,4.41574 0.0183,6.62357 0.015,3.09117 0.004,6.18126 -0.0129,9.2724 0.01,0.89897 0.0193,1.79794 0.0293,2.72415 -0.11184,9.71968 -3.73133,18.5732 -10.531,25.58395 -2.84452,2.32734 -5.78557,4.22404 -9,6 -0.92233,0.51241 -0.92233,0.51241 -1.86328,1.03516 -7.97354,3.6709 -17.8523,3.05208 -26.01172,0.33984 -9.61552,-4.07461 -15.53242,-9.91676 -20.125,-19.375 -1.71125,-5.74824 -2.25131,-10.73038 -2.09668,-16.70068 0.0258,-1.72032 0.0513,-3.44065 0.0767,-5.16098 0.0254,-1.35197 0.0254,-1.35197 0.0512,-2.73124 0.0808,-4.8372 0.0954,-9.67482 0.12108,-14.51257 0.0355,-6.1273 0.09,-12.25233 0.22119,-18.37841 1.83829,-26.50366 1.83829,-26.50366 -8.12353,-49.8794 -1.77697,-1.81477 -3.58468,-3.49083 -5.53375,-5.11827 -2.7786,-2.45835 -4.78513,-5.3373 -6.96625,-8.33095 -0.78891,-1.02738 -1.57781,-2.05476 -2.39063,-3.11328 -0.77859,-1.01449 -1.55718,-2.02898 -2.35937,-3.07422 -1.24703,-1.62202 -2.49454,-3.24368 -3.74219,-4.86523 -1.24765,-1.62155 -2.49492,-3.24339 -3.74219,-4.86524 -1.71743,-2.23279 -3.43637,-4.4644 -5.15625,-6.69531 -0.43699,-0.56719 -0.87398,-1.13437 -1.32422,-1.71875 -1.20409,-1.56276 -2.40867,-3.12514 -3.61328,-4.6875 -2.83196,-3.70438 -5.63017,-7.4332 -8.42187,-11.16797 -3.80914,1.40439 -7.61771,2.81027 -11.42578,4.21753 -1.29575,0.4786 -2.59165,0.9568 -3.8877,1.43457 -1.86205,0.68651 -3.72351,1.37461 -5.58496,2.06275 -1.12068,0.41371 -2.24136,0.82741 -3.396,1.25366 -2.62215,0.94843 -2.62215,0.94843 -4.70556,2.03149 -4.33604,0.13934 -8.66081,0.0425 -13,0 0,8.25 0,16.5 0,25 1.93875,-0.0825 3.8775,-0.165 5.875,-0.25 7.79279,0 13.38135,1.92062 19.9375,6 6.40945,6.59259 8.33396,12.43174 8.25,21.5 -0.009,1.26328 -0.0181,2.52657 -0.0274,3.82813 -0.0174,1.44633 -0.0174,1.44633 -0.0351,2.92187 0.5692,-0.0157 1.1384,-0.0314 1.72485,-0.0476 2.61245,-0.0629 5.22473,-0.10155 7.83765,-0.1399 1.34288,-0.0377 1.34288,-0.0377 2.71289,-0.0762 7.17743,-0.0789 11.96245,0.8698 17.53711,5.70117 5.06151,5.9292 4.55996,11.34484 4.5581,18.92481 0.004,1.99919 0.0414,3.99822 0.0786,5.99707 0.004,1.27101 0.008,2.54203 0.0117,3.85156 0.008,1.15806 0.0164,2.31612 0.0249,3.50928 -0.76144,5.14026 -3.27911,8.2167 -7.11084,11.59228 -3.52348,2.50353 -5.31502,2.80871 -9.60156,2.78516 -1.03125,-0.003 -2.0625,-0.006 -3.125,-0.01 -1.08024,-0.008 -2.16047,-0.0168 -3.27344,-0.0254 -1.63196,-0.007 -1.63196,-0.007 -3.29688,-0.0137 -2.69276,-0.0118 -5.38541,-0.0283 -8.07812,-0.0488 0.058,0.9668 0.11601,1.9336 0.17578,2.92969 0.33233,9.59 -0.3451,16.85006 -7.11328,24.16406 -8.46841,7.82686 -17.21996,8.05688 -28.24536,8.05152 -0.99933,0.003 -1.99866,0.007 -3.02828,0.0102 -3.29031,0.009 -6.58057,0.0115 -9.87089,0.0125 -2.29775,0.003 -4.59549,0.007 -6.89324,0.0101 -4.81237,0.006 -9.62472,0.008 -14.43709,0.007 -6.1498,-1.1e-4 -12.29949,0.0135 -18.44927,0.0308 -4.74508,0.0111 -9.49014,0.0131 -14.23524,0.0126 -2.26648,10e-4 -4.53295,0.006 -6.79941,0.0133 -3.17764,0.01 -6.35503,0.007 -9.53268,8.9e-4 -0.92552,0.006 -1.85105,0.0112 -2.80462,0.017 -10.13597,-0.0484 -18.20177,-1.20429 -25.76642,-8.25995 -7.01209,-7.39112 -7.34395,-14.27727 -7.10547,-23.96484 0.0348,-1.0016 0.0696,-2.0032 0.10547,-3.03516 -0.66532,0.0209 -1.33064,0.0419 -2.01612,0.0635 -3.03614,0.0835 -6.07203,0.1353 -9.10888,0.18652 -1.04672,0.0335 -2.09344,0.067 -3.17188,0.10157 -6.2599,0.0792 -9.96746,-0.11642 -14.70312,-4.35157 -5.56284,-6.31458 -5.27596,-10.86268 -5.3501,-19.10156 -0.0246,-1.99517 -0.0811,-3.98987 -0.13818,-5.98437 -0.0685,-7.52038 0.16352,-13.24741 5.48828,-18.91407 4.38345,-3.31432 8.35786,-4.13232 13.76562,-4.09765 0.88946,0.003 1.77891,0.006 2.69532,0.01 0.92039,0.008 1.84078,0.0168 2.78906,0.0254 1.40379,0.007 1.40379,0.007 2.83594,0.0137 2.30475,0.0118 4.60937,0.0282 6.91406,0.0488 -0.0348,-0.91781 -0.0696,-1.83562 -0.10547,-2.78125 -0.20523,-9.30371 -0.0194,-16.56595 6.51562,-23.83593 8.57514,-7.45847 16.69314,-7.49178 27.58985,-7.38282 0,-8.25 0,-16.5 0,-25 -1.83949,0.11344 -3.67899,0.22688 -5.57422,0.34375 -8.19285,0 -14.80973,-2.66272 -22.23828,-5.84375 -1.28886,-0.53203 -2.57857,-1.06199 -3.86914,-1.58984 -3.11512,-1.28338 -6.22009,-2.58676 -9.31836,-3.91016 -3.47089,3.42352 -6.55724,6.85991 -9.5,10.75 -0.42088,0.55366 -0.84176,1.10731 -1.27539,1.67774 -0.91873,1.20856 -1.83599,2.41824 -2.75196,3.6289 -2.64513,3.4906 -5.3108,6.96551 -7.97265,10.44336 -1.11071,1.4531 -2.22139,2.90623 -3.33203,4.35938 -4.3767,5.72327 -8.77161,11.43245 -13.16797,17.14062 -1.81283,2.35392 -3.62525,4.70814 -5.4375,7.0625 -0.80309,1.04285 -1.60617,2.08571 -2.43359,3.16016 -0.70254,0.91652 -1.40508,1.83305 -2.12891,2.77734 -0.53097,0.54458 -1.06195,1.08916 -1.60901,1.65024 -2.04272,3.4507 -1.80598,6.82671 -1.77576,10.7233 -0.005,0.84283 -0.0108,1.68567 -0.0163,2.55404 -0.01,1.82896 -0.0127,3.65796 -0.01,5.48693 0.005,2.90172 -0.01,5.80283 -0.0284,8.70448 -0.0368,6.16866 -0.0505,12.33726 -0.0609,18.50601 -0.0121,7.13013 -0.0338,14.25997 -0.08,21.38997 -0.0135,2.84601 -0.009,5.69164 -0.005,8.53768 -0.0409,13.39946 -1.1311,24.0295 -10.4154,34.44735 -8.50899,7.3755 -17.462285,9.62257 -28.566408,9.34766 -9.181892,-0.92968 -16.915639,-5.50187 -23.15625,-12.19531 -6.203251,-7.66643 -7.728593,-15.69415 -7.697265,-25.37525 -0.0127,-1.47034 -0.0127,-1.47034 -0.02567,-2.9704 -0.02326,-3.21825 -0.02439,-6.43602 -0.02316,-9.65435 -0.0071,-2.2581 -0.01481,-4.51619 -0.02307,-6.77428 -0.01342,-4.72821 -0.01503,-9.45624 -0.0092,-14.18446 0.0059,-6.0194 -0.02462,-12.03798 -0.06512,-18.05722 -0.02603,-4.66472 -0.02874,-9.32926 -0.02511,-13.99405 -0.0017,-2.21688 -0.0112,-4.43376 -0.02914,-6.65056 -0.193704,-26.89851 8.38708,-42.3552 24.787338,-63.15437 2.894552,-3.69106 5.740099,-7.41901 8.583008,-11.14991 3.047298,-3.99819 6.094851,-7.99549 9.179687,-11.96484 0.45665,-0.5887 0.913301,-1.1774 1.383789,-1.78394 1.219051,-1.56965 2.440953,-3.13709 3.663086,-4.70434 1.852888,-2.5039 3.475965,-5.03369 5.023445,-7.73438 -0.77989,-0.0799 -1.55977,-0.15984 -2.36329,-0.24218 -4.896629,-1.02036 -9.246686,-2.89734 -13.824217,-4.88282 -0.936746,-0.40597 -1.873492,-0.81195 -2.838624,-1.23022 C 66.104661,202.74345 52.779695,190.91434 45.5625,172.375 40.005257,155.04351 40.535386,136.98449 48.621093,120.52344 57.76706,103.78606 71.201535,92.313676 89.558837,86.610351 c 2.58803,-0.647072 5.066766,-0.951051 7.722413,-1.188476 0.887519,-0.08153 1.775039,-0.163067 2.689453,-0.247071 C 100.64037,85.117124 101.31004,85.059433 102,85 c -0.0157,-0.877368 -0.0314,-1.754737 -0.0476,-2.658692 -0.0513,-3.276428 -0.0888,-6.552424 -0.11719,-9.829101 -0.015,-1.414132 -0.0354,-2.828217 -0.0615,-4.242188 -0.0367,-2.040643 -0.0535,-4.080667 -0.0666,-6.121582 -0.0157,-1.225415 -0.0314,-2.45083 -0.0476,-3.713379 0.53423,-5.38819 2.61883,-9.310849 6.77808,-12.747558 0.57621,-0.491133 1.15242,-0.982266 1.74609,-1.488281 3.82339,-2.52426 7.58412,-2.31044 12.06641,-2.261719 1.61648,0.01353 1.61648,0.01353 3.26563,0.02734 0.81984,0.0116 1.63968,0.0232 2.48437,0.03516 0,-2.97 0,-5.94 0,-9 -1.41749,-0.101272 -2.83497,-0.202544 -4.29541,-0.306885 -8.72646,-0.797871 -17.34032,-2.338963 -25.978028,-3.782959 -1.85557,-0.307851 -3.711171,-0.615511 -5.566803,-0.922989 C 88.29143,27.345164 84.423627,26.700103 80.556152,26.052978 75.604348,25.224784 70.651119,24.40548 65.697443,23.58857 61.874072,22.956854 58.051592,22.319876 54.229351,21.681364 52.402827,21.377003 50.576007,21.07441 48.748889,20.773638 46.199652,20.353303 43.651726,19.925749 41.104003,19.496338 40.353799,19.374189 39.603595,19.25204 38.830657,19.12619 29.680153,17.564281 29.680153,17.564281 26.1875,14.3125 24.48166,10.990603 24.547474,8.6848518 25,5 28.396526,-2.981838 38.116319,-0.43546451 45.302032,0.54464722 Z"
     style="fill:#010100"
     id="outline"
     inkscape:label="#outline" />
  <path
     d="m 62,162 c 39.27,0 78.54,0 119,0 1.32,3.3 2.64,6.6 4,10 5.64861,8.0022 12.76814,11.92271 22,15 3.02001,0.11749 6.01775,0.17818 9.03857,0.19287 0.92566,0.008 1.85131,0.0164 2.80501,0.0248 3.07036,0.0249 6.14068,0.0414 9.21111,0.0558 1.05118,0.005 2.10236,0.0106 3.1854,0.0161 5.57165,0.0267 11.14329,0.0461 16.71499,0.0605 4.59558,0.0133 9.19071,0.0411 13.78613,0.082 5.56025,0.0496 11.12009,0.0741 16.68055,0.0812 2.11052,0.007 4.22104,0.0218 6.33144,0.0459 13.65998,0.14686 27.28595,0.27784 37.82102,-9.89125 4.19786,-4.91093 6.37251,-9.50816 8.42578,-15.66797 39.27,0 78.54,0 119,0 -1.80383,10.82296 -7.99181,19.92279 -16.85986,26.34741 -8.62631,5.4917 -18.18051,8.75626 -27.70264,12.34009 -1.93383,0.736 -3.86726,1.47309 -5.80029,2.21118 -3.04474,1.16222 -6.0898,2.32354 -9.13623,3.48131 -10.6911,4.06308 -21.35206,8.20282 -32.01194,12.34697 -3.00331,1.16749 -6.00693,2.3342 -9.01077,3.50033 -0.95211,0.37085 -1.90423,0.7417 -2.88519,1.12378 -1.93421,0.74746 -3.87226,1.48506 -5.81384,2.21314 -4.89578,1.8486 -9.61865,3.81009 -14.2956,6.16162 -20.98979,10.06255 -43.35292,9.21215 -66.16542,9.10226 -3.41087,-0.0157 -6.82151,-0.0156 -10.2324,-0.0146 -32.82712,-0.0648 -59.77482,-2.42462 -89.08533,-18.23925 -7.73908,-4.10712 -15.97202,-7.02564 -24.16754,-10.0806 -4.22164,-1.58563 -8.41449,-3.24346 -12.61029,-4.89596 -5.18652,-2.03263 -10.37945,-4.04628 -15.58727,-6.02372 -1.9641,-0.74627 -3.92635,-1.49722 -5.88808,-2.24972 -2.30111,-0.88093 -4.605616,-1.75306 -6.914546,-2.61328 C 82.026677,191.39677 70.40571,183.778 63.9375,170.0625 62.651338,167.0528 62,165.29034 62,162 Z"
     style="fill:#fcc007"
     id="path2" />
  <path
     d="m 106.41866,101.87137 c 1.08139,-0.003 2.16278,-0.006 3.27694,-0.01 1.18228,0.002 2.36457,0.003 3.58267,0.005 1.26045,-0.002 2.52089,-0.005 3.81954,-0.007 3.49635,-0.006 6.99267,-0.006 10.48903,-0.005 3.77175,2e-4 7.54349,-0.005 11.31523,-0.0101 7.38882,-0.008 14.77762,-0.011 22.16644,-0.0116 6.00621,-4.7e-4 12.01241,-0.003 18.01861,-0.006 17.02923,-0.009 34.05845,-0.0134 51.08769,-0.0127 0.91805,4e-5 1.8361,8e-5 2.78198,1.2e-4 0.91917,4e-5 1.83834,8e-5 2.78537,1.3e-4 14.8964,4e-4 29.79277,-0.009 44.68917,-0.0233 15.29604,-0.0144 30.59208,-0.0213 45.88813,-0.0204 8.58734,3.3e-4 17.17465,-0.002 25.76199,-0.0132 7.31153,-0.009 14.62303,-0.0113 21.93457,-0.004 3.72957,0.003 7.45906,0.003 11.18862,-0.005 4.04544,-0.009 8.0907,-0.003 12.13613,0.005 1.17559,-0.005 2.35118,-0.0103 3.5624,-0.0156 14.79196,0.0624 28.43215,4.69056 39.09683,15.26282 7.41773,8.82724 10.72867,16.55808 12,28 -39.93,0 -79.86,0 -121,0 -0.99,-2.64 -1.98,-5.28 -3,-8 -5.53177,-9.44414 -13.13163,-13.40574 -23.34659,-16.38002 -4.10103,-0.95822 -8.04699,-1.0469 -12.24301,-1.02403 -0.90063,-0.007 -1.80125,-0.0137 -2.72917,-0.0208 -2.94469,-0.0181 -5.88884,-0.0144 -8.83357,-0.009 -2.06686,-0.005 -4.13372,-0.01 -6.20058,-0.0159 -4.31952,-0.009 -8.63885,-0.007 -12.95836,0.003 -5.51196,0.0115 -11.02328,-0.009 -16.53516,-0.0379 -4.26477,-0.0184 -8.52939,-0.0181 -12.79419,-0.0124 -2.0312,1.5e-4 -4.06241,-0.006 -6.09358,-0.0183 -13.70834,-0.0723 -25.22534,0.2807 -36.25407,9.44821 -4.48175,4.60359 -7.45974,9.85849 -9.01172,16.06641 -39.93,0 -79.86,0 -121,0 1.315194,-11.83675 5.768246,-22.99195 15,-31 9.347792,-6.98564 19.588643,-12.1197 31.41866,-12.12864 z"
     style="fill:#fbd900"
     id="path3" />
  <path
     d="m 205.50987,298.73257 c 0.9239,-0.009 1.8478,-0.0171 2.7997,-0.0258 1.01151,9.1e-4 2.02302,0.002 3.06518,0.003 1.06691,-0.007 2.13381,-0.0134 3.23305,-0.0204 3.53573,-0.019 7.07127,-0.0229 10.60704,-0.0251 2.45236,-0.006 4.90472,-0.0131 7.35707,-0.0202 5.14394,-0.012 10.2878,-0.0157 15.43175,-0.0145 6.59904,2e-4 13.19765,-0.0271 19.79659,-0.0615 5.0657,-0.0222 10.13129,-0.0263 15.19703,-0.0252 2.43333,-0.002 4.86666,-0.0112 7.29994,-0.0267 3.39985,-0.0195 6.79876,-0.0139 10.19863,-0.002 1.00948,-0.0112 2.01897,-0.0225 3.05905,-0.0341 6.82136,0.0618 6.82136,0.0618 10.03911,2.42526 2.57834,3.8412 2.54719,6.29824 2.58299,10.94351 0.007,0.70427 0.0131,1.40855 0.0199,2.13416 0.0197,2.33508 0.0314,4.6701 0.0414,7.00525 0.004,0.7973 0.008,1.5946 0.0123,2.41606 0.0209,4.22028 0.0352,8.44052 0.0445,12.66084 0.0111,4.35814 0.0455,8.71577 0.0852,13.07373 0.0262,3.35177 0.0345,6.70342 0.0381,10.05529 0.005,1.60636 0.0165,3.21271 0.035,4.81897 0.0244,2.25034 0.0234,4.49934 0.0165,6.74977 0.006,1.2797 0.0117,2.5594 0.0178,3.87788 -0.57385,3.9522 -1.65605,5.59039 -4.48774,8.35918 -2.79462,0.93154 -4.49986,1.13133 -7.38925,1.14717 -0.89722,0.007 -1.79443,0.0143 -2.71883,0.0217 -0.98189,0.003 -1.96378,0.005 -2.97542,0.008 -1.03604,0.007 -2.07208,0.0131 -3.13951,0.0199 -3.43348,0.0197 -6.86691,0.0314 -10.30043,0.0414 -1.17149,0.004 -2.34298,0.008 -3.54998,0.0124 -6.19785,0.0209 -12.39569,0.0352 -18.59358,0.0445 -6.40835,0.0111 -12.81635,0.0455 -19.22458,0.0852 -4.92247,0.0261 -9.84485,0.0345 -14.76738,0.0381 -2.36273,0.005 -4.72546,0.0165 -7.08812,0.035 -3.30383,0.0243 -6.60675,0.0234 -9.91064,0.0165 -0.97784,0.0128 -1.95568,0.0256 -2.96315,0.0388 -4.32426,-0.0333 -6.71622,-0.0994 -10.46303,-2.41317 -3.33412,-3.64649 -3.04685,-6.08347 -3.06137,-10.96037 -0.003,-0.70588 -0.007,-1.41175 -0.0102,-2.13902 -0.01,-2.33991 -0.0115,-4.67974 -0.0125,-7.01967 -0.003,-1.62424 -0.007,-3.24847 -0.0101,-4.87271 -0.006,-3.408 -0.008,-6.81597 -0.007,-10.22397 1e-4,-4.36704 -0.0135,-8.73392 -0.0308,-13.10093 -0.0111,-3.35602 -0.0132,-6.712 -0.0126,-10.06803 -0.001,-1.60995 -0.006,-3.2199 -0.0133,-4.82983 -0.01,-2.25263 -0.007,-4.50492 -8.9e-4,-6.75756 -10e-4,-1.28192 -0.003,-2.56384 -0.004,-3.88461 0.23493,-3.07716 0.50048,-4.73594 2.24728,-7.23887 3.15625,-2.10417 3.90621,-2.25239 7.50987,-2.26743 z"
     style="fill:#9c9c9c"
     id="path4" />
  <path
     d="m 391.12524,224.68188 c 2.02716,1.42527 3.28119,2.78863 4.75757,4.77515 0.52231,0.69383 1.04462,1.38767 1.58276,2.10254 0.54761,0.74346 1.09522,1.48693 1.65943,2.25293 1.16515,1.55354 2.33052,3.10692 3.49609,4.66015 0.57347,0.76973 1.14694,1.53946 1.73779,2.33252 2.24665,3.00467 4.53407,5.97668 6.82862,8.94483 0.79793,1.0364 1.59586,2.07281 2.41797,3.14062 0.79019,1.02609 1.58038,2.05219 2.39453,3.10938 0.8295,1.07806 1.65893,2.15618 2.48828,3.23437 0.41451,0.53867 0.82903,1.07733 1.2561,1.63232 0.8335,1.08422 1.66603,2.16917 2.49756,3.25489 2.10983,2.75202 4.23667,5.48746 6.39868,8.19873 9.85365,12.42321 15.68216,23.07678 15.63403,39.12744 0.005,0.89715 0.0102,1.7943 0.0155,2.71864 0.0138,2.93679 0.0129,5.87335 0.0106,8.81017 0.004,2.05545 0.008,4.1109 0.013,6.16635 0.007,4.29516 0.007,8.59024 0.002,12.88541 -0.006,5.49545 0.0112,10.99058 0.0343,16.48598 0.0147,4.23971 0.0156,8.47934 0.0125,12.71907 5.2e-4,2.02614 0.006,4.05227 0.0158,6.07838 0.0124,2.83332 0.006,5.66598 -0.006,8.49928 0.008,0.83031 0.0153,1.66063 0.0232,2.5161 -0.0599,6.65107 -1.36854,11.3341 -5.83297,16.48537 -4.98358,4.25427 -9.02816,4.79416 -15.50782,4.70703 C 418.06105,408.67023 415.08424,405.89089 412,402 c -2.711,-3.92696 -2.24872,-8.24177 -2.1919,-12.81666 0.004,-1.33499 0.004,-1.33499 0.008,-2.69696 0.007,-1.93212 0.0171,-3.86423 0.0313,-5.79631 0.0195,-3.06573 0.0217,-6.13099 0.0181,-9.19677 -0.01,-8.71666 -0.0103,-17.43285 0.0549,-26.14931 0.0386,-5.33477 0.038,-10.66834 0.0124,-16.00317 -0.002,-2.02565 0.01,-4.05137 0.0366,-6.07683 0.31912,-14.71636 0.31912,-14.71636 -6.92185,-27.17472 C 402.37219,295.39981 401.69633,294.71035 401,294 c -1.14616,-1.45796 -2.27812,-2.92735 -3.38672,-4.41407 -1.09869,-1.40488 -2.19898,-2.8085 -3.30078,-4.21093 -5.2688,-6.74004 -10.4965,-13.50914 -15.68262,-20.31299 -2.47223,-3.24281 -4.94952,-6.48082 -7.4541,-9.69873 C 366.53183,249.39127 362.08785,243.3682 358,237 c 6.74441,-3.02058 13.50751,-5.99333 20.3125,-8.875 0.97517,-0.42797 1.95035,-0.85594 2.95507,-1.29688 0.93909,-0.39445 1.87817,-0.78891 2.84571,-1.19531 1.26517,-0.5431 1.26517,-0.5431 2.55591,-1.09717 C 389,224 389,224 391.12524,224.68188 Z"
     style="fill:#5f7b89"
     id="path5" />
  <path
     d="m 120,225 c 4.57927,0.52205 8.36288,1.36226 12.5625,3.25 6.70898,2.91658 13.53036,5.34885 20.4375,7.75 0,4.35164 -2.56115,6.75582 -5.125,10.0625 -0.5348,0.70101 -1.0696,1.40202 -1.62061,2.12427 -1.74264,2.27801 -3.4969,4.54665 -5.25439,6.81323 -0.58781,0.75958 -1.17563,1.51916 -1.78125,2.30176 -2.95835,3.81958 -5.92509,7.6325 -8.89844,11.44043 -3.66958,4.70067 -7.30794,9.42464 -10.9375,14.15625 -1.68771,2.19679 -3.3799,4.3895 -5.07812,6.57812 -0.44827,0.57903 -0.89655,1.15806 -1.3584,1.75464 -1.2387,1.59965 -2.47915,3.19794 -3.71973,4.79614 C 108.4918,297.00832 107.75703,297.9893 107,299 c -0.69597,0.86315 -1.39195,1.7263 -2.10901,2.6156 -2.44204,4.37064 -2.43973,7.59199 -2.37341,12.50745 -0.004,0.89832 -0.008,1.79664 -0.0119,2.72218 -0.006,1.94299 -0.003,3.88602 0.008,5.82898 0.0173,3.07729 0.01,6.15364 -0.004,9.23094 -0.0253,6.53168 -0.0198,13.06314 -0.01,19.59485 0.0115,7.57065 0.0104,15.14085 -0.0241,22.71144 -0.007,3.02805 0.01,6.05537 0.0271,9.08336 -0.006,1.86072 -0.0125,3.72144 -0.0206,5.58215 0.0113,0.83862 0.0226,1.67724 0.0343,2.54128 -0.0555,5.33724 -0.997,8.33561 -4.51671,12.58177 -5.385291,4.74419 -8.76988,5.47915 -15.878906,5.40234 C 77.29919,408.78075 73.974022,406.84115 71,403 c -2.652419,-5.97309 -3.436052,-10.77884 -3.388184,-17.27075 -0.0053,-0.89058 -0.01051,-1.78116 -0.01593,-2.69873 -0.01313,-2.92312 -0.0045,-5.84568 0.0057,-8.7688 -0.002,-2.0473 -0.0049,-4.0946 -0.0087,-6.14189 -0.0044,-4.2844 0.002,-8.56861 0.01602,-12.85298 0.01706,-5.4671 0.0073,-10.93374 -0.01072,-16.40082 -0.01089,-4.22702 -0.0074,-8.45394 3.84e-4,-12.68096 0.002,-2.01445 -4.11e-4,-4.02891 -0.0074,-6.04334 -0.0552,-20.27365 3.643037,-33.49176 17.026074,-49.30189 2.525073,-3.00939 4.936685,-6.09354 7.320312,-9.21484 0.418301,-0.5468 0.836602,-1.09361 1.267578,-1.65698 0.847811,-1.10909 1.695142,-2.21855 2.541992,-3.32837 2.014074,-2.6358 4.040599,-5.26203 6.065374,-7.88965 C 107.89447,240.84825 113.94635,232.92345 120,225 Z"
     style="fill:#5e7b89"
     id="path6" />
  <path
     d="m 216.58789,136.3689 c 0.93587,-0.007 1.87175,-0.0143 2.83598,-0.0217 3.07797,-0.0168 6.15446,0.002 9.23238,0.0239 2.14799,-8.3e-4 4.29598,-0.003 6.44397,-0.007 4.4956,-0.003 8.99069,0.0118 13.4862,0.0393 5.7535,0.0341 11.50611,0.0281 17.25966,0.009 4.43364,-0.0106 8.86707,-0.002 13.30069,0.0134 2.12102,0.005 4.24206,0.005 6.36307,-0.002 2.96789,-0.005 5.93452,0.015 8.90227,0.0423 1.30628,-0.01 1.30628,-0.01 2.63896,-0.0198 5.79345,0.0904 9.1953,1.18885 13.94893,4.55322 3.70586,4.77862 5.43394,8.68686 5.34375,14.8086 -0.85902,5.47625 -4.19211,9.27479 -8.40625,12.6289 -5.18103,2.75587 -9.92336,2.72579 -15.70996,2.75537 -0.88506,0.008 -1.77013,0.0164 -2.68201,0.0248 -2.92663,0.0248 -5.85321,0.0414 -8.77991,0.0558 -1.00134,0.005 -2.00268,0.0106 -3.03437,0.0161 -5.30006,0.0267 -10.60009,0.0461 -15.9002,0.0605 -4.38042,0.0133 -8.76037,0.0412 -13.14062,0.082 -5.29554,0.0494 -10.59066,0.0741 -15.88642,0.0812 -2.01418,0.007 -4.02836,0.0219 -6.04241,0.0459 -2.82435,0.0317 -5.64708,0.0317 -8.47156,0.0243 -0.82522,0.0164 -1.65044,0.0328 -2.50067,0.0497 -6.02427,-0.0643 -10.14115,-1.7768 -14.78937,-5.6332 -4.12801,-5.29232 -5.55014,-9.28825 -5,-16 1.70945,-5.42699 4.17288,-8.61649 8.90665,-11.91484 3.77148,-1.95508 7.51064,-1.77226 11.68124,-1.71627 z"
     style="fill:#5e7b89"
     id="path7" />
  <path
     d="m 391.04248,224.70581 c 2.11739,1.39989 3.32973,2.71866 4.84033,4.75122 0.52231,0.69384 1.04463,1.38768 1.58277,2.10254 0.54761,0.74347 1.09522,1.48693 1.65942,2.25293 1.16516,1.55354 2.33052,3.10693 3.49609,4.66016 0.57347,0.76973 1.14695,1.53946 1.7378,2.33252 2.24665,3.00466 4.53406,5.97668 6.82861,8.94482 0.79793,1.03641 1.59586,2.07281 2.41797,3.14062 0.79019,1.0261 1.58039,2.05219 2.39453,3.10938 0.82951,1.07806 1.65893,2.15619 2.48828,3.23437 0.41452,0.53867 0.82903,1.07734 1.2561,1.63233 0.8335,1.08421 1.66603,2.16916 2.49756,3.25488 2.10983,2.75202 4.23667,5.48746 6.39868,8.19873 9.85365,12.42321 15.68216,23.07678 15.63404,39.12744 0.005,0.89716 0.0102,1.79431 0.0155,2.71865 0.0138,2.93679 0.0129,5.87334 0.0106,8.81016 0.004,2.05545 0.008,4.1109 0.013,6.16635 0.007,4.29517 0.007,8.59025 0.002,12.88541 -0.006,5.49546 0.0112,10.99058 0.0344,16.48599 0.0147,4.23971 0.0156,8.47934 0.0125,12.71907 5.1e-4,2.02613 0.006,4.05227 0.0158,6.07838 0.0124,2.83331 0.006,5.66597 -0.006,8.49927 0.008,0.83032 0.0153,1.66063 0.0232,2.5161 -0.0599,6.65108 -1.36855,11.3341 -5.83298,16.48537 -4.34436,3.7086 -7.07892,4.43714 -12.8125,4.3125 -1.07766,-0.018 -2.15531,-0.0361 -3.26562,-0.0547 -0.81985,-0.0232 -1.63969,-0.0464 -2.48438,-0.0703 0.66,-0.33 1.32,-0.66 2,-1 1.07254,-2.26225 1.07254,-2.26225 2,-5 0.34496,-0.85835 0.68992,-1.7167 1.04533,-2.60106 1.20299,-4.28305 1.24228,-8.16886 1.22933,-12.5945 0.005,-0.90658 0.0102,-1.81316 0.0155,-2.74722 0.0139,-2.98919 0.0129,-5.97816 0.0106,-8.96738 0.004,-2.0902 0.008,-4.18041 0.013,-6.27061 0.007,-4.38207 0.007,-8.76406 0.002,-13.14613 -0.006,-5.58576 0.0111,-11.17118 0.0343,-16.75688 0.0148,-4.31974 0.0156,-8.6394 0.0125,-12.95916 5.1e-4,-2.05745 0.006,-4.11492 0.0158,-6.17235 0.10721,-24.84278 -6.10488,-39.08371 -21.53361,-58.4517 -2.89222,-3.65776 -5.71137,-7.37013 -8.53223,-11.08301 C 390.61589,243.77429 384.8299,236.37208 379,229 c 8.35347,-5.56898 8.35347,-5.56898 12.04248,-4.29419 z"
     style="fill:#36464e"
     id="path8" />
  <path
     d="m 141,232 c 1.41791,0.45446 2.83428,0.91375 4.25,1.375 1.18336,0.38285 1.18336,0.38285 2.39062,0.77344 2.22566,0.8033 4.2687,1.74868 6.35938,2.85156 -4.69039,7.48087 -10.10384,14.31134 -15.5874,21.2124 -2.18398,2.76376 -4.3316,5.5549 -6.4751,8.3501 -0.40831,0.53206 -0.81662,1.06412 -1.23731,1.6123 -0.82231,1.07194 -1.64442,2.14404 -2.4663,3.21631 -1.65877,2.1629 -3.3208,4.32327 -4.98316,6.4834 -0.82961,1.07819 -1.65888,2.15663 -2.48779,3.23535 -2.15199,2.80009 -4.30902,5.59609 -6.47388,8.38623 -0.66902,0.86432 -0.66902,0.86432 -1.35156,1.7461 -1.23567,1.59607 -2.47324,3.19066 -3.71094,4.78515 C 108.4918,297.00832 107.75703,297.9893 107,299 c -0.69597,0.86315 -1.39195,1.7263 -2.10901,2.6156 -2.44204,4.37064 -2.43973,7.59199 -2.37341,12.50745 -0.004,0.89832 -0.008,1.79664 -0.0119,2.72218 -0.006,1.94299 -0.003,3.88602 0.008,5.82898 0.0173,3.07729 0.01,6.15364 -0.004,9.23094 -0.0253,6.53168 -0.0198,13.06314 -0.01,19.59485 0.0115,7.57065 0.0104,15.14085 -0.0241,22.71144 -0.007,3.02805 0.01,6.05537 0.0271,9.08336 -0.006,1.86072 -0.0125,3.72144 -0.0206,5.58215 0.0113,0.83862 0.0226,1.67724 0.0343,2.54128 -0.0555,5.33724 -0.997,8.33561 -4.51671,12.58177 -4.649534,4.09602 -6.965594,5.12803 -13.125,5.0625 -1.095703,-0.009 -2.191406,-0.018 -3.320312,-0.0273 -0.843047,-0.0116 -1.686094,-0.0232 -2.554688,-0.0352 0.357221,-0.48277 0.714443,-0.96555 1.082489,-1.46295 5.168682,-8.31788 4.490008,-16.76334 4.295139,-26.20446 -0.05837,-2.9959 -0.07958,-5.99003 -0.09055,-8.98646 -0.03599,-8.51173 -0.123821,-17.02209 -0.269501,-25.53265 -0.08684,-5.22502 -0.119076,-10.44814 -0.118717,-15.67384 -0.01057,-1.9759 -0.0415,-3.95182 -0.09426,-5.92705 -0.295249,-11.23187 0.16895,-19.12129 7.894285,-27.73551 0.950336,-1.00128 1.910158,-1.99365 2.87977,-2.97628 2.3868,-2.52023 4.402115,-5.28771 6.483845,-8.0633 0.82292,-1.07521 1.64698,-2.14955 2.47266,-3.22266 0.40621,-0.52996 0.81243,-1.05993 1.23095,-1.60595 2.0749,-2.70539 4.1547,-5.40693 6.23397,-8.10889 0.83336,-1.08331 1.66669,-2.16665 2.5,-3.25 5,-6.5 5,-6.5 6.25122,-8.12647 0.82942,-1.07832 1.65869,-2.15677 2.48779,-3.23535 2.14189,-2.78592 4.28683,-5.56941 6.43677,-8.34912 C 136.69765,241.89225 136.69765,241.89225 141,232 Z"
     style="fill:#37474f"
     id="path9" />
  <path
     d="m 124,434 c 3.40066,2.12541 3.88252,3.56923 4.9375,7.4375 0.0748,4.26464 -0.31492,5.2331 -2.9375,8.5625 -3.04571,2.31445 -6.29393,4.26787 -9.5625,6.25 -1.99589,1.23912 -3.99063,2.48009 -5.98437,3.72266 -1.05124,0.65242 -2.10247,1.30485 -3.18555,1.97705 -5.57831,3.50019 -11.076748,7.12129 -16.58008,10.73779 -2.20295,1.44428 -4.406071,2.88829 -6.609375,4.33203 -1.039629,0.68143 -2.079258,1.36286 -3.150391,2.06494 -5.962186,3.90088 -11.947985,7.76514 -17.93457,11.62842 -2.836127,1.83146 -5.669796,3.66671 -8.502685,5.50317 -1.435197,0.92843 -2.872172,1.85412 -4.311036,2.77686 -3.390116,2.17708 -6.744133,4.38465 -10.042724,6.69849 C 30.23728,512.5505 30.23728,512.5505 24.875,512.8125 21,512 21,512 18.4375,510.5625 c -1.77075,-3.15655 -2.04115,-5.58147 -2.26172,-9.14844 2.49159,-7.29765 13.151859,-11.98288 19.32422,-15.85156 1.671264,-1.05818 3.342517,-2.11638 5.012939,-3.17589 1.1401,-0.72312 2.280564,-1.44566 3.421387,-2.16763 5.722884,-3.62485 11.397423,-7.322 17.065674,-11.03148 1.898379,-1.24098 3.796815,-2.48186 5.695313,-3.72266 0.897509,-0.58668 1.795019,-1.17337 2.719726,-1.77783 3.81362,-2.48886 7.635581,-4.96472 11.459961,-7.43701 0.672891,-0.43506 1.345781,-0.87012 2.039063,-1.31836 2.770624,-1.7907 5.541882,-3.58042 8.313476,-5.36963 1.514486,-0.97777 3.028649,-1.95603 4.542481,-2.93481 1.465453,-0.94611 2.932532,-1.88972 4.40137,-2.83057 3.70773,-2.38255 7.28391,-4.86253 10.82861,-7.48413 4.1968,-2.81145 8.06262,-3.45037 13,-2.3125 z"
     style="fill:#01a9f4"
     id="path10" />
  <path
     d="m 267.9375,318 c 5.45069,3.56939 10.71588,8.82643 13.0625,15 1.02561,9.17653 0.65731,17.3712 -5,25 -4.81681,5.49491 -10.39687,8.37796 -17.60156,9.35156 C 251.249,367.73421 245.85141,366.12982 240,362 c -5.6791,-5.1217 -8.57191,-9.86331 -9.37109,-17.58594 C 230.49183,336.59253 230.45857,330.83448 236,325 c 8.62145,-8.72574 20.10253,-13.04989 31.9375,-7 z"
     style="fill:#020101"
     id="path11" />
  <path
     d="m 347,402 c 2.94269,1.56658 5.7137,3.35986 8.5,5.1875 0.81388,0.52392 1.62776,1.04785 2.46631,1.58765 2.68425,1.73202 5.35938,3.47753 8.03369,5.22485 1.91911,1.24765 3.83838,2.49504 5.75781,3.74219 3.91235,2.54547 7.82084,5.09673 11.72656,7.65234 4.788,3.13233 9.58553,6.24947 14.39063,9.35547 0.66951,0.43329 1.33901,0.86657 2.02881,1.31299 3.57666,2.31349 7.1583,4.61899 10.74463,6.91748 0.76973,0.49468 1.53946,0.98935 2.33252,1.49902 1.46563,0.94177 2.93266,1.88138 4.40136,2.81836 9.97529,6.41736 9.97529,6.41736 11.61768,9.70215 0.57307,7.10602 0.57307,7.10602 -1.5625,10.4375 -3.3861,2.17058 -5.38634,2.62891 -9.4375,2.5625 -7.6397,-3.27108 -14.59811,-8.5629 -21.5,-13.125 -1.16048,-0.76356 -2.32121,-1.52674 -3.48218,-2.28955 -1.73474,-1.13983 -3.46937,-2.27982 -5.20323,-3.42099 -4.61168,-3.03502 -9.2388,-6.04531 -13.87709,-9.03946 -0.99653,-0.64401 -0.99653,-0.64401 -2.01318,-1.30102 -2.67967,-1.73113 -5.36042,-3.46057 -8.042,-5.18873 -4.26757,-2.75051 -8.52997,-5.5087 -12.78613,-8.27685 -2.13768,-1.38529 -4.28287,-2.75846 -6.42822,-4.13184 -1.36883,-0.88749 -2.73734,-1.77549 -4.10547,-2.66406 -0.94964,-0.60147 -0.94964,-0.60147 -1.91846,-1.21509 C 335.45967,417.26194 333.20041,415.6924 332,412 c -0.4375,-2.9375 -0.4375,-2.9375 0,-6 4.74572,-5.77183 8.18588,-6.75224 15,-4 z"
     style="fill:#01a9f4"
     id="path12" />
  <path
     d="m 256,417.375 c 0.63937,-0.0129 1.27875,-0.0258 1.9375,-0.0391 3.35689,1.08081 4.85823,2.94846 7.0625,5.66406 0.49504,2.92896 0.68592,5.27584 0.64697,8.19922 0.0131,1.218 0.0131,1.218 0.0265,2.4606 0.022,2.67644 0.007,5.35122 -0.009,8.02768 0.003,1.86418 0.008,3.72836 0.0145,5.59253 0.007,3.90394 -0.003,7.80731 -0.0267,11.71118 -0.0285,5.00062 -0.0121,9.9999 0.0179,15.00047 0.0181,3.84855 0.0123,7.69678 -6.4e-4,11.54534 -0.003,1.84357 7.4e-4,3.68716 0.0124,5.5307 0.0127,2.57846 -0.007,5.15476 -0.0345,7.73306 0.0101,0.75963 0.0202,1.51926 0.0307,2.30191 -0.0798,3.99785 -0.53585,5.72263 -3.08917,8.86826 -2.50946,1.96712 -3.47461,2.71683 -6.58847,2.65405 -0.95906,0.0193 -0.95906,0.0193 -1.9375,0.0391 C 250.70561,511.58325 249.20427,509.7156 247,507 c -0.49504,-2.92896 -0.68592,-5.27584 -0.64697,-8.19922 -0.009,-0.812 -0.0175,-1.624 -0.0265,-2.4606 -0.022,-2.67644 -0.007,-5.35122 0.009,-8.02768 -0.003,-1.86418 -0.008,-3.72836 -0.0145,-5.59253 -0.007,-3.90394 0.003,-7.80731 0.0267,-11.71118 0.0285,-5.00062 0.0121,-9.9999 -0.0179,-15.00047 -0.0181,-3.84855 -0.0123,-7.69678 6.4e-4,-11.54534 0.003,-1.84357 -7.4e-4,-3.68716 -0.0124,-5.5307 -0.0127,-2.57846 0.007,-5.15476 0.0345,-7.73306 -0.0101,-0.75963 -0.0202,-1.51926 -0.0307,-2.30191 0.0798,-3.99785 0.53585,-5.72263 3.08917,-8.86826 2.50946,-1.96712 3.47461,-2.71683 6.58847,-2.65405 z"
     style="fill:#01a8f4"
     id="path13" />
  <path
     d="m 297,299 c 2.24894,-0.10824 4.49938,-0.1857 6.75,-0.25 1.25297,-0.0464 2.50594,-0.0928 3.79687,-0.14063 C 311,299 311,299 313.39062,300.89062 c 2.87888,3.77329 2.74991,6.22585 2.78638,10.95826 0.007,0.70427 0.0131,1.40854 0.0199,2.13415 0.0197,2.33509 0.0314,4.67011 0.0414,7.00525 0.004,0.7973 0.008,1.59461 0.0124,2.41607 0.0209,4.22027 0.0352,8.44052 0.0445,12.66084 0.0111,4.35813 0.0455,8.71576 0.0852,13.07372 0.0261,3.35178 0.0345,6.70343 0.0381,10.05529 0.005,1.60636 0.0165,3.21272 0.035,4.81898 0.0244,2.25033 0.0234,4.49934 0.0165,6.74976 0.009,1.91955 0.009,1.91955 0.0178,3.87788 -0.57386,3.9522 -1.65606,5.59039 -4.48775,8.35918 -3.2852,1.09506 -5.73663,1.09961 -9.1875,1.0625 -1.08668,-0.009 -2.17336,-0.0181 -3.29297,-0.0273 -0.83144,-0.0116 -1.66289,-0.0232 -2.51953,-0.0352 0.16233,-0.67071 0.32466,-1.34142 0.49191,-2.03246 0.59945,-3.50111 0.64792,-6.90917 0.63748,-10.44825 0.002,-0.73558 0.003,-1.47116 0.005,-2.22902 0.004,-2.421 0.001,-4.84193 -0.002,-7.26293 6.8e-4,-1.68721 0.002,-3.37442 0.003,-5.06163 10e-4,-3.5313 -6.6e-4,-7.06258 -0.005,-10.59388 -0.006,-4.52498 -0.002,-9.04989 0.004,-13.57486 0.004,-3.48211 0.002,-6.96421 -1.2e-4,-10.44632 -6.7e-4,-1.66856 1.5e-4,-3.33711 0.002,-5.00567 0.003,-2.33125 -0.001,-4.66241 -0.007,-6.99366 0.002,-0.68842 0.004,-1.37684 0.006,-2.08612 C 298.12122,305.02931 297.98844,302.09555 297,299 Z"
     style="fill:#6e6e6e"
     id="path14" />
  <path
     d="m 230,256 c 17.16,0 34.32,0 52,0 0,8.58 0,17.16 0,26 -17.16,0 -34.32,0 -52,0 0,-8.58 0,-17.16 0,-26 z"
     style="fill:#35444c"
     id="path15" />
  <path
     d="m 465,478 c 3.33911,1.71826 3.33911,1.71826 6.58203,3.92969 0.58086,0.391 1.16172,0.782 1.76018,1.18484 1.8333,1.23966 3.65136,2.49985 5.47029,3.76047 1.23805,0.83855 2.47697,1.6758 3.7168,2.51172 12.19929,8.2856 12.19929,8.2856 12.90429,11.73437 0.006,3.68724 -0.0417,6.18031 -1.87109,9.44141 -3.886,2.17995 -7.28722,2.27747 -11.5625,1.4375 -4.52003,-2.17437 -8.61325,-4.9323 -12.75,-7.75 -1.11989,-0.73881 -2.24098,-1.4758 -3.36328,-2.21094 C 452.63378,493.26756 452.63378,493.26756 451,490 c -0.34569,-3.01242 -0.57161,-5.09202 0,-8 4.25859,-5.21677 7.5018,-5.67374 14,-4 z"
     style="fill:#01a9f4"
     id="path16" />
  <path
     d="m 359,60 c 10.89,0 21.78,0 33,0 0,8.25 0,16.5 0,25 -10.89,0 -21.78,0 -33,0 0,-8.25 0,-16.5 0,-25 z"
     style="fill:#cfd8dc"
     id="path17" />
  <path
     d="m 120,60 c 10.89,0 21.78,0 33,0 0,8.25 0,16.5 0,25 -10.89,0 -21.78,0 -33,0 0,-8.25 0,-16.5 0,-25 z"
     style="fill:#cfd8dc"
     id="path18" />
  <path
     d="m 177,402 c 2.70298,2.95638 3,4.48856 3,8.5 -1.81074,6.33759 -6.99125,9.41729 -12.375,12.8125 -1.08023,0.69738 -2.16047,1.39477 -3.27344,2.11328 -3.79651,1.78321 -6.2054,1.99578 -10.35156,1.57422 -3.4325,-1.94011 -4.70166,-3.14228 -6,-6.875 0,-3.98027 0.88268,-5.74486 3,-9.125 2.31423,-2.04477 4.82614,-3.67258 7.4375,-5.3125 0.66838,-0.4415 1.33676,-0.88301 2.02539,-1.33789 C 166.50153,400.44155 169.9261,399.17044 177,402 Z"
     style="fill:#01a9f4"
     id="path19" />
  <path
     d="m 333,333 c 5.61,0 11.22,0 17,0 0,5.61 0,11.22 0,17 -5.61,0 -11.22,0 -17,0 0,-5.61 0,-11.22 0,-17 z"
     style="fill:#525a5e"
     id="path20" />
  <path
     d="m 162,333 c 5.61,0 11.22,0 17,0 0,5.61 0,11.22 0,17 -5.61,0 -11.22,0 -17,0 0,-5.61 0,-11.22 0,-17 z"
     style="fill:#525a5e"
     id="path21" />
  <path
     d="m 259,333 c 2.9375,1.5 2.9375,1.5 5,4 0.80968,3.76308 0.4536,6.89434 -1,10.4375 -3.0909,2.41477 -6.11445,2.98583 -10,2.5625 -3.04546,-1.96686 -4.63386,-3.36046 -5.44141,-6.97656 -0.19645,-3.38413 0.20921,-5.65192 2.00391,-8.52344 3.40131,-2.09312 5.50823,-2.05148 9.4375,-1.5 z"
     style="fill:#ed4133"
     id="path22" />
</svg>
