<?xml version="1.0" encoding="UTF-8"?>
<!-- Generator: visioncortex VTracer -->
<svg id="svg" version="1.1" xmlns="http://www.w3.org/2000/svg" style="display: block;" viewBox="0 0 512 512"><path d="M0 0 C2.62337797 0.79489305 2.62337797 0.79489305 5 1 C7.71463073 -0.80495512 7.71463073 -0.80495512 10 -3 C14.22788063 -5.11394031 19.40886762 -4.49025911 24 -4 C31.95600456 -1.29970044 35.73865579 5.52346146 39.33984375 12.65234375 C45.60955274 26.54479924 47.62198042 40.8981177 48 56 C49.33998047 56.13341797 49.33998047 56.13341797 50.70703125 56.26953125 C56.97342302 57.65958494 61.36986736 62.70762597 65 67.8125 C67.22589796 74.90754974 67.90527414 81.84166577 65.14453125 88.86328125 C61.96107612 94.80645517 57.49019429 99.8366019 51 102 C47.67202668 102.50044712 44.35906021 102.80748469 41 103 C41.04640625 104.02996094 41.0928125 105.05992188 41.140625 106.12109375 C41.64029358 122.27321555 38.2490785 136.501843 31 151 C32.05960938 151.25394531 33.11921875 151.50789062 34.2109375 151.76953125 C35.59911165 152.11657479 36.98712431 152.46426477 38.375 152.8125 C39.07367188 152.97814453 39.77234375 153.14378906 40.4921875 153.31445312 C45.7734375 154.66015625 45.7734375 154.66015625 48 158 C48.99512887 164.60466104 47.2634155 170.76441364 45.375 177.0390625 C44.97547119 178.42670303 44.97547119 178.42670303 44.56787109 179.84237671 C43.72315015 182.77332209 42.86318402 185.69944343 42 188.625 C41.13776929 191.55793465 40.2792794 194.49171856 39.43212891 197.42904663 C38.90697334 199.24924042 38.37323484 201.06698712 37.82958984 202.88174438 C35.97524697 209.29817803 34.71806714 215.13977574 37.8125 221.375 C39.77304684 225.95891201 40.86348889 230.43094656 41.75 235.3125 C41.94106323 236.30612549 41.94106323 236.30612549 42.13598633 237.31982422 C43.2857628 244.0637829 43 249.88918584 43 257 C59.83 257 76.66 257 94 257 C94.66 255.02 95.32 253.04 96 251 C100.30237521 247.23738302 103.51934949 246.4894413 109.15625 246.46875 C109.82160767 246.4649231 110.48696533 246.46109619 111.17248535 246.45715332 C112.57089767 246.45444687 113.96936172 246.46171906 115.36767578 246.47851562 C117.49497494 246.49994937 119.61889825 246.4786769 121.74609375 246.453125 C123.11198654 246.45576851 124.47787725 246.46089398 125.84375 246.46875 C127.68743164 246.47551758 127.68743164 246.47551758 129.56835938 246.48242188 C133.62944331 247.09493596 135.80744349 248.46438702 139 251 C140.78229676 253.67344514 141 254.73770359 141 258 C141.99515625 258.04898437 142.9903125 258.09796875 144.015625 258.1484375 C151.28488891 258.53107674 158.50669453 259.02366309 165.74194336 259.8371582 C174.01543003 260.76359384 181.7096629 261.18987678 190 260 C220.80008138 255.76707742 252.99036944 263.2997597 278.24121094 281.63476562 C294.81023693 294.21256778 307.39823841 310.19471523 314 330 C314.09883013 332.32645668 314.13504667 334.65570424 314.14044189 336.98425293 C314.14489858 338.05685529 314.14489858 338.05685529 314.1494453 339.15112638 C314.15813449 341.55323666 314.15964071 343.95529712 314.16113281 346.35742188 C314.1657607 348.07711392 314.17078533 349.79680493 314.17617798 351.51649475 C314.18930379 356.19198887 314.19574689 360.86746862 314.20018864 365.54297829 C314.2031181 368.46187662 314.20722259 371.38077101 314.21169281 374.29966736 C314.22536608 383.42623073 314.23503448 392.5527851 314.2388947 401.67935801 C314.24338 412.22650888 314.26095047 422.77353045 314.2898953 433.32064199 C314.31147795 441.46675684 314.32159709 449.61283522 314.32293582 457.75897837 C314.32398599 462.62777581 314.32993901 467.49645168 314.34775543 472.36521912 C314.36417792 476.9419792 314.36642014 481.51852553 314.35761642 486.09530449 C314.356843 487.77756254 314.36122866 489.45983182 314.37107468 491.14206123 C314.38370322 493.43354784 314.37796788 495.72426685 314.36749268 498.01574707 C314.36895924 499.29959541 314.3704258 500.58344376 314.3719368 501.90619659 C314 505 314 505 312.63077068 506.9122858 C310.25969356 508.49377993 308.41637876 508.3883653 305.58227539 508.40405273 C304.47425064 508.41673691 303.36622589 508.42942108 302.22462463 508.44248962 C301.02772507 508.43955399 299.8308255 508.43661835 298.59765625 508.43359375 C297.36840927 508.4388356 296.13916229 508.44407745 294.87266541 508.44947815 C291.60419168 508.45755422 288.33613602 508.45041949 285.06768799 508.43914795 C281.74877836 508.43642033 278.43011423 508.47159501 275.11132812 508.49804688 C272.58593793 508.49965903 270.06054519 508.49908108 267.53515625 508.49609375 C266.34028091 508.50732773 265.14540558 508.51856171 263.9143219 508.53013611 C262.80314499 508.52075516 261.69196808 508.51137421 260.54711914 508.50170898 C259.57021622 508.50154282 258.59331329 508.50137665 257.58680725 508.50120544 C254.23120979 507.85104347 253.05221395 506.69312876 251 504 C250.4699707 502.07063293 250.4699707 502.07063293 250.42578125 500.03051758 C250.39877136 499.25517166 250.37176147 498.47982574 250.34393311 497.6809845 C250.33356018 496.84395493 250.32318726 496.00692535 250.3125 495.14453125 C250.28488586 494.26306931 250.25727173 493.38160736 250.2288208 492.47343445 C250.1695818 490.57593124 250.11803112 488.67817558 250.07336426 486.78027344 C249.94936807 481.76430792 249.75034192 476.75156694 249.546875 471.73828125 C249.50641052 470.73334625 249.46594604 469.72841125 249.42425537 468.69302368 C247.25619218 418.41677397 236.18557993 356.41092958 198 320 C187.23469861 311.00457536 181.14962641 308.26311499 167.13397217 309.46508789 C163.54564094 309.79010173 159.9603753 310.14408999 156.375 310.5 C154.87894846 310.64496749 153.38285489 310.78950202 151.88671875 310.93359375 C148.25731484 311.2840763 144.6285133 311.64040037 141 312 C140.86795166 312.79776855 140.73590332 313.59553711 140.59985352 314.41748047 C140 317 140 317 138.40234375 318.3203125 C136.6134302 320.09023858 136.6134302 320.09023858 137.06640625 323.5546875 C137.22482462 324.99557232 137.39061257 326.43565981 137.5625 327.875 C138.42327254 337.68154684 136.96242817 346.20977976 131.1875 354.4375 C124.63033073 362.2241385 117.17065912 367.30952152 107 369 C104.85381283 369.08515081 102.70524457 369.11776182 100.55737305 369.11352539 C99.27642258 369.11344986 97.99547211 369.11337433 96.67570496 369.11329651 C95.28770915 369.10819065 93.89971375 369.10297467 92.51171875 369.09765625 C91.08396962 369.09578975 89.65621985 369.09436694 88.22846985 369.09336853 C84.48186455 369.08956165 80.7352984 369.07974707 76.9887085 369.06866455 C73.16109751 369.05841102 69.33348016 369.05386248 65.50585938 369.04882812 C58.00388846 369.03812307 50.50194973 369.02106873 43 369 C41.37336828 401.34340798 43.67292179 427.3081014 59.28141785 456.10592651 C61.6374302 460.57636004 62.56308943 463.81878138 62 469 C60.375 471.9375 60.375 471.9375 57 474 C53.60791016 474.20141602 53.60791016 474.20141602 49.7890625 474.12890625 C48.5201416 474.11029541 47.2512207 474.09168457 45.94384766 474.07250977 C44.48664307 474.03661743 44.48664307 474.03661743 43 474 C43.02356567 475.23302856 43.02356567 475.23302856 43.04760742 476.4909668 C43.11005073 480.22307428 43.14902136 483.95507172 43.1875 487.6875 C43.21263672 488.98107422 43.23777344 490.27464844 43.26367188 491.60742188 C43.27817383 493.47817383 43.27817383 493.47817383 43.29296875 495.38671875 C43.31653442 497.10701294 43.31653442 497.10701294 43.34057617 498.86206055 C42.93082921 502.63731335 41.70357746 505.29642254 39 508 C37.11095491 508.10531098 35.21793691 508.13967015 33.32597351 508.14717102 C31.47726151 508.15790398 31.47726151 508.15790398 29.59120178 508.16885376 C28.21273829 508.17169432 26.83427452 508.17440601 25.45581055 508.17700195 C24.01389399 508.18326374 22.57197906 508.18991028 21.13006592 508.19691467 C17.20230151 508.21435152 13.2745493 508.2248838 9.34675574 508.2331202 C6.89454227 508.23826484 4.44233262 508.24434082 1.99012184 508.25063133 C-5.67720044 508.26969118 -13.34451304 508.28392043 -21.01185447 508.2922433 C-29.87186653 508.30201867 -38.73162896 508.3283425 -47.59155303 508.36874419 C-54.43319487 508.39887506 -61.27476503 508.4137093 -68.11647195 508.41702431 C-72.20570857 508.41937838 -76.29467874 508.42838443 -80.38384438 508.45348549 C-84.23097669 508.47671843 -88.07766626 508.48101903 -91.92485046 508.47072411 C-93.33739886 508.47022745 -94.74996869 508.47658605 -96.16245079 508.49028015 C-98.08989417 508.50792207 -100.01752864 508.49853275 -101.94502258 508.48774719 C-103.02406514 508.49013555 -104.1031077 508.4925239 -105.21484852 508.49498463 C-108.6988756 507.87579394 -109.88021027 506.7879581 -112 504 C-112.45410156 500.79199219 -112.45410156 500.79199219 -112.390625 497.046875 C-112.38496521 496.38665344 -112.37930542 495.72643188 -112.37347412 495.04620361 C-112.3511623 492.94671737 -112.30098314 490.8489663 -112.25 488.75 C-112.22992794 487.3229414 -112.21167839 485.89585592 -112.1953125 484.46875 C-112.15131693 480.97860707 -112.08232876 477.48947301 -112 474 C-112.96421875 474.02320313 -113.9284375 474.04640625 -114.921875 474.0703125 C-116.18515625 474.08835937 -117.4484375 474.10640625 -118.75 474.125 C-120.00296875 474.14820313 -121.2559375 474.17140625 -122.546875 474.1953125 C-125.75020002 474.01412896 -127.38402735 473.76280171 -130 472 C-132.02819245 469.39232399 -132.00132276 468.02336882 -131.8125 464.6875 C-130.94800077 460.76400352 -129.7012596 457.62442262 -128 454 C-128.99 454.33 -129.98 454.66 -131 455 C-149.5437681 456.26812764 -165.25823765 452.33650483 -179.8125 440.1875 C-189.82871212 430.76900036 -197.76708431 417.0046322 -198.25726891 403.00654316 C-198.27066983 401.57858377 -198.27351286 400.15049769 -198.26742554 398.7224884 C-198.27195665 397.92853265 -198.27648776 397.1345769 -198.28115618 396.31656188 C-198.29373725 393.67688245 -198.2921839 391.03741102 -198.29052734 388.39770508 C-198.2965166 386.49645729 -198.30332306 384.59521192 -198.31088257 382.69396973 C-198.3285111 377.54289535 -198.33323667 372.39188747 -198.33451414 367.24078584 C-198.33593829 364.01774742 -198.34021293 360.79472576 -198.34550858 357.57169151 C-198.36399973 346.31365262 -198.37218049 335.055661 -198.37060547 323.79760742 C-198.36940491 313.32641463 -198.39049282 302.85542824 -198.4220928 292.38428766 C-198.44830333 283.37591997 -198.45897073 274.3676195 -198.45769465 265.35921401 C-198.45718634 259.98712665 -198.46279648 254.61522275 -198.48405075 249.2431736 C-198.50351325 244.18611256 -198.50350305 239.12940843 -198.48901749 234.07233429 C-198.48693808 232.22495434 -198.49157803 230.37755159 -198.5037384 228.53021049 C-198.61203951 210.9258226 -194.85551263 198.44660412 -184.8125 183.8125 C-172.57640287 171.57640287 -157.48677688 164.15792336 -140.0625 163.625 C-122.08057858 164.21573329 -108.83707056 170.93752483 -96 183 C-96.24758057 181.73406006 -96.49516113 180.46812012 -96.75024414 179.16381836 C-97.66921093 174.44901943 -98.57325159 169.73145925 -99.47290039 165.01293945 C-99.86371357 162.97439967 -100.25852504 160.93662206 -100.6574707 158.8996582 C-101.23150534 155.96498675 -101.79091924 153.02783949 -102.34765625 150.08984375 C-102.52780777 149.18540024 -102.70795929 148.28095673 -102.89356995 147.34910583 C-105.00572576 136.00858864 -105.00572576 136.00858864 -101.75 131.125 C-99.54832896 129.70964005 -97.57531492 129.34801553 -95 129 C-95.32742187 127.8759375 -95.65484375 126.751875 -95.9921875 125.59375 C-97.17745135 120.85269459 -97.22794919 116.36236942 -97.125 111.5 C-97.11597656 110.67757812 -97.10695313 109.85515625 -97.09765625 109.0078125 C-97.07436865 107.00507917 -97.03850959 105.00249846 -97 103 C-97.6086792 102.97502441 -98.2173584 102.95004883 -98.84448242 102.92431641 C-104.9778638 102.60615029 -109.32744115 101.01486674 -114 97 C-120.23419271 90.04751986 -121.3748473 84.82173401 -121.26953125 75.515625 C-120.74252335 68.64160894 -118.1419629 64.82449246 -113.1875 60.1875 C-110.40040191 57.85194294 -108.80946426 56.93966368 -105.25 55.8125 C-100.64300302 53.24321323 -100.4160309 50.23132625 -99.0078125 45.3203125 C-93.57244432 27.41309175 -79.43527721 12.47818269 -63.26171875 3.53515625 C-43.27388587 -5.87229084 -20.89683823 -7.03150368 0 0 Z " transform="translate(198,4)" style="fill: #010101;"/><path d="M0 0 C13.39454517 10.31090887 23.04151129 24.360807 25.3125 41.3125 C25.95140911 51.10773645 25.69092833 60.9415891 25.5625 70.75 C25.54010044 73.42772092 25.52415731 76.10543277 25.5078125 78.78320312 C25.46408421 85.29329093 25.39743328 91.80282614 25.3125 98.3125 C22.3425 98.3125 19.3725 98.3125 16.3125 98.3125 C12.44652149 85.26482254 9.30861775 72.06724906 6.25585938 58.81103516 C1.54716441 33.12399628 1.54716441 33.12399628 -12.6875 12.3125 C-22.58727913 6.27109633 -32.06123792 3.31303528 -43.63671875 5.99609375 C-53.2073943 9.21301538 -60.5487227 14.54009022 -65.6875 23.3125 C-72.20925044 36.45727029 -69.5961694 48.54664138 -65.95214844 62.06152344 C-65.30537114 64.46398019 -64.68242283 66.8717386 -64.0625 69.28125 C-63.66021216 70.81546089 -63.25661518 72.34932925 -62.8515625 73.8828125 C-62.66502106 74.60042755 -62.47847961 75.3180426 -62.2862854 76.05740356 C-61.21097805 80.07425879 -61.21097805 80.07425879 -58.6875 83.3125 C-56.77743694 83.6301246 -56.77743694 83.6301246 -54.6875 83.5625 C-53.98625 83.56765625 -53.285 83.5728125 -52.5625 83.578125 C-50.4439331 83.46955515 -50.4439331 83.46955515 -48.6875 81.3125 C-47.50894065 73.64174579 -49.65639347 66.16436694 -51.625 58.8125 C-52.04168945 57.18828125 -52.04168945 57.18828125 -52.46679688 55.53125 C-53.72151008 50.29363762 -53.72151008 50.29363762 -55.6875 45.3125 C-56.46086759 38.49165142 -55.80026538 32.91644347 -51.6875 27.3125 C-46.98959271 22.30288322 -42.43748856 19.34883897 -35.5 18.875 C-28.80567607 19.0317233 -23.04821485 22.07284745 -18.25 26.625 C-13.97280668 33.98177251 -12.26567715 42.39871072 -10.21875 50.578125 C-9.89716919 51.84791199 -9.57558838 53.11769897 -9.2442627 54.42596436 C-8.39310607 57.78713509 -7.54743734 61.14966261 -6.70294189 64.51251221 C-5.8509208 67.90112469 -4.99356114 71.28838533 -4.13671875 74.67578125 C-2.87419225 79.67020464 -1.61408903 84.66523153 -0.35742188 89.66113281 C-0.07503662 90.76960571 0.20734863 91.87807861 0.49829102 93.0201416 C1.04696548 95.23877714 1.56513499 97.46515235 2.05444336 99.69763184 C2.29364502 100.76259888 2.53284668 101.82756592 2.77929688 102.92480469 C2.98002808 103.8676532 3.18075928 104.81050171 3.38757324 105.78192139 C4.31862792 108.88048677 4.31862792 108.88048677 8.3125 112.3125 C13.9225 112.6425 19.5325 112.9725 25.3125 113.3125 C25.3125 126.8425 25.3125 140.3725 25.3125 154.3125 C19.19099348 154.45069455 13.07495209 154.56998918 6.953125 154.64208984 C4.87351082 154.67215889 2.79402238 154.71302616 0.71484375 154.76513672 C-2.2841705 154.8383885 -5.28150062 154.87205528 -8.28125 154.8984375 C-9.20240601 154.92940521 -10.12356201 154.96037292 -11.07263184 154.99227905 C-17.9562706 154.99582277 -21.76671734 153.07987568 -26.6875 148.3125 C-30.24496983 144.63632572 -31.50394959 141.44083489 -32.7578125 136.5078125 C-32.92497772 135.8656076 -33.09214294 135.22340271 -33.26437378 134.56173706 C-33.79230894 132.52316177 -34.30278731 130.48069904 -34.8125 128.4375 C-35.16158009 127.07391604 -35.51183054 125.71063113 -35.86328125 124.34765625 C-36.51278475 121.8273962 -37.1540458 119.30562048 -37.78955078 116.78173828 C-38.08587402 115.63688965 -38.38219727 114.49204102 -38.6875 113.3125 C-39.01347168 112.0529248 -39.33944336 110.79334961 -39.67529297 109.49560547 C-40.43671218 106.25690465 -40.43671218 106.25690465 -42.6875 104.3125 C-47.31759468 103.77051921 -47.31759468 103.77051921 -51.41918945 105.55810547 C-53.52743269 108.47433952 -52.64104857 110.96547156 -52.18115234 114.38769531 C-49.06133478 137.34641215 -49.06133478 137.34641215 -38.01171875 156.97265625 C-36.6875 158.3125 -36.6875 158.3125 -36.6875 160.3125 C-36.11902344 160.58964844 -35.55054688 160.86679687 -34.96484375 161.15234375 C-31.90639447 162.71042169 -28.96466813 164.45614233 -26.00390625 166.19140625 C-20.50681028 168.85188946 -14.55599232 168.52217328 -8.57421875 168.62890625 C-7.11989189 168.6600779 -7.11989189 168.6600779 -5.63618469 168.69187927 C-2.54919293 168.75708941 0.53788152 168.8161268 3.625 168.875 C5.72201364 168.91821237 7.81901903 168.96182752 9.91601562 169.00585938 C15.04809307 169.11274151 20.18025341 169.21408896 25.3125 169.3125 C25.3125 173.9325 25.3125 178.5525 25.3125 183.3125 C-15.6075 183.3125 -56.5275 183.3125 -98.6875 183.3125 C-98.84871214 148.51754712 -98.84871214 148.51754712 -98.8828125 133.875 C-98.90649615 123.78670059 -98.93425456 113.69853535 -98.98925781 103.61035156 C-99.02930697 96.2613618 -99.05497553 88.91248148 -99.06385398 81.56338561 C-99.06903837 77.67723443 -99.08109829 73.79139614 -99.11042023 69.90534592 C-99.13787637 66.23631955 -99.14588522 62.56773042 -99.13993073 58.89861107 C-99.14153 56.93315887 -99.1628929 54.96775263 -99.18518066 53.00242615 C-99.10418628 35.24351704 -92.89579606 19.60312871 -80.4765625 7.00390625 C-57.93044132 -14.75278492 -26.11730207 -18.04203597 0 0 Z " transform="translate(199.6875,202.6875)" style="fill: #5B8EB7;"/><path d="M0 0 C3.87785654 2.79225232 7.47250752 5.779246 11 9 C11.72832031 9.65871094 12.45664062 10.31742187 13.20703125 10.99609375 C21.46143232 18.84014219 32.39284593 32.12814164 33.12025452 43.95524597 C33.11803391 44.69470963 33.11581329 45.43417328 33.11352539 46.19604492 C33.11341209 47.45701241 33.11341209 47.45701241 33.11329651 48.74345398 C33.10813522 49.64666885 33.10297394 50.54988373 33.09765625 51.48046875 C33.0962413 52.40845779 33.09482635 53.33644684 33.09336853 54.29255676 C33.08776937 57.25757058 33.07521704 60.22250899 33.0625 63.1875 C33.05748489 65.19726453 33.052922 67.20703025 33.04882812 69.21679688 C33.03780021 74.14456032 33.02053617 79.07226737 33 84 C31.07547478 81.52546411 29.43176905 79.10985243 28.01953125 76.3125 C27.66455566 75.61995117 27.30958008 74.92740234 26.94384766 74.21386719 C26.57050293 73.48329102 26.1971582 72.75271484 25.8125 72 C18.47544684 57.95793565 8.05888347 39.47099744 -6 31 C-9.71278378 30.39134692 -11.67808125 30.23243427 -14.9375 32.125 C-16.55824231 34.98513349 -16.51742613 36.76608669 -16 40 C-13.91886589 42.58363062 -13.91886589 42.58363062 -11 45 C13.12502386 66.49320308 29.03068135 103.45252431 33 135 C33.08202578 137.28326433 33.11791067 139.56853846 33.11352539 141.85327148 C33.11367142 142.49802933 33.11381744 143.14278717 33.1139679 143.80708313 C33.11327817 145.91178907 33.10553042 148.01640351 33.09765625 150.12109375 C33.09578872 151.59082491 33.0943664 153.06055669 33.09336853 154.5302887 C33.0895697 158.37879181 33.07976221 162.22725656 33.06866455 166.07574463 C33.05658429 170.70391802 33.05203564 175.33210432 33.04621124 179.960289 C33.03654881 186.9735526 33.01737391 193.98673218 33 201 C22.11 201 11.22 201 0 201 C-0.103125 196.771875 -0.20625 192.54375 -0.3125 188.1875 C-1.67584876 144.59738734 -8.38580084 98.41128129 -28 59 C-28.3623877 58.26426758 -28.72477539 57.52853516 -29.09814453 56.77050781 C-33.66429542 47.58269052 -38.56578382 39.03394818 -45 31 C-45.79792969 29.96488281 -46.59585937 28.92976563 -47.41796875 27.86328125 C-54.94001106 18.35364422 -64.07319204 9.46340398 -75 4 C-75 -2.6 -75 -9.2 -75 -16 C-49.54087997 -21.09182401 -21.63240272 -13.86756811 0 0 Z " transform="translate(464,296)" style="fill: #9BC4F9;"/><path d="M0 0 C0.78753662 0.00757324 1.57507324 0.01514648 2.38647461 0.02294922 C13.67182998 0.34025936 23.38394658 4.68476579 31.41796875 12.6484375 C39.84656623 21.89072472 39.84656623 21.89072472 40.578125 27.35546875 C40.10245814 31.10848031 38.80874085 33.46746615 36.9375 36.75 C29.68494435 50.27938757 28.59668375 64.48816857 28.73681641 79.5769043 C28.73790833 81.32022075 28.73714474 83.06353917 28.73469543 84.80685425 C28.73292377 88.52371131 28.74309744 92.2402629 28.76277542 95.95706749 C28.79297591 101.8474163 28.79003889 107.73747967 28.78207397 113.62788391 C28.76706242 128.24846954 28.78870025 142.86896963 28.82989502 157.48950195 C28.86191725 168.87801925 28.88102977 180.26620029 28.85838258 191.6547578 C28.8481898 197.49772695 28.86524767 203.33975367 28.90352273 209.18259656 C28.92117416 212.82822363 28.91361534 216.47349285 28.89937401 220.11912155 C28.89780621 221.79517592 28.90631972 223.47127859 28.92627525 225.14721489 C29.04697144 235.86589068 28.14009851 245.18421996 22.1875 254.4375 C19.27129699 256.54843525 16.67317554 257.62085602 13.1875 258.4375 C12.1975 258.7675 11.2075 259.0975 10.1875 259.4375 C-3.71027214 260.78712999 -15.02330223 259.43715127 -26.625 251.25 C-34.07432961 245.015235 -39.06917004 236.72392751 -41.8125 227.4375 C-41.8125 226.4475 -41.8125 225.4575 -41.8125 224.4375 C-41.04695801 224.4281543 -40.28141602 224.41880859 -39.49267578 224.40917969 C-35.97366678 224.35500023 -32.45591984 224.2714457 -28.9375 224.1875 C-27.13152344 224.16623047 -27.13152344 224.16623047 -25.2890625 224.14453125 C-15.31489775 223.87349416 -6.77661151 222.09969534 0.71875 215.15234375 C7.33152236 207.43158028 7.94493518 198.12517511 7.40527344 188.40234375 C6.5804731 180.96064746 2.05197681 175.69802622 -3.359375 170.91015625 C-11.54736763 165.99475303 -20.02424396 165.91740484 -29.375 165.75 C-30.66986328 165.71583984 -31.96472656 165.68167969 -33.29882812 165.64648438 C-36.46975946 165.5645784 -39.64111406 165.49934949 -42.8125 165.4375 C-42.8125 160.8175 -42.8125 156.1975 -42.8125 151.4375 C-40.91886719 151.41171875 -39.02523437 151.3859375 -37.07421875 151.359375 C-34.54945718 151.30306062 -32.02471848 151.24571406 -29.5 151.1875 C-27.63504883 151.16623047 -27.63504883 151.16623047 -25.73242188 151.14453125 C-16.29719722 150.89688756 -7.15323487 149.85449724 0.125 143.3125 C7.75267552 134.34410991 7.78704432 124.27225918 7.71875 113.02734375 C7.72145086 111.44893658 7.72533819 109.87053105 7.73034668 108.29212952 C7.7362122 104.99984747 7.72777386 101.70800235 7.70898438 98.41577148 C7.68617719 94.21731573 7.69934708 90.01988209 7.72327423 85.82146358 C7.73779658 82.56727025 7.7330973 79.31331536 7.72276306 76.05911446 C7.72011448 74.51191648 7.723299 72.96469613 7.73268127 71.41752434 C7.78130645 61.14985565 6.784588 53.78174504 1 45.1875 C-7.32873075 37.04385215 -15.80544536 36.66669562 -26.875 36.625 C-28.32751085 36.6018156 -29.77998849 36.57644217 -31.23242188 36.54882812 C-34.75908926 36.48648266 -38.28528359 36.45374858 -41.8125 36.4375 C-40.7908948 25.55972645 -36.14122218 17.86297722 -28.171875 10.375 C-24.6405579 7.47511046 -20.98965879 5.27464528 -16.8125 3.4375 C-16.23556396 3.17928467 -15.65862793 2.92106934 -15.06420898 2.6550293 C-9.96762659 0.53475542 -5.49650962 -0.07457308 0 0 Z " transform="translate(57.8125,183.5625)" style="fill: #E4636D;"/><path d="M0 0 C1.21413071 -0.00860046 2.42826141 -0.01720093 3.67918396 -0.02606201 C5.03195148 -0.03049738 6.38471945 -0.03479572 7.73748779 -0.03897095 C9.156603 -0.04687122 10.5757162 -0.05514013 11.99482727 -0.06375122 C16.66260863 -0.08998197 21.330399 -0.10528079 25.99822998 -0.11953735 C27.60469316 -0.12489677 29.21115627 -0.13027428 30.81761932 -0.13566971 C37.50022224 -0.15730078 44.18282274 -0.17603733 50.86545181 -0.1872921 C60.44402985 -0.20352983 70.02220212 -0.23670036 79.60062718 -0.29369295 C86.33446359 -0.33239418 93.06819148 -0.35192504 99.80213618 -0.35721266 C103.82442392 -0.36086618 107.84627899 -0.37288653 111.86844635 -0.4053154 C115.65410978 -0.4353994 119.43907887 -0.4417072 123.22483635 -0.42993164 C124.61236853 -0.42971092 125.99993295 -0.43801495 127.3873539 -0.45558548 C139.1667377 -0.59661059 139.1667377 -0.59661059 143.12463379 2.47161865 C145.29510498 5.15390015 145.29510498 5.15390015 145.98260498 8.65390015 C145.10765605 13.1081856 143.85393035 14.37678716 140.29510498 17.15390015 C137.36934237 17.61359289 135.02023528 17.78465621 132.10760498 17.7203064 C130.93741821 17.72875832 130.93741821 17.72875832 129.74359131 17.73738098 C127.26014571 17.75379217 124.77848782 17.73832369 122.29510498 17.71640015 C119.81189002 17.69977793 117.32985229 17.69074584 114.84661865 17.70613098 C113.30511081 17.71537438 111.76335309 17.70636744 110.22210693 17.67649841 C106.57665729 17.69503115 104.43488827 18.07043984 101.27947998 19.95443726 C98.88182033 22.10889953 98.88182033 22.10889953 99.35760498 25.77890015 C100.00846586 29.19529919 100.00846586 29.19529919 102.29510498 31.15390015 C104.22768353 31.52221096 104.22768353 31.52221096 106.42791748 31.56796265 C107.23358154 31.60663452 108.03924561 31.6453064 108.86932373 31.68515015 C110.13196045 31.7315564 110.13196045 31.7315564 111.42010498 31.77890015 C112.26959717 31.81757202 113.11908936 31.8562439 113.99432373 31.89608765 C116.09422182 31.99046509 118.19463389 32.073276 120.29510498 32.15390015 C121.21708942 49.97893258 116.81027013 63.61165696 108.29510498 79.15390015 C103.69215914 79.25268979 99.49785401 78.97200582 94.98260498 78.0874939 C93.1502832 77.73521729 93.1502832 77.73521729 91.28094482 77.37582397 C90.63325134 77.24833771 89.98555786 77.12085144 89.3182373 76.98950195 C85.78442094 76.29413534 82.24656669 75.61982269 78.70916748 74.94296265 C77.95858063 74.7987941 77.20799377 74.65462555 76.43466187 74.50608826 C70.63244767 73.39616863 64.82190856 72.33817356 59.00604248 71.30233765 C58.14464661 71.14888382 57.28325073 70.99542999 56.39575195 70.83732605 C52.99573098 70.23269302 49.59546669 69.62949059 46.19451904 69.03009033 C36.17944982 67.26415731 26.22212994 65.3713837 16.29510498 63.15390015 C12.16367825 49.5022292 12.16367825 49.5022292 12.19744873 45.04452515 C12.20067139 44.29042358 12.20389404 43.53632202 12.20721436 42.7593689 C12.21559326 41.98206421 12.22397217 41.20475952 12.23260498 40.40390015 C12.2371167 39.61112671 12.24162842 38.81835327 12.24627686 38.0015564 C12.25801933 36.05230506 12.27595352 34.10309277 12.29510498 32.15390015 C13.07771194 32.14803391 13.86031891 32.14216766 14.66664124 32.13612366 C22.03871121 32.07824174 29.41044145 32.00619163 36.78220844 31.91818523 C40.57221161 31.87343991 44.36210626 31.83419334 48.15228271 31.8074646 C51.80941551 31.78147257 55.4661316 31.74110027 59.12300682 31.69071388 C60.51880908 31.67401719 61.91468347 31.66252036 63.31057167 31.65628624 C65.2642721 31.64667652 67.21784225 31.61693543 69.17132568 31.58627319 C70.84011528 31.56961861 70.84011528 31.56961861 72.5426178 31.55262756 C75.29749364 31.37101735 75.29749364 31.37101735 77.15049744 29.81047058 C78.97040587 27.176549 78.73906848 25.26164466 78.29510498 22.15390015 C76.81347831 19.83932749 76.81347831 19.83932749 74.29510498 18.15390015 C71.55540744 17.77641393 69.21997193 17.63940733 66.48480225 17.68734741 C65.70221039 17.6850412 64.91961853 17.68273499 64.11331177 17.68035889 C62.41691274 17.67773184 60.72048085 17.68416308 59.02414131 17.69861031 C56.33789627 17.72049882 53.65277722 17.71677981 50.96647644 17.70613098 C44.29548964 17.68446133 37.62475288 17.70183072 30.95379639 17.72763062 C25.31577947 17.74903178 19.6784844 17.75097976 14.04047966 17.72471428 C11.39609427 17.7203633 8.75296251 17.74500221 6.10871887 17.77024841 C4.48407432 17.76497691 2.8594336 17.75825395 1.23480225 17.74984741 C0.50165298 17.76475723 -0.23149628 17.77966705 -0.98686218 17.79502869 C-4.89156231 17.74064953 -6.56864835 17.26201803 -9.66596985 14.80415344 C-11.70489502 12.15390015 -11.70489502 12.15390015 -12.26739502 9.15390015 C-11.58131845 5.49482511 -10.27755188 3.80222339 -7.70489502 1.15390015 C-5.03564654 -0.18072409 -2.9902703 0.0157248 0 0 Z " transform="translate(103.70489501953125,73.84609985351563)" style="fill: #FEC268;"/><path d="M0 0 C1.61770798 -0.04346054 1.61770798 -0.04346054 3.26809692 -0.08779907 C8.22462292 -0.18504745 13.18099836 -0.25937783 18.13818359 -0.31347656 C20.75145473 -0.35011423 23.36453914 -0.40466064 25.97705078 -0.47753906 C29.74172956 -0.58102719 33.50316034 -0.62542267 37.26904297 -0.65771484 C39.01473068 -0.72268661 39.01473068 -0.72268661 40.79568481 -0.78897095 C48.78053329 -0.7704317 48.78053329 -0.7704317 52.20648193 2.24078369 C53.96580726 4.50550589 55.45843234 6.81012385 56.94873047 9.25634766 C63.17234948 15.31618722 69.86124037 17.51541607 78.44873047 17.75634766 C84.83893957 17.5772427 89.50154668 16.55453699 94.94873047 13.25634766 C96.00060547 12.69947266 97.05248047 12.14259766 98.13623047 11.56884766 C101.05154231 9.17181348 101.6636275 7.7994712 103.26123047 4.50634766 C104.69482422 2.11962891 104.69482422 2.11962891 106.94873047 0.25634766 C112.5059967 -0.92272252 118.34079939 -0.24949023 123.94873047 0.25634766 C125.66467454 4.18605733 127.37346093 8.11877719 129.07568359 12.05444336 C129.65575573 13.39285925 130.23777497 14.73043302 130.82177734 16.06713867 C131.66090055 17.98870228 132.49297367 19.9131861 133.32373047 21.83837891 C133.82646484 22.99571533 134.32919922 24.15305176 134.84716797 25.34545898 C135.94873047 28.25634766 135.94873047 28.25634766 135.94873047 31.25634766 C135.15176758 31.26569336 134.35480469 31.27503906 133.53369141 31.28466797 C129.92140872 31.33836264 126.31042226 31.42201374 122.69873047 31.50634766 C121.44447266 31.52052734 120.19021484 31.53470703 118.89794922 31.54931641 C117.69267578 31.58154297 116.48740234 31.61376953 115.24560547 31.64697266 C114.13540039 31.66791992 113.02519531 31.68886719 111.88134766 31.71044922 C108.31407886 32.37448627 107.07310659 33.34814552 104.94873047 36.25634766 C105.09154555 41.31327665 105.09154555 41.31327665 107.94873047 45.25634766 C111.07069383 45.72121483 111.07069383 45.72121483 114.57373047 45.88134766 C117.72935547 46.06697266 117.72935547 46.06697266 120.94873047 46.25634766 C120.94873047 52.85634766 120.94873047 59.45634766 120.94873047 66.25634766 C80.02873047 66.25634766 39.10873047 66.25634766 -3.05126953 66.25634766 C-3.05126953 59.65634766 -3.05126953 53.05634766 -3.05126953 46.25634766 C-0.52237061 46.24176514 2.00652832 46.22718262 4.61206055 46.2121582 C12.95816895 46.16186992 21.30408964 46.09528526 29.65001392 46.02063274 C34.71123991 45.97586382 39.77238417 45.93662219 44.83374023 45.90991211 C49.71626582 45.88394407 54.59847805 45.84358811 59.48081017 45.79316139 C61.34552812 45.77644858 63.21030033 45.76496187 65.07508278 45.75873375 C67.6827967 45.74914047 70.28970089 45.72113946 72.8972168 45.6887207 C73.67189301 45.69015579 74.44656921 45.69159088 75.24472046 45.69306946 C79.31078542 45.6300042 79.31078542 45.6300042 82.92460632 43.94807434 C84.69607031 41.02183448 84.36195966 38.56218122 83.94873047 35.25634766 C82.18665482 33.18149778 80.71487766 32.36694651 78.01583099 31.97731972 C75.50571066 31.84487545 73.01218727 31.81997533 70.49853516 31.82397461 C69.54210114 31.81378296 68.58566711 31.80359131 67.60025024 31.79309082 C64.44030948 31.76290736 61.28067159 31.75368658 58.12060547 31.74462891 C55.92912789 31.72778622 53.73766 31.70963654 51.54620361 31.69023132 C45.7791649 31.64268086 40.01216544 31.61290402 34.24499512 31.58679199 C28.35970301 31.55701202 22.47454626 31.51047287 16.58935547 31.46533203 C5.0425512 31.37924142 -6.50428089 31.31192165 -18.05126953 31.25634766 C-17.57622607 29.81714038 -17.09996823 28.37833391 -16.62319946 26.93969727 C-16.35811396 26.13841904 -16.09302845 25.33714081 -15.81991005 24.51158142 C-14.92847613 21.89606502 -13.91531679 19.35749807 -12.82470703 16.81884766 C-12.43283203 15.90490234 -12.04095703 14.99095703 -11.63720703 14.04931641 C-11.03779297 12.66679687 -11.03779297 12.66679687 -10.42626953 11.25634766 C-10.01892578 10.30373047 -9.61158203 9.35111328 -9.19189453 8.36962891 C-5.64975928 0.14765271 -5.64975928 0.14765271 0 0 Z " transform="translate(104.05126953125,430.74365234375)" style="fill: #3E6C8C;"/><path d="M0 0 C8.8350645 5.77309269 10.2433329 18.13145144 12.6328125 27.6796875 C12.95439331 28.94947449 13.27597412 30.21926147 13.6072998 31.52752686 C14.45845643 34.88869759 15.30412516 38.25122511 16.14862061 41.61407471 C17.0006417 45.00268719 17.85800136 48.38994783 18.71484375 51.77734375 C19.97737025 56.77176714 21.23747347 61.76679403 22.49414062 66.76269531 C22.91771851 68.42540466 22.91771851 68.42540466 23.34985352 70.1217041 C23.89852798 72.34033964 24.41669749 74.56671485 24.90600586 76.79919434 C25.14520752 77.86416138 25.38440918 78.92912842 25.63085938 80.02636719 C25.83159058 80.9692157 26.03232178 81.91206421 26.23913574 82.88348389 C27.17019042 85.98204927 27.17019042 85.98204927 31.1640625 89.4140625 C36.7740625 89.7440625 42.3840625 90.0740625 48.1640625 90.4140625 C48.1640625 103.9440625 48.1640625 117.4740625 48.1640625 131.4140625 C42.04255598 131.55225705 35.92651459 131.67155168 29.8046875 131.74365234 C27.72507332 131.77372139 25.64558488 131.81458866 23.56640625 131.86669922 C20.567392 131.939951 17.57006188 131.97361778 14.5703125 132 C13.64915649 132.03096771 12.72800049 132.06193542 11.77893066 132.09384155 C4.8952919 132.09738527 1.08484516 130.18143818 -3.8359375 125.4140625 C-7.39340733 121.73788822 -8.65238709 118.54239739 -9.90625 113.609375 C-10.07341522 112.9671701 -10.24058044 112.32496521 -10.41281128 111.66329956 C-10.94074644 109.62472427 -11.45122481 107.58226154 -11.9609375 105.5390625 C-12.31001759 104.17547854 -12.66026804 102.81219363 -13.01171875 101.44921875 C-13.66122225 98.9289587 -14.3024833 96.40718298 -14.93798828 93.88330078 C-15.23431152 92.73845215 -15.53063477 91.59360352 -15.8359375 90.4140625 C-16.16190918 89.1544873 -16.48788086 87.89491211 -16.82373047 86.59716797 C-17.58514968 83.35846715 -17.58514968 83.35846715 -19.8359375 81.4140625 C-21.82415063 81.01641987 -23.82538089 80.67630901 -25.8359375 80.4140625 C-26.19945312 78.60808594 -26.19945312 78.60808594 -26.5703125 76.765625 C-26.90796499 75.18991337 -27.24655556 73.61440254 -27.5859375 72.0390625 C-27.74320313 71.245 -27.90046875 70.4509375 -28.0625 69.6328125 C-28.91262385 65.0792903 -28.91262385 65.0792903 -31.9765625 61.875 C-32.59015625 61.72289062 -33.20375 61.57078125 -33.8359375 61.4140625 C-32.7015625 61.1046875 -31.5671875 60.7953125 -30.3984375 60.4765625 C-27.04818651 59.78481719 -27.04818651 59.78481719 -25.8359375 58.4140625 C-24.98466129 50.59431992 -26.76460941 43.41613904 -28.7734375 35.9140625 C-29.05123047 34.83125 -29.32902344 33.7484375 -29.61523438 32.6328125 C-30.86994758 27.39520012 -30.86994758 27.39520012 -32.8359375 22.4140625 C-33.60930509 15.59321392 -32.94870288 10.01800597 -28.8359375 4.4140625 C-20.27639778 -4.71340876 -10.92787068 -6.05600264 0 0 Z " transform="translate(176.8359375,225.5859375)" style="fill: #3E6C8D;"/><path d="M0 0 C2.95064148 -0.2208564 5.68368231 -0.28060989 8.625 -0.1875 C9.42679687 -0.17396484 10.22859375 -0.16042969 11.0546875 -0.14648438 C13.03674378 -0.11109051 15.01845551 -0.05728234 17 0 C21.74969185 16.99611673 16.95331506 35.82412319 9 51 C2.15540576 50.31875731 -4.55818379 49.26837397 -11.32421875 48.0390625 C-12.38808304 47.84782806 -13.45194733 47.65659363 -14.54804993 47.45956421 C-16.78970109 47.05587631 -19.03108637 46.65070953 -21.2722168 46.24414062 C-24.65928576 45.63011483 -28.04733211 45.02173011 -31.43554688 44.4140625 C-42.3313146 42.45127838 -53.20199687 40.45348492 -64 38 C-68.13142674 24.34832905 -68.13142674 24.34832905 -68.09765625 19.890625 C-68.09443359 19.13652344 -68.09121094 18.38242188 -68.08789062 17.60546875 C-68.07951172 16.82816406 -68.07113281 16.05085938 -68.0625 15.25 C-68.05798828 14.45722656 -68.05347656 13.66445312 -68.04882812 12.84765625 C-68.03708565 10.89840492 -68.01915146 8.94919262 -68 7 C-67.21739304 6.99413376 -66.43478607 6.98826752 -65.62846375 6.98222351 C-58.25639377 6.92434159 -50.88466353 6.85229148 -43.51289654 6.76428509 C-39.72289337 6.71953976 -35.93299872 6.6802932 -32.14282227 6.65356445 C-28.48568947 6.62757242 -24.82897338 6.58720013 -21.17209816 6.53681374 C-19.7762959 6.52011705 -18.38042151 6.50862021 -16.98453331 6.50238609 C-15.03083288 6.49277637 -13.07726273 6.46303529 -11.1237793 6.43237305 C-9.4549897 6.41571846 -9.4549897 6.41571846 -7.75248718 6.39872742 C-4.65144169 5.94950757 -3.84265581 5.46299299 -2 3 C-1.34 2.01 -0.68 1.02 0 0 Z " transform="translate(184,99)" style="fill: #EDCDA2;"/><path d="M0 0 C29 0 29 0 34 4 C36.38544988 7.38635682 36.2642583 10.53152392 36.29052734 14.60107422 C36.29724457 15.25526337 36.30396179 15.90945251 36.31088257 16.58346558 C36.32984043 18.74061737 36.33378561 20.89745765 36.3359375 23.0546875 C36.34236712 24.55917487 36.3490956 26.06366099 36.35610962 27.56814575 C36.36807692 30.72042743 36.37179103 33.87259956 36.37060547 37.02490234 C36.37040234 41.05561353 36.39769992 45.08561918 36.43214989 49.11616325 C36.4544358 52.22351276 36.4584425 55.33069294 36.45738602 58.43811417 C36.45973961 59.92362015 36.4685496 61.40913098 36.48405075 62.89455795 C36.50374615 64.97691367 36.49786089 67.05775428 36.48583984 69.14013672 C36.48868988 70.32276093 36.49153992 71.50538513 36.49447632 72.72384644 C35.88353408 76.7716451 34.59898871 78.85821291 32 82 C27 85 27 85 0 85 C0 56.95 0 28.9 0 0 Z " transform="translate(15,235)" style="fill: #FCC168;"/><path d="M0 0 C1.23532471 0.00132935 1.23532471 0.00132935 2.49560547 0.00268555 C9.59014807 0.13872067 16.41172675 1.08663024 22.8125 4.375 C24.13731084 8.34943251 23.16112916 10.37054042 22 14.375 C19.1951302 24.38260231 17.76135814 33.93756042 16.8125 44.375 C-7.6075 44.375 -32.0275 44.375 -57.1875 44.375 C-55.32752898 31.35520286 -47.24654553 20.99920817 -37.07421875 12.89453125 C-25.87763328 4.64354223 -13.97996914 -0.02717612 0 0 Z " transform="translate(170.1875,14.625)" style="fill: #FCDE7B;"/><path d="M0 0 C2.91889148 -0.16216064 5.82879225 -0.28091202 8.75 -0.375 C9.575 -0.42527344 10.4 -0.47554688 11.25 -0.52734375 C13.63831995 -0.58512568 15.67808978 -0.57336037 18 0 C20.15625 2.96875 20.15625 2.96875 22 6 C26.39103228 7.09245489 30.43681631 6.90873633 35 7 C35 13.6 35 20.2 35 27 C-5.92 27 -46.84 27 -89 27 C-89 20.4 -89 13.8 -89 7 C-86.47633789 6.9906543 -83.95267578 6.98130859 -81.35253906 6.97167969 C-73.01838678 6.93792657 -64.68448257 6.88238706 -56.35052872 6.81609726 C-51.29714907 6.77657229 -46.24394499 6.74440848 -41.19042969 6.72900391 C-36.31431996 6.71387034 -31.43869274 6.67948371 -26.56279755 6.63169098 C-24.70170025 6.61684305 -22.84053408 6.60895704 -20.97937775 6.60811615 C-18.37407365 6.60575496 -15.77011223 6.57874504 -13.16503906 6.54589844 C-12.39395813 6.5509288 -11.6228772 6.55595917 -10.82843018 6.56114197 C-7.30267978 6.49227498 -5.37241484 6.29045664 -2.55218506 4.09088135 C-0.97195343 2.0889522 -0.97195343 2.0889522 0 0 Z " transform="translate(190,470)" style="fill: #5A8DB5;"/><path d="M0 0 C9.69721569 1.33728937 19.35251106 2.84112871 29 4.5 C29.71135101 4.62161499 30.42270203 4.74322998 31.15560913 4.86853027 C48.91886348 7.91198895 66.63097131 11.23929621 84.34179688 14.57226562 C95.20195845 16.60895407 106.03197836 18.62605224 117 20 C116.27732994 24.50699156 115.31487941 28.84098948 114.125 33.25 C113.94936523 33.90170166 113.77373047 34.55340332 113.59277344 35.22485352 C112.15732401 40.51270013 110.62513467 45.76755882 109 51 C108.071875 50.175 107.14375 49.35 106.1875 48.5 C93.62600537 37.80507284 81.07834241 30.91420321 65 27 C64.21109375 26.80664062 63.4221875 26.61328125 62.609375 26.4140625 C44.70562593 23.57304843 28.89263979 27.89063691 13.23046875 36.29296875 C10 38 10 38 7 39 C5.99670689 34.25074891 4.99999659 29.50018103 4.00927734 24.74829102 C3.67155217 23.13300623 3.33205265 21.51809134 2.99072266 19.90356445 C2.49952181 17.57859486 2.01478363 15.25235592 1.53125 12.92578125 C1.30157532 11.84892815 1.30157532 11.84892815 1.06726074 10.75032043 C0.31769569 7.11159577 -0.17747418 3.71745019 0 0 Z " transform="translate(112,151)" style="fill: #3E6B8C;"/><path d="M0 0 C11.38903924 -0.88938267 21.22395544 2.71604346 30 10 C40.52208079 20.42994348 40.52208079 20.42994348 41.390625 26.91796875 C40.91495814 30.67098031 39.62124085 33.02996615 37.75 36.3125 C30.49744435 49.84188757 29.40918375 64.05066857 29.54931641 79.1394043 C29.55040833 80.88272075 29.54964474 82.62603917 29.54719543 84.36935425 C29.54542377 88.08621131 29.55559744 91.8027629 29.57527542 95.51956749 C29.60547591 101.4099163 29.60253889 107.29997967 29.59457397 113.19038391 C29.57956242 127.81096954 29.60120025 142.43146963 29.64239502 157.05200195 C29.67441725 168.44051925 29.69352977 179.82870029 29.67088258 191.2172578 C29.6606898 197.06022695 29.67774767 202.90225367 29.71602273 208.74509656 C29.73367416 212.39072363 29.72611534 216.03599285 29.71187401 219.68162155 C29.71030621 221.35767592 29.71881972 223.03377859 29.73877525 224.70971489 C29.85947144 235.42839068 28.95259851 244.74671996 23 254 C20.08379699 256.11093525 17.48567554 257.18335602 14 258 C13.01 258.33 12.02 258.66 11 259 C9.10529184 259.0685495 7.2083166 259.08480372 5.3125 259.0625 C4.31863281 259.05347656 3.32476562 259.04445313 2.30078125 259.03515625 C1.16189453 259.01775391 1.16189453 259.01775391 0 259 C2.17252081 256.7439207 4.27965194 254.79492191 6.8125 252.9375 C15.41802343 245.81343377 20.22631435 233.79806568 22 223 C22.09361433 220.45654813 22.13931447 217.94099313 22.13371277 215.39801025 C22.13597833 214.64054748 22.13824388 213.88308471 22.14057809 213.10266852 C22.14689971 210.56875563 22.1460899 208.03489647 22.14526367 205.50097656 C22.14825635 203.682352 22.15165913 201.86372807 22.15544128 200.04510498 C22.1642754 195.10693433 22.16661918 190.16878101 22.16725707 185.23060322 C22.16796802 182.14380272 22.17010321 179.05700662 22.17275429 175.97020721 C22.18200643 165.19660665 22.18608942 154.42301846 22.18530273 143.64941406 C22.18470228 133.61508864 22.19524813 123.58081703 22.2110464 113.54650521 C22.2241346 104.92552572 22.22948608 96.30456379 22.22884732 87.68357444 C22.22859267 82.53742567 22.23142565 77.39132471 22.24202538 72.24518585 C22.25172764 67.40248415 22.25177093 62.55987576 22.24450874 57.71717072 C22.24346548 55.9439073 22.24581039 54.17063801 22.2518692 52.39738464 C22.30799217 34.82776817 19.94632387 20.4315104 7.4375 7.3125 C6.633125 6.549375 5.82875 5.78625 5 5 C3.33333333 3.33333333 1.66666667 1.66666667 0 0 Z " transform="translate(57,184)" style="fill: #DA4654;"/><path d="M0 0 C18.77557788 -0.69254181 35.4168739 3.52210714 50 16 C62.56233964 27.91914785 69.74426719 42.25183059 70.31762695 59.55688477 C70.44150738 67.1850959 70.3498782 74.80953782 70.25 82.4375 C70.22760044 85.11522092 70.21165731 87.79293277 70.1953125 90.47070312 C70.15158421 96.98079093 70.08493328 103.49032614 70 110 C67.03 110 64.06 110 61 110 C57.13402149 96.95232254 53.99611775 83.75474906 50.94335938 70.49853516 C50.61759493 69.08877298 50.29142666 67.67910405 49.96484375 66.26953125 C49.80527191 65.58036621 49.64570007 64.89120117 49.48129272 64.18115234 C48.08081935 58.20298338 46.48738634 52.28660255 44.83422852 46.3737793 C43.98175115 42.92619819 43.48503427 39.5153689 43 36 C38.04384847 22.60610289 25.86398026 8.40382083 13 2 C9.65501601 1.42845561 9.65501601 1.42845561 6.1875 1.3125 C5.02605469 1.24675781 3.86460937 1.18101562 2.66796875 1.11328125 C1.78753906 1.07589844 0.90710938 1.03851563 0 1 C0 0.67 0 0.34 0 0 Z " transform="translate(155,191)" style="fill: #497EA7;"/><path d="M0 0 C6.91200277 3.8304907 9.26244949 8.47857937 11.6875 15.8125 C12.94308864 20.23596228 14.06977168 24.68936903 15.19140625 29.1484375 C15.51535873 30.42296783 15.83931122 31.69749817 16.17308044 33.01065063 C16.85576841 35.69779869 17.53539901 38.38569448 18.21264648 41.07421875 C19.0740448 44.4933059 19.94164851 47.9107792 20.81140232 51.32774925 C21.64917451 54.62144531 22.48269713 57.91621055 23.31640625 61.2109375 C23.62477921 62.42478119 23.93315216 63.63862488 24.25086975 64.88925171 C25.91411129 71.50064187 27.43675226 78.11021522 28.6875 84.8125 C25.41543145 84.75603249 22.14594678 84.66562786 18.875 84.5625 C17.94623047 84.54832031 17.01746094 84.53414063 16.06054688 84.51953125 C15.16787109 84.48730469 14.27519531 84.45507812 13.35546875 84.421875 C12.53328857 84.40092773 11.7111084 84.37998047 10.86401367 84.35839844 C7.8473793 83.60178661 7.31801987 82.44261242 5.6875 79.8125 C4.67030334 76.68315125 4.67030334 76.68315125 3.75805664 72.9519043 C3.58847946 72.27006073 3.41890228 71.58821716 3.2441864 70.88571167 C2.87832419 69.40970518 2.51676225 67.93262749 2.15904427 66.45462608 C1.59126109 64.11031388 1.011528 61.7692477 0.42857361 59.42866516 C-1.01731139 53.61338196 -2.44383362 47.79339051 -3.86859131 41.97290039 C-5.0729638 37.05477777 -6.28586227 32.1389188 -7.51053047 27.2258091 C-8.0794847 24.92854543 -8.63585455 22.62847013 -9.19187927 20.32804871 C-9.5451659 18.90563288 -9.89906218 17.48336829 -10.25366211 16.0612793 C-10.55549911 14.82758102 -10.85733612 13.59388275 -11.1683197 12.32279968 C-12.85498904 7.14816518 -14.65842852 2.91521432 -19.3125 -0.1875 C-12.73884392 -3.58035475 -6.55841269 -3.07606967 0 0 Z " transform="translate(174.3125,224.1875)" style="fill: #355C7B;"/><path d="M0 0 C1.47919922 -0.05607422 1.47919922 -0.05607422 2.98828125 -0.11328125 C6.46637469 0.43536156 7.59125198 1.52887762 9.6875 4.3125 C10.25390625 6.3125 10.25390625 6.3125 10.25 8.3125 C10.27191406 8.9725 10.29382813 9.6325 10.31640625 10.3125 C9.25348615 13.69271796 7.76239001 14.54631318 4.6875 16.3125 C0.77994819 17.13036869 -3.15026045 17.42403543 -7.125 17.75 C-30.93471514 20.13828428 -54.63883931 25.16001421 -76.36035156 35.52709961 C-79.50246013 36.79125209 -81.99930555 36.83221678 -85.3125 36.3125 C-87.75 34.8125 -87.75 34.8125 -89.3125 32.3125 C-89.92171535 29.50781045 -90.17807371 27.06513191 -89.3125 24.3125 C-85.39484945 20.34866889 -80.65794759 18.50314909 -75.5625 16.5 C-74.69270508 16.15743164 -73.82291016 15.81486328 -72.92675781 15.46191406 C-49.94222637 6.6715663 -24.70149156 0.62162694 0 0 Z " transform="translate(502.3125,215.6875)" style="fill: #000000;"/><path d="M0 0 C6.373125 -0.185625 6.373125 -0.185625 12.875 -0.375 C14.85282471 -0.45693604 14.85282471 -0.45693604 16.87060547 -0.54052734 C25.05003472 -0.65493356 30.63346449 0.71764121 37 6 C41.45743795 10.93936346 42.31018756 15.92851348 42.20703125 22.37109375 C41.74812261 28.19836761 40.09560523 32.33798016 35.75 36.3125 C28.37194258 42.44331438 21.2657463 42.38997261 12.0625 42.1875 C8.081875 42.125625 4.10125 42.06375 0 42 C0 28.14 0 14.28 0 0 Z " transform="translate(278,316)" style="fill: #335A77;"/><path d="M0 0 C17.16 0 34.32 0 52 0 C52 7.92 52 15.84 52 24 C34.84 24 17.68 24 0 24 C0 16.08 0 8.16 0 0 Z " transform="translate(240,277)" style="fill: #E6646E;"/><path d="M0 0 C3.63 0 7.26 0 11 0 C13.42582437 5.00578368 14.37952111 8.65410493 14.40405273 14.30883789 C14.41091599 15.0024794 14.41777924 15.69612091 14.42485046 16.41078186 C14.44300863 18.68162052 14.43929815 20.95176127 14.43359375 23.22265625 C14.43815983 24.81253786 14.44346667 26.40241751 14.44947815 27.99229431 C14.45838685 31.31501312 14.45601065 34.63749126 14.44604492 37.96020508 C14.43453929 42.20944738 14.45480181 46.45786061 14.48396206 50.70699406 C14.50233938 53.98678319 14.50202892 57.26637399 14.49632454 60.54620171 C14.49617161 62.11263635 14.50219241 63.67908467 14.51461601 65.24547005 C14.52955981 67.43769033 14.51882774 69.62838291 14.50170898 71.82055664 C14.50154282 73.0651918 14.50137665 74.30982697 14.50120544 75.59217834 C13.86896929 79.89091069 13.11873371 81.93220027 10 85 C6.7 85 3.4 85 0 85 C0 56.95 0 28.9 0 0 Z " transform="translate(15,235)" style="fill: #FEE07C;"/><path d="M0 0 C7.92 0 15.84 0 24 0 C24 13.86 24 27.72 24 42 C16.08 42 8.16 42 0 42 C0 28.14 0 14.28 0 0 Z " transform="translate(240,316)" style="fill: #F5D878;"/><path d="M0 0 C0.639375 0.804375 1.27875 1.60875 1.9375 2.4375 C3.89731976 5.30367844 3.89731976 5.30367844 6.76586914 6.20532227 C7.51473389 6.24197998 8.26359863 6.2786377 9.03515625 6.31640625 C10.24848633 6.37924805 10.24848633 6.37924805 11.48632812 6.44335938 C12.33646484 6.48267578 13.18660156 6.52199219 14.0625 6.5625 C14.91650391 6.60568359 15.77050781 6.64886719 16.65039062 6.69335938 C18.76672037 6.79976702 20.88333813 6.90041731 23 7 C23.92198444 24.82503243 19.51516515 38.45775681 11 54 C6.22577167 54.14449115 2.17072011 53.7426661 -2.4375 52.5 C-3.48808594 52.2215625 -4.53867188 51.943125 -5.62109375 51.65625 C-6.40613281 51.4396875 -7.19117188 51.223125 -8 51 C-7.68977905 50.08504761 -7.68977905 50.08504761 -7.37329102 49.15161133 C-6.43317435 46.37297389 -5.49779605 43.59276359 -4.5625 40.8125 C-4.23701172 39.85279297 -3.91152344 38.89308594 -3.57617188 37.90429688 C-3.26357422 36.97294922 -2.95097656 36.04160156 -2.62890625 35.08203125 C-2.34088135 34.22843018 -2.05285645 33.3748291 -1.75610352 32.49536133 C-0.37199233 27.92739218 0.12213518 23.81635957 0.09765625 19.04296875 C0.09282227 17.37524414 0.09282227 17.37524414 0.08789062 15.67382812 C0.07951172 14.52333984 0.07113281 13.37285156 0.0625 12.1875 C0.05798828 11.01767578 0.05347656 9.84785156 0.04882812 8.64257812 C0.0370693 5.76166642 0.02063426 2.88085956 0 0 Z " transform="translate(201,99)" style="fill: #ECB583;"/><path d="M0 0 C6.496875 -0.12375 6.496875 -0.12375 13.125 -0.25 C15.15744873 -0.30462402 15.15744873 -0.30462402 17.23095703 -0.36035156 C28.24917745 -0.46214409 28.24917745 -0.46214409 33 4 C36.60057274 7.96063001 36.50330882 12.21495659 36.3515625 17.33984375 C35.85249173 21.11614589 34.56974129 23.22190131 32 26 C28.09611898 28.84841085 25.40290089 29.36117869 20.60546875 29.29296875 C19.52160889 29.28547607 18.43774902 29.2779834 17.32104492 29.27026367 C15.9569751 29.24295166 14.59290527 29.21563965 13.1875 29.1875 C8.835625 29.125625 4.48375 29.06375 0 29 C0 19.43 0 9.86 0 0 Z " transform="translate(15,364)" style="fill: #92D1A0;"/><path d="M0 0 C4.72515236 2.08462604 6.40957334 7.33892096 8.1875 11.875 C11.90041376 22.66152812 13.125 32.49817009 13.125 43.9375 C3.885 43.9375 -5.355 43.9375 -14.875 43.9375 C-14.875 30.91610222 -14.875 30.91610222 -13.3125 24.125 C-13.14121582 23.36453369 -12.96993164 22.60406738 -12.79345703 21.82055664 C-10.96066925 14.31929645 -7.9844547 7.48631082 -3.875 0.9375 C-1.875 -0.0625 -1.875 -0.0625 0 0 Z " transform="translate(216.875,15.0625)" style="fill: #E1626C;"/><path d="M0 0 C5.08824191 2.31283723 8.31772051 5.19403477 10.85546875 10.26953125 C11.41260007 16.2265507 11.37727061 21.22161524 7.85546875 26.26953125 C3.65205793 30.49591153 0.01601456 32.40770272 -5.95703125 32.58203125 C-10.81521347 32.51838694 -13.45729295 31.605604 -17.14453125 28.26953125 C-20.79411346 23.43630076 -22.5862701 19.6086087 -22.484375 13.4609375 C-21.74903624 8.71927029 -19.12432179 4.98022405 -15.53515625 1.87890625 C-10.53900693 -1.37546624 -5.51979367 -1.8801483 0 0 Z " transform="translate(188.14453125,401.73046875)" style="fill: #E2626C;"/><path d="M0 0 C1.02633545 0.01772461 2.0526709 0.03544922 3.11010742 0.05371094 C14.58056525 0.37400923 26.97740292 1.68916546 37.125 7.5 C39.66087563 11.30381344 39.72092661 14.03986175 39.125 18.5 C37.63973694 20.92332394 36.63135988 21.34119538 33.9453125 22.18359375 C30.28063717 22.59472769 27.69552877 21.72959103 24.1875 20.625 C17.9745515 18.69148175 12.4078436 17.48422745 5.90234375 17.359375 C4.95166016 17.34003906 4.00097656 17.32070313 3.02148438 17.30078125 C1.04512884 17.2668636 -0.93155827 17.24869289 -2.90820312 17.24609375 C-10.12888657 17.05981678 -10.12888657 17.05981678 -14.01953125 14.140625 C-15.875 11.5 -15.875 11.5 -16.5 8.5 C-14.63134372 -0.46955014 -7.58055089 -0.23300245 0 0 Z " transform="translate(472.875,248.5)" style="fill: #000000;"/><path d="M0 0 C17.82 0 35.64 0 54 0 C53.01 3.3 52.02 6.6 51 10 C50.67 11.65 50.34 13.3 50 15 C33.5 15 17 15 0 15 C0 10.05 0 5.1 0 0 Z " transform="translate(101,401)" style="fill: #FBDE7B;"/><path d="M0 0 C11 0 11 0 14 2.5625 C18.52971556 10.34794862 21.05372367 17.5365343 19.5625 26.68359375 C18.87955669 29.23299008 18.03968686 31.57543379 17 34 C16.70480469 34.71929687 16.40960938 35.43859375 16.10546875 36.1796875 C15.0625 38.125 15.0625 38.125 12 41 C8.04 41 4.08 41 0 41 C0 27.47 0 13.94 0 0 Z " transform="translate(279,316)" style="fill: #3E6C8D;"/><path d="M0 0 C8.17666482 -0.19702807 16.11273297 0.17015938 24.25 0.9375 C25.19125732 1.02435059 26.13251465 1.11120117 27.10229492 1.20068359 C33.87214554 1.87214554 33.87214554 1.87214554 35 3 C35.07319621 5.69654854 35.09242537 8.36691458 35.0625 11.0625 C35.05798828 11.82111328 35.05347656 12.57972656 35.04882812 13.36132812 C35.0370068 15.24091871 35.01907078 17.12046899 35 19 C30.66749763 19.50737777 26.33388373 20.00457148 22 20.5 C20.77925781 20.64308594 19.55851562 20.78617187 18.30078125 20.93359375 C17.10839844 21.06894531 15.91601562 21.20429688 14.6875 21.34375 C13.59824219 21.46943359 12.50898438 21.59511719 11.38671875 21.72460938 C7.60252607 22.03232054 3.79668282 22 0 22 C0 14.74 0 7.48 0 0 Z " transform="translate(339,278)" style="fill: #D6E2F3;"/><path d="M0 0 C5.61 0 11.22 0 17 0 C17 14.52 17 29.04 17 44 C13.37 42.02 9.74 40.04 6 38 C4.02 37.34 2.04 36.68 0 36 C0 24.12 0 12.24 0 0 Z " transform="translate(307,266)" style="fill: #CAE1FD;"/><path d="M0 0 C2.2989833 -0.08016702 4.54911828 -0.02238779 6.84619141 0.10009766 C8.04211914 0.13393555 8.04211914 0.13393555 9.26220703 0.16845703 C11.22850474 0.22732822 13.19383631 0.31701011 15.15869141 0.41259766 C16.87463547 4.34230733 18.58342187 8.27502719 20.28564453 12.21069336 C20.86571667 13.54910925 21.44773591 14.88668302 22.03173828 16.22338867 C22.87086149 18.14495228 23.70293461 20.0694361 24.53369141 21.99462891 C25.28779297 23.73063354 25.28779297 23.73063354 26.05712891 25.50170898 C27.15869141 28.41259766 27.15869141 28.41259766 27.15869141 31.41259766 C20.55869141 31.41259766 13.95869141 31.41259766 7.15869141 31.41259766 C-2.84130859 11.98402623 -2.84130859 11.98402623 -2.84130859 6.41259766 C-3.50130859 6.08259766 -4.16130859 5.75259766 -4.84130859 5.41259766 C-3.01351873 0.67526474 -3.01351873 0.67526474 0 0 Z " transform="translate(212.84130859375,430.58740234375)" style="fill: #355C7B;"/><path d="M0 0 C0.33 0 0.66 0 1 0 C1 7.59 1 15.18 1 23 C10.57 23 20.14 23 30 23 C30 15.41 30 7.82 30 0 C37.26 0 44.52 0 52 0 C52 7.92 52 15.84 52 24 C34.84 24 17.68 24 0 24 C0 16.08 0 8.16 0 0 Z " transform="translate(240,277)" style="fill: #D74755;"/><path d="M0 0 C6.93 0.99 13.86 1.98 21 3 C20.23938708 7.56367754 19.32548664 11.80168516 18.125 16.25 C17.94936523 16.90170166 17.77373047 17.55340332 17.59277344 18.22485352 C16.15732401 23.51270013 14.62513467 28.76755882 13 34 C12.071875 33.175 11.14375 32.35 10.1875 31.5 C5.35776779 27.34603279 0.17680359 23.70684701 -5 20 C-3.35 13.4 -1.7 6.8 0 0 Z " transform="translate(208,168)" style="fill: #355C7A;"/><path d="M0 0 C18.80195667 -0.11682688 37.60383964 -0.20498498 56.40608406 -0.25906086 C65.13640606 -0.28483719 73.86650248 -0.31997665 82.59667969 -0.37719727 C90.20635151 -0.4270499 97.81585995 -0.45929517 105.42569053 -0.47044247 C109.45473639 -0.47695816 113.48331486 -0.49225937 117.51221085 -0.52865028 C121.30602916 -0.56263958 125.09918849 -0.57304733 128.89314461 -0.56553841 C130.28391033 -0.56691168 131.67469855 -0.57682758 133.06533241 -0.59602737 C144.87410808 -0.7510403 144.87410808 -0.7510403 148.83151245 2.31672668 C151 5 151 5 151.6875 8.5 C150.80589484 12.98817172 149.63506149 14.24800615 146 17 C142.86828951 17.59564835 139.86068115 17.47529146 136.6875 17.3125 C135.85154297 17.28994141 135.01558594 17.26738281 134.15429688 17.24414062 C132.10208851 17.1855061 130.05080798 17.09583215 128 17 C128.08378906 16.26394531 128.16757813 15.52789062 128.25390625 14.76953125 C128.35574219 13.79371094 128.45757812 12.81789063 128.5625 11.8125 C128.66691406 10.84957031 128.77132812 9.88664062 128.87890625 8.89453125 C129.13021562 5.62437349 129.13021562 5.62437349 128 1 C85.76 1 43.52 1 0 1 C0 0.67 0 0.34 0 0 Z " transform="translate(98,74)" style="fill: #DE9854;"/><path d="M0 0 C1.32 0 2.64 0 4 0 C4.474375 0.969375 4.94875 1.93875 5.4375 2.9375 C7.68990464 6.28074782 7.68990464 6.28074782 11.14453125 6.62109375 C14.42399261 6.85204173 17.71307404 6.93426148 21 7 C21 13.6 21 20.2 21 27 C14.07 27 7.14 27 0 27 C0 18.09 0 9.18 0 0 Z " transform="translate(204,470)" style="fill: #497EA8;"/><path d="M0 0 C1.051875 -0.00515625 2.10375 -0.0103125 3.1875 -0.015625 C4.280625 -0.00015625 5.37375 0.0153125 6.5 0.03125 C8.1396875 0.00804688 8.1396875 0.00804688 9.8125 -0.015625 C10.864375 -0.01046875 11.91625 -0.0053125 13 0 C14.43859375 0.00676758 14.43859375 0.00676758 15.90625 0.01367188 C19.23306424 0.67753165 20.42628731 1.89480926 22.5 4.53125 C23.0625 7.46875 23.0625 7.46875 22.5 10.53125 C20.41058474 13.53064315 18.76886944 15.27602583 15.10766602 16.01245117 C12.22251939 16.20551602 9.39081252 16.21300679 6.5 16.15625 C5.02273437 16.18525391 5.02273437 16.18525391 3.515625 16.21484375 C-1.27367285 16.18248363 -3.72820672 16.10603037 -7.65234375 13.18359375 C-9.5 10.53125 -9.5 10.53125 -10.0625 7.46875 C-8.95750557 1.69822355 -5.57235554 0.02621404 0 0 Z " transform="translate(155.5,29.46875)" style="fill: #070502;"/><path d="M0 0 C10 0 10 0 12.59765625 2.46484375 C14.28347967 6.71462146 14.55990218 10.04151634 14.4375 14.5625 C14.44458984 15.30435547 14.45167969 16.04621094 14.45898438 16.81054688 C14.42108867 20.08415284 14.03778141 22.86381118 13.16015625 26.02734375 C11 28 11 28 0 28 C0 18.76 0 9.52 0 0 Z " transform="translate(15,364)" style="fill: #B2E49E;"/><path d="M0 0 C13.53 0 27.06 0 41 0 C41 4.62 41 9.24 41 14 C34.07 14 27.14 14 20 14 C20 9.71 20 5.42 20 1 C13.4 1 6.8 1 0 1 C0 0.67 0 0.34 0 0 Z " transform="translate(184,372)" style="fill: #4678A0;"/><path d="M0 0 C4.95 0 9.9 0 15 0 C15 4.95 15 9.9 15 15 C11.37 15 7.74 15 4 15 C3.79503906 14.16855469 3.59007812 13.33710938 3.37890625 12.48046875 C3.10949219 11.39378906 2.84007812 10.30710937 2.5625 9.1875 C2.29566406 8.10855469 2.02882812 7.02960938 1.75390625 5.91796875 C1.23922588 3.9259157 0.65062825 1.95188476 0 0 Z " transform="translate(210,401)" style="fill: #FBC067;"/><path d="M0 0 C7.486774 0.2798794 13.36270688 1.47649871 20 5 C19.34 7.64 18.68 10.28 18 13 C14.50280581 11.40435348 11.5370924 9.32710016 8.4375 7.0625 C7.48746094 6.37285156 6.53742188 5.68320312 5.55859375 4.97265625 C3.52701009 3.40632075 1.7423528 1.87141597 0 0 Z " transform="translate(174,15)" style="fill: #F3BA64;"/><path d="M0 0 C0.2475 0.5775 0.495 1.155 0.75 1.75 C2.22561136 4.40610045 3.66090768 6.0509248 6 8 C8.60022123 8.54674799 8.60022123 8.54674799 11.421875 8.390625 C12.44667969 8.37773438 13.47148437 8.36484375 14.52734375 8.3515625 C15.59082031 8.31804688 16.65429688 8.28453125 17.75 8.25 C18.82894531 8.23195313 19.90789062 8.21390625 21.01953125 8.1953125 C23.68058788 8.14821415 26.33984254 8.082456 29 8 C29 8.66 29 9.32 29 10 C24.30384394 12.69922718 19.85925631 12.40500456 14.5625 12.4375 C13.62083984 12.47037109 12.67917969 12.50324219 11.70898438 12.53710938 C7.02026628 12.57350733 4.72023784 12.51977755 0.828125 9.7109375 C-1 7 -1 7 -0.8125 3.1875 C-0.544375 2.135625 -0.27625 1.08375 0 0 Z " transform="translate(145,36)" style="fill: #FCAE61;"/><path d="M0 0 C4.84382241 2.4219112 5.33120325 3.99360975 7 9 C6.67 9.99 6.34 10.98 6 12 C4.02 8.04 2.04 4.08 0 0 Z " transform="translate(193,220)" style="fill: #5688B0;"/></svg>