<?xml version="1.0" encoding="UTF-8" standalone="no"?>
<!-- Generator: visioncortex VTracer -->

<svg
   id="svg"
   version="1.1"
   style="display:block"
   viewBox="0 0 512 512"
   width="512"
   height="512"
   xmlns="http://www.w3.org/2000/svg"
   xmlns:svg="http://www.w3.org/2000/svg">
  <defs
     id="defs33" />
  <path
     d="m 127.0625,-0.3125 c 0.8366,-0.0373828 1.6732,-0.0747656 2.53516,-0.11328125 C 132,0 132,0 134.26172,1.4726562 136.77656,5.1290706 136.6707,8.4029319 136.75,12.75 c 0.0297,0.792773 0.0593,1.585547 0.0898,2.402344 0.0704,1.948677 0.11759,3.898171 0.16016,5.847656 0.88043,-0.277148 1.76086,-0.554297 2.66797,-0.839844 1.16144,-0.362226 2.32289,-0.724453 3.51953,-1.097656 1.72283,-0.539473 1.72283,-0.539473 3.48047,-1.089844 5.73157,-1.673107 10.9529,-2.208654 16.89453,-2.285156 0.75475,-0.029 1.50949,-0.05801 2.28711,-0.08789 3.59054,-0.04112 5.69156,0.05936 8.61523,2.232422 4.83211,6.82397 3.32089,18.237004 2.53516,26.167969 -1.6037,8.232056 -4.13475,16.539347 -8,24 0.67805,0.02578 1.35609,0.05156 2.05469,0.07813 6.80199,0.414526 12.95175,1.520444 18.94531,4.921875 2.53955,3.809328 2.67288,6.601464 2,11 -5.67728,18.721804 -19.96514,34.704494 -37,44.000004 -12.12899,5.86186 -25.38354,10.02361 -39,8 -2.41406,-1.83594 -2.41406,-1.83594 -4,-4 0,-0.99 0,-1.98 0,-3 -0.98742,-0.13277 -1.97484,-0.26555 -2.99219,-0.40234 -1.28133,-0.17661 -2.56265,-0.35321 -3.88281,-0.53516 -1.27617,-0.17402 -2.55234,-0.34805 -3.86719,-0.52734 C 98,127.00001 98,127.00001 96,126.00001 c 0.33,16.17 0.66,32.34 1,49 4.77514,-4.09298 9.45658,-8.20966 14.08203,-12.46094 0.96293,-0.83789 1.92586,-1.67578 2.91797,-2.53906 0.55945,-0.67482 1.11891,-1.34965 1.69531,-2.04492 5.00408,-5.22226 9.51638,-6.45401 16.51979,-6.81491 4.27969,-0.0851 8.54806,-0.061 12.82738,0.0366 3.34514,0.0735 6.68587,0.082 10.03174,0.0811 2.12894,0.0196 4.25786,0.043 6.38672,0.0703 0.99792,0.004 1.99585,0.009 3.02402,0.0135 6.8162,0.18736 6.8162,0.18736 10.17373,2.45038 C 176,156.00007 176,156.00007 176,160.00007 c 2.64,0 5.28,0 8,0 0.0142,-0.54785 0.0284,-1.0957 0.043,-1.66016 1.12585,-18.71345 11.23399,-37.90252 23.95703,-51.33984 0.67289,-0.71414 1.34578,-1.42828 2.03906,-2.16406 9.67484,-9.384957 23.78411,-16.622483 37.33594,-17.273444 3.09435,0.126499 4.48852,0.362762 7.25,1.875 4.29164,7.998054 0.0118,20.076754 -1.625,28.562504 25.04609,-7.19652 25.04609,-7.19652 42.875,-24.875004 0.36867,-0.760547 0.73734,-1.521094 1.11719,-2.304688 C 298,89.000066 298,89.000066 300,88.000066 c 7.05941,-0.569307 7.05941,-0.569307 10.375,1.4375 4.41377,6.960181 4.01086,15.839844 4,23.812504 -1.6e-4,1.10376 -3.2e-4,2.20752 -4.9e-4,3.34473 -0.11414,8.1488 -1.09285,14.88381 -4.37451,22.40527 -0.66746,1.66635 -1.33437,3.33292 -2,5 3.28696,0.79953 4.71023,1.09659 8,0 7.19619,-0.57113 7.19619,-0.57113 10.375,1.6875 4.77453,6.79453 5.45282,15.2219 4.625,23.3125 -1.43676,5.91729 -3.21979,11.5778 -6,17 1.72781,1.21963 3.45565,2.43923 5.18359,3.65869 1.51472,1.06943 3.02904,2.13942 4.54297,3.20996 4.04159,2.85667 8.08958,5.7033 12.15235,8.52979 0.7748,0.54108 1.54961,1.08217 2.3479,1.63965 1.49806,1.04579 2.9985,2.0882 4.50146,3.12695 0.67748,0.47405 1.35497,0.9481 2.05298,1.43652 0.59877,0.41589 1.19754,0.83177 1.81445,1.26026 1.4043,1.13818 1.4043,1.13818 2.4043,3.13818 0.15608,2.4056 0.25804,4.78703 0.31641,7.19531 0.0208,0.70745 0.0416,1.41489 0.063,2.14377 0.0654,2.26187 0.12435,4.52386 0.18312,6.78592 0.0432,1.53256 0.0868,3.06512 0.13086,4.59766 0.10713,3.75899 0.20841,7.5181 0.30664,11.27734 1.03779,-0.84241 2.07554,-1.68487 3.11328,-2.52734 0.66556,-0.54028 1.33112,-1.08056 2.01685,-1.63721 1.46668,-1.19153 2.93265,-2.38392 4.39795,-3.57715 3.18726,-2.59506 6.37762,-5.18345 9.59692,-7.73877 1.71643,-1.36965 3.41589,-2.76103 5.09204,-4.17969 1.84024,-1.54723 3.71892,-3.04996 5.63428,-4.50317 5.39778,-4.55928 8.63874,-8.20348 9.62779,-15.35616 0.338,-4.19184 0.35899,-8.34052 0.27089,-12.54301 -0.007,-1.31703 -0.007,-1.31703 -0.0143,-2.66068 -0.16175,-12.7576 -2.30455,-23.00459 -9.36066,-33.71432 -0.69126,-1.0758 -1.38252,-2.15161 -2.09473,-3.26001 -3.28969,-4.38296 -5.5499,-6.89962 -10.99023,-8.16626 -3.47562,-0.26577 -6.81203,-0.33042 -10.29004,-0.13623 -0.10313,0.94875 -0.20625,1.8975 -0.3125,2.875 -0.6875,3.125 -0.6875,3.125 -3.6875,5.125 -8.25536,0.99634 -13.19804,-2.06625 -19.61719,-7.01953 -6.92108,-5.86341 -11.93812,-11.85002 -13.38281,-20.98047 -0.49284,-9.8567 1.53101,-17.72304 7,-26.000004 0.76312,-0.804375 1.52625,-1.60875 2.3125,-2.4375 2.24551,-3.409854 1.85832,-5.776188 1.72266,-9.769531 -0.13897,-11.040017 3.38033,-22.525124 10.8164,-30.871094 3.67077,-2.990993 7.26895,-4.316867 11.77344,-5.671875 5.673,-1.870221 7.2056,-4.488861 9.86719,-9.652344 C 378.73187,32.293537 386.93325,26.347867 395,24 c 12.64694,-1.598888 22.80635,0.805761 33.0625,8.6875 1.31342,1.103075 2.62605,2.207092 3.9375,3.3125 3.22315,2.148764 4.1715,2.255709 7.89453,2.308594 0.95584,0.02514 1.91168,0.05027 2.89649,0.07617 2.00254,0.03495 4.00515,0.06624 6.00781,0.09375 5.43112,0.149547 9.54468,0.388937 14.20117,3.521484 1.3544,2.708793 1.06501,5.009333 1,8 2.97,0.66 5.94,1.32 9,2 0.33,-0.99 0.66,-1.98 1,-3 5.6205,-2.999814 11.7375,-2.329561 17.9375,-2.3125 1.16725,-0.01611 2.33449,-0.03223 3.53711,-0.04883 10.81418,-0.0062 10.81418,-0.0062 15.52539,3.361328 1.86911,3.73823 1.60977,8.090809 0.35889,12.007324 -0.89429,2.028976 -1.87358,3.976143 -2.92139,5.930176 -0.36062,0.696577 -0.72123,1.393154 -1.09277,2.11084 -2.51722,4.735495 -5.34906,8.995437 -8.80176,13.111816 -2.0804,2.480683 -3.79746,5.116849 -5.54297,7.839844 0.80437,0.09281 0.80437,0.09281 1.625,0.1875 3.90493,1.335896 7.5067,4.075897 9.375,7.8125 0.83428,6.592154 -0.2341,11.549094 -4,17.000004 -12.74639,16.22504 -37.1274,33.11202 -58.19531,36.33594 -3.45565,0.07 -5.44725,-0.0857 -8.30469,-2.08594 C 432,148 432,148 432,144 c -5.28,0 -10.56,0 -16,0 0.33,13.86 0.66,27.72 1,42 1.485,-0.99 1.485,-0.99 3,-2 6.90808,-0.77994 6.90808,-0.77994 10.625,1.875 8.70984,11.46031 11.78708,23.00668 13.375,37.125 14.91924,-9.93519 14.91924,-9.93519 29,-21 0.8366,-0.70383 1.6732,-1.40766 2.53516,-2.13281 9.47981,-8.20726 15.7922,-16.76513 21.01953,-28.0586 C 498,169 498,169 500,168 c 7.25928,-0.58543 7.25928,-0.58543 10.09839,1.65845 2.39612,2.95046 2.40441,4.46564 2.3977,8.23217 0.004,1.75909 0.004,1.75909 0.009,3.55372 -0.0334,1.8838 -0.0334,1.8838 -0.0674,3.80566 -0.0198,1.94181 -0.0198,1.94181 -0.04,3.92285 -0.41559,22.60249 -3.52698,44.92336 -12.39746,65.82715 1.32,0.33 2.64,0.66 4,1 -0.40863,11.03293 -7.21438,19.37338 -14.87326,26.82178 -6.12192,5.31795 -10.72646,6.20024 -18.69705,6.11572 -1.12725,0.0151 -2.2545,0.0301 -3.41591,0.0457 -3.71356,0.0399 -7.42506,0.0292 -11.13878,0.0168 -2.59417,0.0159 -5.18833,0.0341 -7.78247,0.0544 -29.36383,0.18499 -58.73878,-0.46077 -88.09253,-1.05444 0,29.04 0,58.08 0,88 3.96,0 7.92,0 12,0 4,4 4,4 4.53125,6 -0.0103,0.66 -0.0206,1.32 -0.0312,2 0.0103,0.66 0.0206,1.32 0.0312,2 -0.77088,2.90214 -2.24916,4.09143 -4.53125,6 -2.3551,0.50336 -2.3551,0.50336 -5.00977,0.50793 -1.51412,0.0169 -1.51412,0.0169 -3.05883,0.0342 -1.10143,-0.008 -2.20285,-0.0162 -3.33765,-0.0245 -1.16459,0.007 -2.32917,0.014 -3.52905,0.0212 -3.85514,0.0176 -7.70955,0.006 -11.5647,-0.008 -2.67514,0.003 -5.35026,0.007 -8.02539,0.0116 -5.60881,0.007 -11.2174,-0.002 -16.82617,-0.0214 -6.48262,-0.0218 -12.96473,-0.0147 -19.44734,0.007 -5.56787,0.0182 -11.13558,0.0207 -16.70347,0.0102 -3.32459,-0.006 -6.64888,-0.006 -9.97346,0.006 -3.70632,0.0101 -7.41167,-0.005 -11.11792,-0.0276 -1.10142,0.008 -2.20285,0.0162 -3.33765,0.0245 -1.00941,-0.0113 -2.01883,-0.0225 -3.05883,-0.0342 -0.87604,-10e-4 -1.75208,-0.003 -2.65467,-0.005 -3.1874,-0.68125 -4.40206,-1.93512 -6.3551,-4.50336 0,-1.32 0,-2.64 0,-4 -3.3,0.33 -6.6,0.66 -10,1 0.99,1.485 0.99,1.485 2,3 2.3754,10.80351 -4.03465,23.17 -8,33 0.94206,-0.4585 1.88413,-0.91701 2.85474,-1.3894 3.54602,-1.72539 7.09295,-3.4489 10.64013,-5.17188 1.52564,-0.74136 3.05103,-1.48321 4.57617,-2.22559 7.05767,-3.43502 14.11696,-6.8695 21.22583,-10.19751 0.81437,-0.38252 1.62874,-0.76505 2.46778,-1.15917 3.71866,-1.42476 6.29372,-1.47881 10.23535,-0.85645 2.63345,1.59393 3.64081,2.88899 4.5874,5.81689 1.46332,6.24741 1.7133,12.22013 1.6626,18.62061 0.008,0.9726 0.0155,1.9452 0.0234,2.94727 -0.0172,6.42596 -0.76992,12.36912 -2.27344,18.61523 35.04667,-6.28504 68.72305,-14.85595 92,-44 2.0163,-2.97213 3.84944,-6.04044 5.6875,-9.125 10.86427,-17.60879 23.82085,-31.81774 43.3125,-39.875 0.81082,-0.33902 1.62164,-0.67805 2.45703,-1.02734 6.28668,-2.14836 12.58758,-2.27553 19.16797,-2.34766 0.88293,-0.014 1.76585,-0.028 2.67554,-0.0425 5.85137,0.0426 11.43615,0.67942 16.69946,3.41748 2.02059,3.03088 2.71765,4.93841 2.64453,8.57422 -1.18688,4.46698 -4.39225,7.70685 -7.24609,11.2539 -7.07987,9.36295 -10.42642,18.53039 -9.39844,30.17188 0.70739,3.64048 1.60407,7.2313 2.5769,10.80933 1.28613,4.87467 1.60429,9.14558 1.4231,14.19067 21.65279,-8.04684 21.65279,-8.04684 36.69531,-24.77734 1.30469,-2.22266 1.30469,-2.22266 3.30469,-3.22266 7.103,-0.57282 7.103,-0.57282 10.22656,1.42187 2.69531,3.9183 2.36807,7.48709 2.27344,12.14063 -0.0121,0.96092 -0.0242,1.92183 -0.0366,2.91187 -0.62102,23.56312 -5.19974,48.1696 -15.46338,69.52563 -0.41508,0.90492 -0.83016,1.80984 -1.25781,2.74219 -3.93439,7.93622 -9.45949,14.10798 -15.74219,20.25781 -0.54986,0.53959 -1.09972,1.07919 -1.66624,1.63513 -3.33753,1.95191 -6.50211,1.77333 -10.25982,1.73401 -0.80828,0.003 -1.61656,0.007 -2.44934,0.0105 -2.72565,0.008 -5.45079,-0.006 -8.17642,-0.0189 -1.96686,10e-4 -3.93372,0.004 -5.90057,0.008 -5.41818,0.007 -10.83618,-0.005 -16.25434,-0.0203 -5.83774,-0.0129 -11.67548,-0.009 -17.51324,-0.006 -10.11876,0.002 -20.23746,-0.008 -30.35621,-0.0247 -14.6301,-0.0244 -29.26019,-0.0322 -43.89031,-0.036 -23.73482,-0.006 -47.46961,-0.0265 -71.20441,-0.0549 -23.05989,-0.0276 -46.11978,-0.0488 -69.17969,-0.0615 -0.71064,-3.9e-4 -1.42129,-7.8e-4 -2.15346,-10e-4 -7.1365,-0.004 -14.273,-0.008 -21.4095,-0.0115 -14.53824,-0.008 -29.07647,-0.0161 -43.61471,-0.025 -1.00269,-6.2e-4 -1.00269,-6.2e-4 -2.02565,-10e-4 -44.648707,-0.0276 -89.2974,-0.0752 -133.94609,-0.12578 -0.18818,-16.92639 -0.32858,-33.85245 -0.4145,-50.77965 -0.041,-7.86238 -0.0967,-15.72411 -0.18902,-23.58607 -0.0806,-6.86493 -0.13154,-13.72938 -0.14919,-20.59477 -0.0103,-3.62425 -0.0339,-7.24713 -0.0931,-10.87093 -0.28975,-18.44116 1.55149,-34.091 8.84584,-51.16858 0.29392,-0.68881 0.58785,-1.37762 0.89068,-2.0873 1.50674,-3.4636 3.15834,-6.7942 4.98432,-10.1002 0.50902,-0.94577 1.01804,-1.89154 1.54248,-2.86597 8.85326,-16.07463 20.867969,-31.12019 37.855958,-39.00122 1.946808,-0.81631 1.946808,-0.81631 2.476562,-3.07031 0.0825,-0.61875 0.165,-1.2375 0.25,-1.875 -0.94875,-0.10312 -1.8975,-0.20625 -2.875,-0.3125 -3.125,-0.6875 -3.125,-0.6875 -5.125,-3.6875 -0.171931,-2.82983 -0.232084,-5.55882 -0.195312,-8.38672 0.0028,-0.81701 0.0057,-1.63402 0.0086,-2.47578 0.01119,-2.60848 0.03629,-5.21662 0.06174,-7.825 0.01003,-1.76888 0.01916,-3.53776 0.02734,-5.30664 0.02205,-4.33542 0.05657,-8.67058 0.09766,-13.00586 -1.433209,-0.21101 -2.868572,-0.40743 -4.304687,-0.59766 -0.799058,-0.11094 -1.598116,-0.22188 -2.421387,-0.33618 -2.516869,-0.25266 -2.516869,-0.25266 -5.398926,1.49634 -2.875,1.4375 -2.875,1.4375 -6.125,1.25 -8.99969,-3.25266 -15.84946,-13.49948 -19.75,-21.8125 -3.29206,-7.51001 -4.36301,-14.62926 -4.4375,-22.75 -0.0101,-0.7798 -0.0203,-1.5596 -0.0308,-2.36304 0.0834,-5.55464 0.92855,-10.88589 3.46826,-15.88696 3.17012,-2.11341 3.89171,-2.23325 7.5,-2.125 0.77344,0.018 1.54687,0.0361 2.34375,0.0547 0.71156,0.0232 1.42312,0.0464 2.15625,0.0703 0.99,0 1.98,0 3,0 -0.16009,-0.57041 -0.32017,-1.14082 -0.48511,-1.72852 -3.06789,-13.53423 -0.37855,-27.50631 6.17261,-39.45898 3.496095,-5.5258 8.362219,-11.83736 14.3125,-14.8125 7.119059,-0.70024 7.119059,-0.70024 10.4375,1.9375 1.268438,1.51594 1.268438,1.51594 2.5625,3.0625 6.76385,7.66764 14.048718,12.327 23,17 0.01742,-8.87712 -2.307647,-14.2931 -7.335937,-21.48828 -0.635156,-0.94683 -1.270311,-1.89366 -1.924714,-2.86919 -2.017841,-2.99933 -4.064731,-5.97734 -6.114349,-8.95503 -2.03586,-2.99959 -4.065551,-6.00326 -6.092926,-9.00859 -1.259119,-1.86189 -2.52429,-3.7197 -3.796326,-5.57279 C 46.7426,98.403999 46.7426,98.403999 47.6875,93.25 49,90 49,90 51,88 54.073775,87.346005 56.855991,87 60,87 59.835,86.2575 59.67,85.515 59.5,84.75 57.833915,72.254366 59.31963,60.29619 65,49 64.729654,46.562827 64.729654,46.562827 64,44 63.373847,36.360934 65.310407,31.655532 69.816406,25.53125 82.454788,10.880675 107.81662,0.25268032 127.0625,-0.3125 Z"
     style="fill:#218fd2"
     id="path1" />
  <path
     d="m 127.0625,-0.3125 c 0.8366,-0.0373828 1.6732,-0.0747656 2.53516,-0.11328125 C 132,0 132,0 134.26172,1.4726562 136.77656,5.1290706 136.6707,8.4029319 136.75,12.75 c 0.0297,0.792773 0.0593,1.585547 0.0898,2.402344 0.0704,1.948677 0.11759,3.898171 0.16016,5.847656 0.88043,-0.277148 1.76086,-0.554297 2.66797,-0.839844 1.16144,-0.362226 2.32289,-0.724453 3.51953,-1.097656 1.72283,-0.539473 1.72283,-0.539473 3.48047,-1.089844 5.73157,-1.673107 10.9529,-2.208654 16.89453,-2.285156 0.75475,-0.029 1.50949,-0.05801 2.28711,-0.08789 3.59054,-0.04112 5.69156,0.05936 8.61523,2.232422 4.83211,6.82397 3.32089,18.237004 2.53516,26.167969 -1.6037,8.232056 -4.13475,16.539347 -8,24 0.67805,0.02578 1.35609,0.05156 2.05469,0.07813 6.80199,0.414526 12.95175,1.520444 18.94531,4.921875 2.53955,3.809328 2.67288,6.601464 2,11 -5.67728,18.721804 -19.96514,34.704494 -37,44.000004 -12.12899,5.86186 -25.38354,10.02361 -39,8 -2.41406,-1.83594 -2.41406,-1.83594 -4,-4 0,-0.99 0,-1.98 0,-3 -0.98742,-0.13277 -1.97484,-0.26555 -2.99219,-0.40234 -1.28133,-0.17661 -2.56265,-0.35321 -3.88281,-0.53516 -1.27617,-0.17402 -2.55234,-0.34805 -3.86719,-0.52734 C 98,127.00001 98,127.00001 96,126.00001 c 0.33,16.17 0.66,32.34 1,49 4.77514,-4.09298 9.45658,-8.20966 14.08203,-12.46094 0.96293,-0.83789 1.92586,-1.67578 2.91797,-2.53906 0.55945,-0.67482 1.11891,-1.34965 1.69531,-2.04492 5.00408,-5.22226 9.51638,-6.45401 16.51979,-6.81491 4.27969,-0.0851 8.54806,-0.061 12.82738,0.0366 3.34514,0.0735 6.68587,0.082 10.03174,0.0811 2.12894,0.0196 4.25786,0.043 6.38672,0.0703 0.99792,0.004 1.99585,0.009 3.02402,0.0135 6.8162,0.18736 6.8162,0.18736 10.17373,2.45038 C 176,156.00007 176,156.00007 176,160.00007 c 2.64,0 5.28,0 8,0 0.0142,-0.54785 0.0284,-1.0957 0.043,-1.66016 1.12585,-18.71345 11.23399,-37.90252 23.95703,-51.33984 0.67289,-0.71414 1.34578,-1.42828 2.03906,-2.16406 9.67484,-9.384957 23.78411,-16.622483 37.33594,-17.273444 3.09435,0.126499 4.48852,0.362762 7.25,1.875 4.29164,7.998054 0.0118,20.076754 -1.625,28.562504 25.04609,-7.19652 25.04609,-7.19652 42.875,-24.875004 0.36867,-0.760547 0.73734,-1.521094 1.11719,-2.304688 C 298,89.000066 298,89.000066 300,88.000066 c 7.05941,-0.569307 7.05941,-0.569307 10.375,1.4375 4.41377,6.960181 4.01086,15.839844 4,23.812504 -1.6e-4,1.10376 -3.2e-4,2.20752 -4.9e-4,3.34473 -0.11414,8.1488 -1.09285,14.88381 -4.37451,22.40527 -0.66746,1.66635 -1.33437,3.33292 -2,5 3.28696,0.79953 4.71023,1.09659 8,0 7.19619,-0.57113 7.19619,-0.57113 10.375,1.6875 4.77453,6.79453 5.45282,15.2219 4.625,23.3125 -1.43676,5.91729 -3.21979,11.5778 -6,17 1.72781,1.21963 3.45565,2.43923 5.18359,3.65869 1.51472,1.06943 3.02904,2.13942 4.54297,3.20996 4.04159,2.85667 8.08958,5.7033 12.15235,8.52979 0.7748,0.54108 1.54961,1.08217 2.3479,1.63965 1.49806,1.04579 2.9985,2.0882 4.50146,3.12695 0.67748,0.47405 1.35497,0.9481 2.05298,1.43652 0.59877,0.41589 1.19754,0.83177 1.81445,1.26026 1.4043,1.13818 1.4043,1.13818 2.4043,3.13818 0.15608,2.4056 0.25804,4.78703 0.31641,7.19531 0.0208,0.70745 0.0416,1.41489 0.063,2.14377 0.0654,2.26187 0.12435,4.52386 0.18312,6.78592 0.0432,1.53256 0.0868,3.06512 0.13086,4.59766 0.10713,3.75899 0.20841,7.5181 0.30664,11.27734 1.03779,-0.84241 2.07554,-1.68487 3.11328,-2.52734 0.66556,-0.54028 1.33112,-1.08056 2.01685,-1.63721 1.46668,-1.19153 2.93265,-2.38392 4.39795,-3.57715 3.18726,-2.59506 6.37762,-5.18345 9.59692,-7.73877 1.71643,-1.36965 3.41589,-2.76103 5.09204,-4.17969 1.84024,-1.54723 3.71892,-3.04996 5.63428,-4.50317 5.39778,-4.55928 8.63874,-8.20348 9.62779,-15.35616 0.338,-4.19184 0.35899,-8.34052 0.27089,-12.54301 -0.007,-1.31703 -0.007,-1.31703 -0.0143,-2.66068 -0.16175,-12.7576 -2.30455,-23.00459 -9.36066,-33.71432 -0.69126,-1.0758 -1.38252,-2.15161 -2.09473,-3.26001 -3.28969,-4.38296 -5.5499,-6.89962 -10.99023,-8.16626 -3.47562,-0.26577 -6.81203,-0.33042 -10.29004,-0.13623 -0.10313,0.94875 -0.20625,1.8975 -0.3125,2.875 -0.6875,3.125 -0.6875,3.125 -3.6875,5.125 -8.25536,0.99634 -13.19804,-2.06625 -19.61719,-7.01953 -6.92108,-5.86341 -11.93812,-11.85002 -13.38281,-20.98047 -0.49284,-9.8567 1.53101,-17.72304 7,-26.000004 0.76312,-0.804375 1.52625,-1.60875 2.3125,-2.4375 2.24551,-3.409854 1.85832,-5.776188 1.72266,-9.769531 -0.13897,-11.040017 3.38033,-22.525124 10.8164,-30.871094 3.67077,-2.990993 7.26895,-4.316867 11.77344,-5.671875 5.673,-1.870221 7.2056,-4.488861 9.86719,-9.652344 C 378.73187,32.293537 386.93325,26.347867 395,24 c 12.64694,-1.598888 22.80635,0.805761 33.0625,8.6875 1.31342,1.103075 2.62605,2.207092 3.9375,3.3125 3.22315,2.148764 4.1715,2.255709 7.89453,2.308594 0.95584,0.02514 1.91168,0.05027 2.89649,0.07617 2.00254,0.03495 4.00515,0.06624 6.00781,0.09375 5.43112,0.149547 9.54468,0.388937 14.20117,3.521484 1.3544,2.708793 1.06501,5.009333 1,8 2.97,0.66 5.94,1.32 9,2 0.33,-0.99 0.66,-1.98 1,-3 5.6205,-2.999814 11.7375,-2.329561 17.9375,-2.3125 1.16725,-0.01611 2.33449,-0.03223 3.53711,-0.04883 10.81418,-0.0062 10.81418,-0.0062 15.52539,3.361328 1.86911,3.73823 1.60977,8.090809 0.35889,12.007324 -0.89429,2.028976 -1.87358,3.976143 -2.92139,5.930176 -0.36062,0.696577 -0.72123,1.393154 -1.09277,2.11084 -2.51722,4.735495 -5.34906,8.995437 -8.80176,13.111816 -2.0804,2.480683 -3.79746,5.116849 -5.54297,7.839844 0.80437,0.09281 0.80437,0.09281 1.625,0.1875 3.90493,1.335896 7.5067,4.075897 9.375,7.8125 0.83428,6.592154 -0.2341,11.549094 -4,17.000004 -12.74639,16.22504 -37.1274,33.11202 -58.19531,36.33594 -3.45565,0.07 -5.44725,-0.0857 -8.30469,-2.08594 C 432,148 432,148 432,144 c -5.28,0 -10.56,0 -16,0 0.33,13.86 0.66,27.72 1,42 1.485,-0.99 1.485,-0.99 3,-2 6.90808,-0.77994 6.90808,-0.77994 10.625,1.875 8.70984,11.46031 11.78708,23.00668 13.375,37.125 14.91924,-9.93519 14.91924,-9.93519 29,-21 0.8366,-0.70383 1.6732,-1.40766 2.53516,-2.13281 9.47981,-8.20726 15.7922,-16.76513 21.01953,-28.0586 C 498,169 498,169 500,168 c 7.25928,-0.58543 7.25928,-0.58543 10.09839,1.65845 2.39612,2.95046 2.40441,4.46564 2.3977,8.23217 0.003,1.17273 0.006,2.34545 0.009,3.55372 -0.0222,1.25587 -0.0445,2.51173 -0.0674,3.80566 -0.0132,1.29454 -0.0264,2.58908 -0.04,3.92285 -0.41559,22.60249 -3.52698,44.92336 -12.39746,65.82715 1.32,0.33 2.64,0.66 4,1 -0.40863,11.03293 -7.21438,19.37338 -14.87326,26.82178 -6.12192,5.31795 -10.72646,6.20024 -18.69705,6.11572 -1.12725,0.0151 -2.2545,0.0301 -3.41591,0.0457 -3.71356,0.0399 -7.42506,0.0292 -11.13878,0.0168 -2.59417,0.0159 -5.18833,0.0341 -7.78247,0.0544 -29.36383,0.18499 -58.73878,-0.46077 -88.09253,-1.05444 0,29.04 0,58.08 0,88 3.96,0 7.92,0 12,0 4,4 4,4 4.53125,6 -0.0103,0.66 -0.0206,1.32 -0.0312,2 0.0103,0.66 0.0206,1.32 0.0312,2 -0.77088,2.90214 -2.24916,4.09143 -4.53125,6 -2.3551,0.50336 -2.3551,0.50336 -5.00977,0.50793 -1.51412,0.0169 -1.51412,0.0169 -3.05883,0.0342 -1.10143,-0.008 -2.20285,-0.0162 -3.33765,-0.0245 -1.16459,0.007 -2.32917,0.014 -3.52905,0.0212 -3.85514,0.0176 -7.70955,0.006 -11.5647,-0.008 -2.67514,0.003 -5.35026,0.007 -8.02539,0.0116 -5.60881,0.007 -11.2174,-0.002 -16.82617,-0.0214 -6.48262,-0.0218 -12.96473,-0.0147 -19.44734,0.007 -5.56787,0.0182 -11.13558,0.0207 -16.70347,0.0102 -3.32459,-0.006 -6.64888,-0.006 -9.97346,0.006 -3.70632,0.0101 -7.41167,-0.005 -11.11792,-0.0276 -1.10142,0.008 -2.20285,0.0162 -3.33765,0.0245 -1.00941,-0.0113 -2.01883,-0.0225 -3.05883,-0.0342 -0.87604,-10e-4 -1.75208,-0.003 -2.65467,-0.005 -3.13938,-0.67099 -4.35429,-2.05017 -6.3551,-4.50336 -0.51466,-2.23167 -0.51466,-2.23167 -0.53345,-4.68921 -0.0237,-1.3868 -0.0237,-1.3868 -0.048,-2.80162 0.005,-0.99174 0.01,-1.98347 0.015,-3.00526 -0.006,-1.0257 -0.0124,-2.0514 -0.0188,-3.10817 -0.007,-2.16779 -0.004,-4.33564 0.009,-6.50341 0.0139,-3.31474 -0.0202,-6.62665 -0.0584,-9.94116 -9.5e-4,-2.10742 9.1e-4,-4.21485 0.006,-6.32226 -0.0132,-0.98972 -0.0265,-1.97943 -0.0402,-2.99913 0.0602,-4.45798 0.22915,-6.94667 2.683,-10.75698 3.82964,-2.40186 7.00677,-2.56019 11.39233,-2.46655 0.80232,-4e-5 1.60464,-8e-5 2.43127,-1.2e-4 1.69112,0.005 3.38224,0.0229 5.07312,0.0519 2.58135,0.0419 5.16008,0.0411 7.7417,0.0342 1.64716,0.0105 3.2943,0.0234 4.94141,0.0391 0.76784,2e-4 1.53568,4e-4 2.32678,6.1e-4 4.51172,0.0991 7.4966,0.66162 11.07947,3.46814 1.5599,3.11981 1.12114,6.42923 1.09766,9.85156 -10e-4,0.68603 -0.002,1.37205 -0.003,2.07886 -0.005,2.56488 -0.0192,5.12973 -0.0321,7.69458 -0.0206,5.73375 -0.0412,11.4675 -0.0625,17.375 15.84,0 31.68,0 48,0 0.3216,-20.09888 0.5591,-40.19311 0.64509,-60.29425 0.0426,-9.33457 0.12225,-18.666 0.29095,-27.99921 0.14703,-8.14056 0.22272,-16.27822 0.21476,-24.42016 -0.002,-4.30795 0.0308,-8.60913 0.149,-12.9156 1.12824,-17.35436 1.12824,-17.35436 -4.27508,-33.1706 -4.63985,-4.52807 -9.83263,-7.50483 -15.72073,-10.13507 -2.98677,-1.38075 -5.41395,-3.09378 -8.03446,-5.07292 -0.7508,-0.52505 -1.5016,-1.05011 -2.27515,-1.59107 -6.26903,-4.38488 -12.53427,-8.77476 -18.77978,-13.19311 -1.41416,-0.99914 -2.82997,-1.99596 -4.24756,-2.99024 -3.27994,-2.30196 -6.53186,-4.62833 -9.73657,-7.03418 -0.88474,-0.65005 -0.88474,-0.65005 -1.78735,-1.31323 -1.57843,-1.161 -3.14413,-2.33925 -4.70875,-3.5188 -2.61465,-1.63753 -2.61465,-1.63753 -5.22265,-0.85937 -3.01078,1.8074 -5.70181,3.8182 -8.44922,6.00781 -4.5109,3.54736 -9.0663,6.99635 -13.75,10.3125 -0.57396,0.40702 -1.14791,0.81404 -1.73926,1.2334 -1.21307,0.86006 -2.42629,1.71992 -3.63965,2.57959 -10.79091,7.67081 -21.4802,15.48311 -32.12573,23.354 -1.09405,0.80873 -1.09405,0.80873 -2.2102,1.63379 -0.68637,0.5239 -1.37273,1.04781 -2.0799,1.58759 -2.51776,1.79913 -2.51776,1.79913 -5.33125,3.38177 -5.95121,3.5759 -5.95121,3.5759 -9.17001,9.49162 -0.33588,3.74008 -0.332,7.34074 -0.204,11.09371 0.006,1.36663 0.006,2.73329 0.001,4.09993 0,3.57861 0.0628,7.15319 0.14203,10.73082 0.11527,5.73361 0.12984,11.46854 0.15249,17.20312 0.0162,1.99489 0.0588,3.9895 0.10172,5.984 0.0236,1.82263 0.0236,1.82263 0.0476,3.68208 0.0221,1.06619 0.0441,2.13238 0.0669,3.23088 -0.3752,3.35239 -1.33112,5.20517 -3.32471,7.9012 -2.62878,1.12277 -5.16096,1.20606 -8,1 -3.26711,-1.67545 -3.82781,-2.48343 -5,-6 -0.0885,-1.88657 -0.11762,-3.77616 -0.11352,-5.66479 1.2e-4,-1.1772 2.4e-4,-2.3544 3.6e-4,-3.56727 0.005,-1.23697 0.0102,-2.47395 0.0155,-3.74841 0.002,-1.70573 0.002,-1.70573 0.003,-3.44592 0.005,-4.25371 0.0192,-8.50741 0.0321,-12.76111 0.0206,-9.50813 0.0413,-19.01625 0.0625,-28.8125 -36.96,0 -73.92,0 -111.999996,0 0.11865,18.8628 0.11865,18.8628 0.270264,37.72534 0.0088,2.36629 0.01641,4.73258 0.02271,7.09888 0.01535,1.22674 0.0307,2.45349 0.04651,3.71741 3.62e-4,1.17695 7.25e-4,2.3539 0.0011,3.56652 0.0067,1.01927 0.01332,2.03853 0.02019,3.08867 -0.42182,3.27759 -1.409534,5.15751 -3.360764,7.80318 -2.121094,0.84766 -2.121094,0.84766 -4.4375,1.0625 -0.761836,0.0941 -1.523672,0.1882 -2.308594,0.28516 -3.314122,-0.51119 -4.247402,-1.67536 -6.253906,-4.34766 -0.34899,-2.95928 -0.467842,-5.53454 -0.390625,-8.48438 0.0057,-0.81559 0.01132,-1.63118 0.01715,-2.47149 0.02235,-2.59865 0.07254,-5.1959 0.123474,-7.79413 0.02007,-1.7643 0.03832,-3.52863 0.05469,-5.29297 0.04404,-4.31954 0.113058,-8.63805 0.195312,-12.95703 -1.433209,-0.21101 -2.868572,-0.40743 -4.304687,-0.59766 -0.799058,-0.11094 -1.598116,-0.22188 -2.421387,-0.33618 -2.516869,-0.25266 -2.516869,-0.25266 -5.398926,1.49634 -2.875,1.4375 -2.875,1.4375 -6.125,1.25 -8.99969,-3.25266 -15.84946,-13.49948 -19.75,-21.8125 -3.29206,-7.51001 -4.36301,-14.62926 -4.4375,-22.75 -0.0101,-0.7798 -0.0203,-1.5596 -0.0308,-2.36304 0.0834,-5.55464 0.92855,-10.88589 3.46826,-15.88696 3.17012,-2.11341 3.89171,-2.23325 7.5,-2.125 0.77344,0.018 1.54687,0.0361 2.34375,0.0547 0.71156,0.0232 1.42312,0.0464 2.15625,0.0703 0.99,0 1.98,0 3,0 -0.16009,-0.57041 -0.32017,-1.14082 -0.48511,-1.72852 -3.06789,-13.53423 -0.37855,-27.50631 6.17261,-39.45898 3.496095,-5.5258 8.362219,-11.83736 14.3125,-14.8125 7.119059,-0.70024 7.119059,-0.70024 10.4375,1.9375 1.268438,1.51594 1.268438,1.51594 2.5625,3.0625 6.76385,7.66764 14.048718,12.327 23,17 0.01742,-8.87712 -2.307647,-14.2931 -7.335937,-21.48828 -0.635156,-0.94683 -1.270311,-1.89366 -1.924714,-2.86919 -2.017841,-2.99933 -4.064731,-5.97734 -6.114349,-8.95503 -2.03586,-2.99959 -4.065551,-6.00326 -6.092926,-9.00859 -1.259119,-1.86189 -2.52429,-3.7197 -3.796326,-5.57279 C 46.7426,98.403999 46.7426,98.403999 47.6875,93.25 49,90 49,90 51,88 54.073775,87.346005 56.855991,87 60,87 59.835,86.2575 59.67,85.515 59.5,84.75 57.833915,72.254366 59.31963,60.29619 65,49 64.729654,46.562827 64.729654,46.562827 64,44 63.373847,36.360934 65.310407,31.655532 69.816406,25.53125 82.454788,10.880675 107.81662,0.25268032 127.0625,-0.3125 Z"
     style="fill:#073141"
     id="path2" />
  <path
     d="m 449,366 c -0.48211,0.92941 -0.96422,1.85883 -1.46094,2.81641 -0.63834,1.24853 -1.27635,2.49723 -1.91406,3.74609 -0.31711,0.60908 -0.63422,1.21816 -0.96094,1.8457 -3.66721,7.21983 -5.02815,13.78917 -4.97656,21.8418 10e-4,0.84482 0.003,1.68964 0.004,2.56006 0.0843,5.48607 0.89718,10.07638 2.63281,15.2915 0.92785,3.97954 0.98147,7.82432 0.98828,11.89844 0.005,0.74331 0.0103,1.48661 0.0156,2.25244 -0.0486,3.76939 -0.19022,5.54069 -2.32813,8.74756 -0.45667,3.57725 -0.43777,5.33458 1.5625,8.375 3.3198,2.2132 5.48543,1.83885 9.4375,1.625 14.66141,-3.02481 28.55884,-9.60808 42,-16 0.24851,6.32235 -0.60488,11.81038 -2.125,17.9375 -0.22373,0.91443 -0.44747,1.82886 -0.67798,2.771 -4.5114,17.89329 -10.2835,34.68329 -24.44311,47.2915 -1.91975,1.81809 -1.91975,1.81809 -2.03125,4.03516 0.11215,0.66902 0.22429,1.33804 0.33984,2.02734 0.14115,1.0074 0.14115,1.0074 0.28516,2.03516 0.6447,2.3342 0.6447,2.3342 3.65234,4.90234 -145.86,0 -291.72,0 -442,0 1.98,-2.31 3.96,-4.62 6,-7 1.87089,-2.40869 1.87089,-2.40869 3.72559,-4.82983 C 43.27445,491.58765 50.49122,483.74546 58,476 c 0.63019,-0.6521 1.26038,-1.30421 1.90967,-1.97607 C 67.55551,466.14598 75.29589,458.71656 84,452 c 1.26384,-1.0146 2.5268,-2.03031 3.78906,-3.04688 C 102.35386,437.35944 128.3541,416.84436 148,418 c 4.02754,6.88037 3.76166,14.21783 3,22 -1.24067,4.3545 -3.21019,7.84349 -5.75,11.5625 -1.88044,3.66686 -1.57613,6.32826 -1.25,10.4375 1.00875,2.81009 1.33395,3.66698 4,5 1.97514,0.15126 3.95678,0.22174 5.9375,0.25 1.0609,0.0258 2.1218,0.0516 3.21484,0.0781 37.56951,-3.2039 79.88033,-29.40454 112.91748,-46.4563 C 272,420 272,420 274,420 c 0.57648,10.825 0.0828,20.97871 -6.75,29.875 -2.45367,2.93077 -2.45367,2.93077 -2.8125,6.3125 0.71529,3.57643 1.69549,4.58624 4.5625,6.8125 30.72692,5.69745 72.99479,-9.57426 98.41406,-26.5 13.41746,-9.23383 23.00607,-19.68186 31.52344,-33.4375 9.77348,-15.78427 21.70534,-29.86422 39.6875,-36.375 3.54879,-0.7229 6.76349,-0.73468 10.375,-0.6875 z"
     style="fill:#fd9801"
     id="path3" />
  <path
     d="m 141,314 c 0.009,0.6339 0.0187,1.26779 0.0283,1.9209 -0.33796,17.15322 -0.33796,17.15322 4.97168,33.0791 6.51447,5.21157 16.8584,3.5281 24.73828,2.71875 C 181.4829,349.88988 191.29248,345.45878 200,339 c 1.35351,-0.95926 2.70763,-1.91767 4.0625,-2.875 0.96938,-0.70125 1.93875,-1.4025 2.9375,-2.125 2.75582,5.48263 3.41809,9.65783 3.25,15.75 -0.011,1.18372 -0.011,1.18372 -0.0222,2.39136 -0.0679,4.45235 -0.42168,8.75684 -1.04028,13.17114 -0.40825,3.84581 -0.36009,4.41244 1.8125,7.875 2.9158,2.13519 2.9158,2.13519 6.5,1.6875 C 221,375 221,375 222.55859,376.46875 226,381.22627 226,381.22627 226,384 c 0.66,0.33 1.32,0.66 2,1 -0.44859,0.49758 -0.89719,0.99516 -1.35938,1.50781 -2.13905,3.24932 -2.93062,6.64785 -3.89062,10.36719 -4.50789,16.20582 -12.7473,31.20813 -26.75,41.125 -6.90976,3.89984 -14.15731,6.68535 -21.625,9.3125 -1.50627,0.53851 -1.50627,0.53851 -3.04297,1.08789 -2.44207,0.87217 -4.88601,1.73859 -7.33203,2.59961 0.21656,-1.18143 0.21656,-1.18143 0.4375,-2.38672 2.78588,-16.34771 1.75587,-29.47642 -5.35156,-44.53125 -2.74986,-2.7447 -4.69984,-3.00097 -8.51221,-3.22143 -4.82545,0.26136 -9.16412,1.73628 -13.69873,3.3269 -1.03608,0.35514 -2.07217,0.71027 -3.13965,1.07617 C 117.86791,410.9385 102.59117,419.01962 89,429 c -0.987422,0.71672 -1.974844,1.43344 -2.992187,2.17188 C 70.922748,442.30335 57.174853,454.68906 44,468 c -2.571103,-1.28555 -2.66504,-2.15242 -3.60547,-4.82422 -1.77787,-5.66744 -1.80929,-11.09145 -1.70703,-16.98828 0.0113,-1.06589 0.0226,-2.13179 0.0342,-3.22998 0.23318,-13.3546 2.925015,-25.54514 7.411133,-38.13721 C 47.259958,401.15455 46.991799,398.68382 46,395 c -2.439466,-2.25181 -4.171044,-2.00611 -7.5,-2.125 -3.7667,0.81697 -3.7667,0.81697 -5.6875,4.3125 C 30.27917,403.261 28.6487,409.64268 27,416 c -0.45439,1.51787 -0.45439,1.51787 -0.91797,3.06641 -2.18682,8.20316 -2.36482,16.16368 -2.39453,24.62109 -0.008,1.71063 -0.008,1.71063 -0.0166,3.45581 0.0782,9.30022 0.58598,18.37826 5.0166,26.73169 1.41286,2.66652 2.30678,4.44003 2.33203,7.46484 -1.55574,4.05924 -4.23957,7.04566 -7.01953,10.34766 -1.10556,1.33609 -2.20979,2.67328 -3.3125,4.01172 -0.49113,0.58612 -0.98227,1.17224 -1.48828,1.77612 C 16.70821,500.64235 16.61007,503.02275 17,507 c 1.98,2.475 1.98,2.475 4,5 -6.93,0 -13.86,0 -21,0 0,-41.58 0,-83.16 0,-126 1.65,1.65 3.3,3.3 5,5 4.14224,0.57991 5.48175,0.3455 9,-2 1.07141,-2.44078 1.07141,-2.44078 1.875,-5.36328 0.33951,-1.10449 0.67901,-2.20897 1.02881,-3.34692 0.36174,-1.18876 0.72348,-2.37752 1.09619,-3.6023 7.11162,-22.2264 17.75203,-45.46233 38,-58.6875 1.324071,-0.36841 2.656936,-0.70834 4,-1 -0.140024,0.65629 -0.280049,1.31259 -0.424316,1.98877 -3.698466,18.54465 -3.251777,36.77397 6.275879,53.40185 1.070181,1.76537 1.070181,1.76537 3.148437,2.60938 2.873062,0.50095 2.873062,0.50095 6,0 3.70652,-3.26245 6.369278,-6.82242 9.0625,-10.9375 C 94.591464,348.46246 119.88144,314 141,314 Z"
     style="fill:#f7c779"
     id="path4" />
  <path
     d="m 64,232 c 36.96,0 73.92,0 112,0 0.375,28.75 0.375,28.75 0.47803,37.81543 0.0352,2.36883 0.0711,4.73764 0.10791,7.10644 0.0114,1.23186 0.0227,2.46373 0.0344,3.73291 0.0201,1.17708 0.0401,2.35416 0.0608,3.5669 0.02,1.53222 0.02,1.53222 0.0404,3.0954 0.29243,2.81744 0.60543,4.39987 2.27847,6.68292 1.65,0.66 3.3,1.32 5,2 0.33,11.22 0.66,22.44 1,34 9.66608,-6.82318 9.66608,-6.82318 16.66016,-15.21484 C 203,313 203,313 205,312 c 2.8125,-0.375 2.8125,-0.375 6,0 7.91654,6.17876 13.03789,16.96151 14.59375,26.72656 C 226.73628,349.18583 228.0226,362.40952 223,372 c -1.97637,2.34458 -2.88034,2.96098 -5.875,3.9375 C 214,376 214,376 211.1875,374.1875 209,372 209,372 208,370 c 0.0925,-1.50423 0.25057,-3.00457 0.4375,-4.5 0.53145,-5.27951 0.71168,-10.51084 0.75,-15.8125 0.0128,-0.76441 0.0256,-1.52883 0.0388,-2.31641 C 209.23472,342.85004 208.71308,339.259 207,335 c -0.46148,0.36352 -0.92297,0.72703 -1.39844,1.10156 C 189.53675,348.48353 173.4147,354.1254 153,353 c -3.35197,-0.44985 -4.17374,-0.8646 -7,-3 -1.75199,-3.22192 -2.92927,-6.49999 -4,-10 -0.33,-0.99 -0.66,-1.98 -1,-3 -0.0821,-1.77314 -0.10746,-3.54921 -0.0977,-5.32422 0.003,-1.02803 0.006,-2.05605 0.01,-3.11523 0.008,-1.07186 0.0168,-2.14371 0.0254,-3.24805 0.004,-1.08346 0.009,-2.16691 0.0137,-3.2832 0.0118,-2.67649 0.0282,-5.35287 0.0488,-8.0293 -26.3201,11.72005 -44.747502,33.3623 -60.829346,56.64673 C 77.209769,374.89512 77.209769,374.89512 75,376 c -3.894874,0.51932 -5.455917,0.41454 -8.625,-2 -7.880532,-9.95436 -9.886446,-21.62443 -9.6875,-34.0625 -0.0032,-1.01127 -0.0065,-2.02254 -0.0098,-3.06445 C 56.723816,330.3671 57.474364,324.32349 59,318 c -21.13452,11.00756 -32.679193,35.46243 -39.832031,57.23047 -1.219451,3.93569 -2.368777,7.88014 -3.332031,11.88672 C 14.718263,389.63457 13.337005,390.59258 11,392 7.571813,392.42852 5.708467,392.4021 2.6875,390.6875 0.299689,388.29969 0.027818,386.31418 -0.265625,383 0.185003,357.65881 19.845073,328.26442 37.410156,311.22656 42.215037,307.09567 47.544329,303.60442 53.296875,300.93359 53.858906,300.62551 54.420937,300.31742 55,300 c 0.185625,-0.95906 0.185625,-0.95906 0.375,-1.9375 0.20625,-0.68063 0.4125,-1.36125 0.625,-2.0625 1.9832,-1.03292 3.983478,-2.03375 6,-3 1.041269,-3.12381 1.155523,-5.38518 1.205322,-8.6648 0.02018,-1.17719 0.04036,-2.35439 0.06116,-3.56726 0.01648,-1.23697 0.03295,-2.47395 0.04993,-3.74841 0.01865,-1.13715 0.0373,-2.27431 0.05652,-3.44592 0.06837,-4.25362 0.128473,-8.50738 0.189575,-12.76111 C 63.706875,251.30437 63.85125,241.79625 64,232 Z"
     style="fill:#055076"
     id="path5" />
  <path
     d="m 450.625,349.625 c 1.32439,-0.021 1.32439,-0.021 2.67554,-0.0425 5.85137,0.0426 11.43615,0.67942 16.69946,3.41748 2.02058,3.03088 2.71765,4.93841 2.64453,8.57422 -1.18688,4.46698 -4.39224,7.70685 -7.24609,11.2539 C 458.31857,382.19107 454.97202,391.35851 456,403 c 0.70739,3.64048 1.60407,7.2313 2.5769,10.80933 1.28613,4.87467 1.60429,9.14558 1.4231,14.19067 21.65279,-8.04684 21.65279,-8.04684 36.69531,-24.77734 C 498,401 498,401 500,400 c 7.103,-0.57282 7.103,-0.57282 10.22656,1.42187 2.69531,3.9183 2.36807,7.48709 2.27344,12.14063 -0.0121,0.96092 -0.0242,1.92183 -0.0366,2.91187 C 511.84236,440.03749 507.26364,464.64397 497,486 c -0.41508,0.90492 -0.83016,1.80984 -1.25781,2.74219 C 491.43371,497.43301 484.34206,506.77323 476,512 c -3.56669,0.38215 -6.05514,0.39784 -9.375,-1 -2.12056,-2.60991 -2.59975,-4.69792 -2.84766,-8.02344 0.39002,-3.46221 2.63171,-4.81743 5.22266,-6.97656 14.41947,-13.58154 23.0441,-39.72798 24.1206,-59.1792 0.004,-1.60743 -0.0508,-3.21488 -0.1206,-4.8208 -0.56807,0.28198 -1.13615,0.56396 -1.72144,0.85449 C 480.69249,438.08065 470.46238,443.03083 459,446 c -1.2923,0.41469 -2.58408,0.83102 -3.875,1.25 -3.62067,0.86896 -6.41901,1.23041 -10.125,0.75 -2.9375,-2.125 -2.9375,-2.125 -5,-5 -0.57991,-4.14224 -0.3455,-5.48176 2,-9 0.22516,-2.71365 0.33132,-5.28737 0.3125,-8 -10e-4,-0.77038 -0.003,-1.54075 -0.004,-2.33447 -0.0716,-4.27325 -0.44882,-7.95479 -1.80859,-12.04053 -4.03217,-12.73622 -2.39228,-26.79393 3.5,-38.625 1.27267,-2.05203 2.61484,-4.01993 4,-6 -10.21841,-1.10469 -20.15504,5.09347 -28,11 -9.30122,7.79828 -15.59979,17.6338 -21.76172,27.94922 -16.71449,27.72257 -46.71817,43.85734 -77.30078,51.92187 C 283.0532,466.9604 283.0532,466.9604 269,464 c -3.03678,-2.48687 -4.72934,-3.91737 -5.6875,-7.75 0.86056,-4.0681 2.78486,-6.48633 5.15625,-9.84766 C 273.52814,438.46479 273.61764,429.15017 274,420 c -0.79535,0.40348 -1.5907,0.80695 -2.41016,1.22266 -4.51885,2.28149 -9.05288,4.5321 -13.58984,6.77734 -1.09458,0.54173 -2.18915,1.08346 -3.31689,1.6416 -23.73585,11.72133 -47.68188,22.7774 -72.49561,32.0459 -1.09667,0.41032 -2.19334,0.82065 -3.32324,1.24341 -8.16359,2.97835 -15.92626,5.33828 -24.67676,5.44409 -1.07895,0.0284 -2.15789,0.0567 -3.26953,0.0859 -3.58176,-0.5658 -4.69025,-1.6672 -6.91797,-4.46094 -1.6297,-3.2594 -1.55288,-6.47838 -1,-10 1.07327,-2.41085 2.31274,-4.58792 3.71094,-6.82422 2.94123,-4.96444 3.56236,-8.82785 3.53906,-14.61328 0.005,-1.27746 0.0103,-2.55492 0.0156,-3.87109 -0.25739,-3.57692 -0.96986,-6.36457 -2.26563,-9.69141 -6.09522,0.49994 -10.84566,1.87183 -16.375,4.4375 -0.77674,0.35562 -1.55348,0.71124 -2.35376,1.07764 -18.98447,8.8468 -36.69601,19.88071 -51.97046,34.3247 -1.97624,1.85546 -3.99085,3.62856 -6.04297,5.39844 -11.03606,9.62306 -21.31091,20.17214 -30.25781,31.76172 -1.59111,2.02183 -3.18835,4.03859 -4.78979,6.05225 -1.08014,1.35877 -2.15599,2.72097 -3.22706,4.08691 -4.48095,5.66055 -4.48095,5.66055 -8.79565,6.23584 -3.1875,-0.375 -3.1875,-0.375 -6.0625,-2.5 -2.55585,-3.45791 -2.64477,-4.66539 -2.125,-8.875 1.79297,-3 1.79297,-3 4.1875,-6 0.61367,-0.78818 0.61367,-0.78818 1.23975,-1.59229 2.12282,-2.70628 4.35185,-5.27067 6.69775,-7.78271 2.18739,-2.46496 2.18739,-2.46496 1.64844,-5.38672 -1.0785,-4.51552 -2.84507,-8.64097 -4.61719,-12.92187 -5.26094,-15.08966 -3.71403,-36.16 0.84375,-51.31641 0.39356,-1.46536 0.78397,-2.93157 1.17188,-4.39844 0.41918,-1.53459 0.84103,-3.06846 1.26562,-4.60156 0.28943,-1.06082 0.28943,-1.06082 0.58472,-2.14307 1.32243,-4.5145 2.99478,-8.13101 5.97778,-11.85693 3.87978,-1.19921 6.03932,-1.33415 9.875,0 3.02123,2.84351 2.88754,4.90477 3.125,9 -0.65939,2.62366 -1.35723,4.93587 -2.3125,7.4375 -0.47193,1.32355 -0.94201,2.64776 -1.41016,3.97266 -0.42152,1.18464 -0.84304,2.36929 -1.27734,3.58984 -2.91183,9.49773 -3.20055,19.13421 -3.25,29 -0.0206,1.02867 -0.0412,2.05734 -0.0625,3.11719 -0.0332,6.52237 0.78899,11.85378 3.3125,17.88281 4.19519,-3.46559 8.11235,-7.06505 11.9375,-10.9375 4.20425,-4.23571 8.47107,-8.25146 13.0625,-12.0625 0.77489,-0.64558 0.77489,-0.64558 1.56543,-1.3042 20.68492,-17.14839 43.70498,-31.66427 69.30957,-40.1958 0.77255,-0.26772 1.5451,-0.53544 2.34106,-0.81128 5.25374,-1.66183 10.43575,-2.47552 15.78394,-0.68872 2.34445,2.41059 3.64217,4.93862 5,8 0.57041,1.25877 0.57041,1.25877 1.15234,2.54297 2.77607,6.53017 3.99055,12.46293 4.03516,19.58203 0.0142,1.0132 0.0284,2.02641 0.043,3.07031 -0.32356,5.34152 -1.27922,10.54344 -2.23047,15.80469 3.83068,-1.41816 7.65273,-2.8574 11.46851,-4.31519 1.29443,-0.49129 2.59094,-0.97713 3.88964,-1.45703 17.10686,-6.33171 28.65701,-16.67839 36.64185,-33.22778 2.78684,-6.80996 5.12485,-13.8037 7.09766,-20.89063 1.35385,-4.66523 1.35385,-4.66523 3.90234,-6.10937 4.28535,-0.47615 6.72967,-0.69868 10.5,1.375 2.78134,4.86734 2.35946,9.41883 0.92578,14.76709 -2.13929,7.07532 -4.66134,14.00493 -7.42578,20.85791 0.94206,-0.4585 1.88413,-0.91701 2.85474,-1.3894 3.54602,-1.72539 7.09295,-3.4489 10.64013,-5.17188 1.52564,-0.74136 3.05103,-1.48321 4.57617,-2.22559 7.05767,-3.43502 14.11696,-6.8695 21.22584,-10.19751 0.81436,-0.38252 1.62873,-0.76505 2.46777,-1.15918 3.71866,-1.42475 6.29372,-1.4788 10.23535,-0.85644 2.63345,1.59393 3.64081,2.88899 4.5874,5.81689 1.46332,6.24741 1.7133,12.22013 1.6626,18.62061 0.008,0.9726 0.0155,1.94519 0.0234,2.94727 -0.0172,6.42596 -0.76992,12.36912 -2.27344,18.61523 35.04667,-6.28504 68.72305,-14.85595 92,-44 2.0163,-2.97213 3.84944,-6.04044 5.6875,-9.125 10.86427,-17.60879 23.82085,-31.81774 43.3125,-39.875 0.81082,-0.33902 1.62164,-0.67805 2.45703,-1.02734 6.28672,-2.14832 12.58762,-2.27549 19.16801,-2.34762 z"
     style="fill:#083241"
     id="path6" />
  <path
     d="M 420.30469,27.429687 C 424.54815,29.901961 428.25474,32.843167 432,36 c 3.22315,2.148764 4.1715,2.255708 7.89453,2.308593 1.43376,0.0377 1.43376,0.0377 2.89649,0.07617 2.00254,0.03495 4.00515,0.06625 6.00781,0.09375 5.43113,0.149548 9.54468,0.388937 14.20117,3.521485 1.3544,2.708793 1.06502,5.009332 1,7.999999 4.455,0.99 4.455,0.99 9,2 0.33,-0.989999 0.66,-1.98 1,-3 5.6205,-2.999814 11.7375,-2.329561 17.9375,-2.3125 1.16725,-0.01611 2.33449,-0.03223 3.53711,-0.04883 10.81418,-0.0062 10.81418,-0.0062 15.52539,3.361328 1.86912,3.73823 1.60977,8.090809 0.35889,12.007325 -0.89429,2.028976 -1.87358,3.976143 -2.92139,5.930175 -0.36061,0.696578 -0.72123,1.393155 -1.09277,2.11084 -2.51722,4.735495 -5.34906,8.995438 -8.80176,13.111817 -2.0804,2.480682 -3.79746,5.116848 -5.54297,7.839843 0.80438,0.09281 0.80438,0.09281 1.625,0.1875 3.90493,1.335896 7.5067,4.075898 9.375,7.8125 0.83428,6.592155 -0.2341,11.549085 -4,17.000005 -12.74639,16.22504 -37.1274,33.11203 -58.19531,36.33594 -3.45565,0.07 -5.44725,-0.0857 -8.30469,-2.08594 C 432,148 432,148 432,144 c -5.28,0 -10.56,0 -16,0 0,-5 0,-5 1.896,-7.44775 0.86705,-0.83451 1.73411,-1.66902 2.62744,-2.52881 0.93844,-0.91781 1.87687,-1.83562 2.84375,-2.78125 1.00209,-0.95627 2.0047,-1.91199 3.00781,-2.86719 1.94959,-1.88367 3.89259,-3.77395 5.83594,-5.66406 0.86931,-0.83225 1.73862,-1.6645 2.63428,-2.52198 2.6913,-2.73398 4.09896,-4.29578 4.34228,-8.18896 -0.062,-3.05075 -0.062,-3.05075 -1.1875,-6 -3.07162,-0.84612 -5.81459,-1.28688 -9,-1 -3.12038,1.91428 -5.44822,4.40154 -8,7 -1.6516,1.35195 -3.31507,2.68982 -5,4 -0.009,-0.67579 -0.0187,-1.35158 -0.0283,-2.04785 -0.0537,-3.06812 -0.13739,-6.13472 -0.22168,-9.20215 -0.0142,-1.06348 -0.0284,-2.12695 -0.043,-3.22266 -0.0322,-1.0248 -0.0644,-2.049606 -0.0976,-3.105466 -0.0314,-1.41394 -0.0314,-1.41394 -0.0635,-2.856445 -0.70031,-3.291105 -1.93035,-4.506027 -4.5459,-6.56543 -3.43636,-0.572727 -5.18514,-0.512016 -8.14941,1.350586 -2.94491,4.216111 -2.45397,8.515451 -2.45996,13.540035 -0.0165,1.05976 -0.0331,2.11951 -0.0501,3.21137 -0.0486,3.38273 -0.0699,6.76501 -0.0905,10.14801 -0.0281,2.29429 -0.0581,4.58857 -0.0898,6.88281 -0.074,5.62232 -0.12556,11.24451 -0.16016,16.86719 -2.71465,-3.32031 -5.21743,-6.70137 -7.60156,-10.26562 -0.65485,-0.97196 -1.30969,-1.94391 -1.98438,-2.94531 -1.36903,-2.04044 -2.73619,-4.08212 -4.10156,-6.12501 -0.9784,-1.45019 -0.9784,-1.45019 -1.97656,-2.92969 -0.59249,-0.88461 -1.18497,-1.76923 -1.79541,-2.68066 -1.38145,-2.16048 -1.38145,-2.16048 -3.54053,-3.05371 -3.58176,-0.38932 -5.36282,-0.43597 -8.375,1.625 -2.10071,3.07028 -1.94973,4.70157 -1.625,8.375 1.14395,2.56058 1.14395,2.56058 2.84375,4.92578 0.87979,1.31775 0.87979,1.31775 1.77734,2.66211 0.62004,0.89912 1.24008,1.79825 1.87891,2.72461 1.22027,1.80757 2.4391,3.61611 3.65625,5.42578 0.54463,0.79447 1.08926,1.58893 1.65039,2.40747 C 382.00001,143 382.00001,143 382.00001,144 c -4.62,0 -9.24,0 -14,0 -0.33,1.98 -0.66,3.96 -1,6 -3.76184,2.5079 -6.64974,2.7149 -11,2 -9.82425,-3.63992 -18.37391,-11.6616 -23.16016,-20.85937 -3.0438,-7.75817 -2.42051,-16.34568 0.16016,-24.14063 1.96691,-4.26048 4.07462,-8.024595 7.3125,-11.437501 2.24551,-3.409853 1.85832,-5.776188 1.72266,-9.769531 -0.13897,-11.040017 3.38033,-22.525123 10.8164,-30.871094 3.67077,-2.990992 7.26895,-4.316866 11.77344,-5.671875 5.673,-1.87022 7.2056,-4.48886 9.86719,-9.652343 9.49755,-16.362378 29.67168,-19.864539 45.81249,-12.167969 z"
     style="fill:#fd9801"
     id="path7" />
  <path
     d="m 127.0625,-0.3125 c 0.8366,-0.0373828 1.6732,-0.0747656 2.53516,-0.11328125 C 132,0 132,0 134.26172,1.4726562 136.77656,5.1290706 136.6707,8.4029319 136.75,12.75 c 0.0297,0.792773 0.0593,1.585547 0.0898,2.402344 0.0704,1.948677 0.11759,3.898171 0.16016,5.847656 0.88043,-0.277148 1.76086,-0.554297 2.66797,-0.839844 1.16144,-0.362226 2.32289,-0.724453 3.51953,-1.097656 1.14855,-0.359648 2.29711,-0.719297 3.48047,-1.089844 5.73157,-1.673107 10.9529,-2.208654 16.89453,-2.285156 0.75475,-0.029 1.50949,-0.05801 2.28711,-0.08789 3.59054,-0.04112 5.69156,0.05936 8.61523,2.232422 4.83211,6.82397 3.32089,18.237004 2.53516,26.167969 -1.6037,8.232056 -4.13475,16.539347 -8,24 0.67805,0.02578 1.35609,0.05156 2.05469,0.07813 6.80199,0.414526 12.95175,1.520444 18.94531,4.921875 2.53955,3.809328 2.67288,6.601464 2,11 -5.67728,18.721804 -19.96514,34.704494 -37,44.000004 -12.12899,5.86186 -25.38354,10.02361 -39,8 -2.41406,-1.83594 -2.41406,-1.83594 -4,-4 0,-0.99 0,-1.98 0,-3 -0.98742,-0.13277 -1.97484,-0.26555 -2.99219,-0.40234 -1.28133,-0.17661 -2.56265,-0.35321 -3.88281,-0.53516 -1.27617,-0.17402 -2.55234,-0.34805 -3.86719,-0.52734 C 98,127.00001 98,127.00001 96,126.00001 c -0.743044,-3.8643 -0.830158,-7.13997 0,-11 3.094,-4.44204 6.94927,-7.94956 10.9375,-11.5625 1.56415,-1.46938 3.12065,-2.94656 4.6769,-4.424305 1.40573,-1.326327 2.82873,-2.634276 4.25254,-3.941178 2.63639,-2.560951 3.10152,-3.330875 3.25806,-7.009521 0.0151,-3.104481 0.0151,-3.104481 -1.125,-6.0625 -3.07162,-0.846117 -5.81459,-1.286885 -9,-1 -3.12038,1.914275 -5.44822,4.40154 -8,7 -1.651599,1.351952 -3.31507,2.689822 -5,4 C 95.9907,91.324215 95.98131,90.648424 95.97168,89.952154 95.91793,86.884035 95.83429,83.817432 95.75,80.750006 95.73582,79.686529 95.72164,78.623053 95.70703,77.52735 95.6748,76.502545 95.64258,75.47774 95.60937,74.421881 c -0.02095,-0.942627 -0.0419,-1.885254 -0.06348,-2.856445 -0.700315,-3.291106 -1.930349,-4.506027 -4.545898,-6.56543 -3.443543,-0.573924 -5.186814,-0.516139 -8.149414,1.364258 -2.920102,4.159026 -2.453905,8.342226 -2.459961,13.307617 -0.01654,1.037554 -0.03307,2.075109 -0.05011,3.144104 -0.04856,3.3114 -0.06987,6.622341 -0.09052,9.934021 -0.02815,2.246117 -0.05808,4.492212 -0.08984,6.738281 -0.07396,5.503823 -0.125555,11.007523 -0.160156,16.511723 -4.843792,-4.67333 -8.4514,-9.68294 -12.1875,-15.25 -0.628418,-0.903634 -1.256836,-1.80727 -1.904297,-2.738285 -6.980376,-10.377244 -8.253801,-20.357495 -6.33789,-32.679688 1.196044,-5.973926 2.691686,-10.887143 5.429687,-16.332031 -0.270346,-2.437173 -0.270346,-2.437173 -1,-5 C 63.373838,36.36094 65.310398,31.655538 69.816397,25.531256 82.454788,10.880675 107.81662,0.25268032 127.0625,-0.3125 Z"
     style="fill:#fd9801"
     id="path8" />
  <path
     d="m 75,296 c 3,2 3,2 5,5 -0.377022,5.54929 -1.574323,10.76322 -3,16.125 -2.144353,8.15786 -3.196677,15.84207 -3.5625,24.25 -0.06477,1.39025 -0.06477,1.39025 -0.130859,2.80859 C 73.201238,346.4556 73.099114,348.72771 73,351 c 0.66,0 1.32,0 2,0 0.256523,-0.56461 0.513047,-1.12922 0.777344,-1.71094 C 80.217617,340.97596 87.628037,333.86211 94,327 c 0.538828,-0.59297 1.077656,-1.18594 1.632812,-1.79688 13.677368,-14.4334 33.731448,-28.77063 54.117188,-29.51562 3.81264,0.0867 6.22621,0.85567 9.25,3.3125 1.28278,2.56556 0.93634,4.03929 0.625,6.875 -0.0902,0.86367 -0.18047,1.72734 -0.27344,2.61719 C 159,311 159,311 158.48413,312.83154 c -0.5619,2.5168 -0.59678,4.79322 -0.58179,7.37158 0.003,0.97969 0.006,1.95938 0.01,2.96875 0.008,1.01579 0.0168,2.03157 0.0254,3.07813 0.007,1.54687 0.007,1.54687 0.0137,3.125 0.0118,2.54173 0.0282,5.08333 0.0488,7.625 15.39375,-1.40899 29.55643,-5.35671 40.17188,-17.48047 1.19541,-1.55354 2.3625,-3.12966 3.48828,-4.73437 C 203,313 203,313 205,312 c 2.8125,-0.375 2.8125,-0.375 6,0 7.91654,6.17876 13.03789,16.96151 14.59375,26.72656 C 226.73628,349.18583 228.0226,362.40952 223,372 c -1.97637,2.34458 -2.88034,2.96098 -5.875,3.9375 C 214,376 214,376 211.1875,374.1875 209,372 209,372 208,370 c 0.0925,-1.50423 0.25057,-3.00457 0.4375,-4.5 0.53145,-5.2795 0.71168,-10.51084 0.75,-15.8125 0.0128,-0.76441 0.0256,-1.52883 0.0388,-2.31641 C 209.23472,342.85004 208.71308,339.259 207,335 c -0.46148,0.36352 -0.92297,0.72703 -1.39844,1.10156 C 189.53675,348.48353 173.4147,354.1254 153,353 c -3.35197,-0.44986 -4.17374,-0.8646 -7,-3 -1.75199,-3.22192 -2.92927,-6.49999 -4,-10 -0.33,-0.99 -0.66,-1.98 -1,-3 -0.0821,-1.77314 -0.10746,-3.54921 -0.0977,-5.32422 0.003,-1.02803 0.006,-2.05605 0.01,-3.11523 0.008,-1.07186 0.0168,-2.14371 0.0254,-3.24805 0.004,-1.08346 0.009,-2.16691 0.0137,-3.2832 0.0118,-2.67649 0.0282,-5.35287 0.0488,-8.0293 -26.3201,11.72005 -44.747502,33.3623 -60.829346,56.64673 C 77.209769,374.89512 77.209769,374.89512 75,376 c -3.894874,0.51932 -5.455917,0.41454 -8.625,-2 -7.880532,-9.95436 -9.886445,-21.62443 -9.6875,-34.0625 -0.0032,-1.01127 -0.0064,-2.02254 -0.0098,-3.06445 C 56.723816,330.3671 57.474364,324.32349 59,318 c -21.13452,11.00756 -32.679193,35.46243 -39.832031,57.23047 -1.219451,3.93569 -2.368777,7.88014 -3.332031,11.88672 C 14.718263,389.63457 13.337005,390.59258 11,392 7.571813,392.42852 5.708467,392.4021 2.6875,390.6875 0.299689,388.29969 0.027818,386.31418 -0.265625,383 0.169854,358.5107 18.697771,330.78541 34.9375,313.625 45.001337,303.95306 60.477205,294.47128 75,296 Z"
     style="fill:#083242"
     id="path9" />
  <path
     d="m 494,207 c -0.528,14.70476 -2.20044,32.17143 -11.63672,44.0625 -1.90961,2.71395 -1.63948,4.69216 -1.36328,7.9375 0.33,0.99 0.66,1.98 1,3 3.02754,0.66619 5.89457,1.13547 9,1 3.00179,-2.16745 3.00179,-2.16745 5,-5 2,-2 2,-2 5.125,-2.125 0.94875,0.0412 1.8975,0.0825 2.875,0.125 -0.40863,11.03293 -7.21438,19.37338 -14.87326,26.82178 -6.12192,5.31795 -10.72646,6.20024 -18.69705,6.11572 -1.69088,0.0226 -1.69088,0.0226 -3.41591,0.0457 -3.71356,0.0399 -7.42506,0.0292 -11.13878,0.0168 -2.59417,0.0159 -5.18833,0.0341 -7.78247,0.0544 C 418.72865,289.23943 389.35525,288.63667 360,288 c 0,-7.92 0,-15.84 0,-24 1.98,-0.99 3.96,-1.98 6,-3 2.09846,-1.49235 4.15967,-3.038 6.1875,-4.625 0.56388,-0.44094 1.12777,-0.88188 1.70874,-1.33618 1.70668,-1.33957 3.40611,-2.68784 5.10376,-4.03882 0.94617,-0.74895 1.89234,-1.49789 2.86719,-2.26953 6.00757,-4.83218 11.71203,-9.93012 17.35547,-15.17578 2.26012,-2.07893 4.55318,-4.07894 6.90234,-6.05469 4.22318,-3.6489 7.87617,-7.78157 11.57812,-11.94922 2.03513,-2.2601 4.1246,-4.42334 6.29688,-6.55078 2.74512,4.00375 2.25848,8.28635 2.1875,12.9375 -9.7e-4,1.19786 -9.7e-4,1.19786 -0.002,2.41992 -0.0299,4.01997 -0.26,7.71275 -1.1855,11.64258 -0.46698,5.02239 -0.46698,5.02239 1.625,9.4375 3.15564,2.07608 4.61437,1.97164 8.375,1.5625 2.94478,-1.17814 5.63742,-2.71827 8.375,-4.3125 0.78657,-0.44859 1.57314,-0.89719 2.38355,-1.35938 15.85063,-9.18748 31.00482,-20.119 44.31567,-32.71093 C 492,207 492,207 494,207 Z"
     style="fill:#fc9801"
     id="path10" />
  <path
     d="m 176,160 c 2.64,0 5.28,0 8,0 0.35062,0.96938 0.70125,1.93875 1.0625,2.9375 1.67656,3.39802 1.67656,3.39802 5.375,4.0625 4.18047,0.061 4.18047,0.061 7.5625,-2 1.28255,-2.5377 1.28255,-2.5377 2,-5 2.64,0 5.28,0 8,0 0.45375,0.96938 0.9075,1.93875 1.375,2.9375 1.28286,3.1333 1.28286,3.1333 3.625,4.0625 2.55106,0.15644 5.07919,0.25821 7.63281,0.31641 0.75184,0.0208 1.50367,0.0416 2.27829,0.063 2.40454,0.0654 4.80919,0.12436 7.2139,0.18312 1.62892,0.0432 3.25782,0.0868 4.88672,0.13086 3.99598,0.10714 7.99207,0.20842 11.98828,0.30664 -2.35353,2.42918 -4.65556,4.60534 -7.44141,6.52344 -0.65605,0.45624 -1.3121,0.91249 -1.98803,1.38257 -0.70391,0.48476 -1.40782,0.96953 -2.13306,1.46899 -6.35946,4.43256 -12.64629,8.948 -18.875,13.5625 C 207.42827,197.69925 198.23492,204.37645 189,211 c -0.98596,0.84503 -1.97191,1.69006 -2.98775,2.5607 -4.6101,3.26767 -8.85733,3.11123 -14.3538,3.00693 -1.0154,7.3e-4 -2.03079,0.001 -3.07695,0.002 -3.33892,-0.004 -6.67642,-0.0423 -10.01509,-0.0816 -2.3217,-0.009 -4.6434,-0.0164 -6.96511,-0.0214 -6.09774,-0.019 -12.19489,-0.0681 -18.2924,-0.12352 -6.22723,-0.0512 -12.45456,-0.074 -18.68195,-0.0992 C 102.41771,216.19059 90.208903,216.1053 78,216 c 0.946504,-1.11787 1.894965,-2.23409 2.844238,-3.34961 0.791943,-0.93266 0.791943,-0.93266 1.599884,-1.88416 1.998906,-2.26916 4.160281,-4.27108 6.430878,-6.26623 0.863672,-0.76313 1.727344,-1.52625 2.617188,-2.3125 C 92.319766,201.46562 93.147344,200.74375 94,200 c 0.683203,-0.59813 1.366406,-1.19625 2.070313,-1.8125 1.287934,-1.12629 2.577001,-2.25129 3.867187,-3.375 2.37214,-2.08461 4.71806,-4.19679 7.0625,-6.3125 7.18272,-6.48197 7.18272,-6.48197 10.87256,-9.56421 2.18667,-1.8946 2.18667,-1.8946 3.98926,-4.21338 4.56639,-5.1447 8.37257,-7.22854 15.12738,-7.67941 4.467,-0.12101 8.9188,-0.0761 13.3858,0.0195 2.74495,0.0209 5.4895,0.0293 8.23453,0.0292 1.69848,0.004 3.39701,0.0221 5.09515,0.0566 5.49137,0.15132 5.49137,0.15132 10.29532,-2.14821 1.28255,-2.5377 1.28255,-2.5377 2,-5 z"
     style="fill:#136eb3"
     id="path11" />
  <path
     d="m 127.0625,-0.3125 c 1.2549,-0.0560742 1.2549,-0.0560742 2.53516,-0.11328125 C 132,0 132,0 134.26172,1.4726562 136.77656,5.1290706 136.6707,8.4029319 136.75,12.75 c 0.0297,0.792773 0.0593,1.585547 0.0898,2.402344 0.0704,1.948677 0.11759,3.898171 0.16016,5.847656 0.88043,-0.277148 1.76086,-0.554297 2.66797,-0.839844 1.16144,-0.362226 2.32289,-0.724453 3.51953,-1.097656 1.14855,-0.359648 2.29711,-0.719297 3.48047,-1.089844 5.73157,-1.673107 10.9529,-2.208654 16.89453,-2.285156 0.75475,-0.029 1.50949,-0.05801 2.28711,-0.08789 3.59054,-0.04112 5.69156,0.05936 8.61523,2.232422 4.83211,6.82397 3.32089,18.237004 2.53516,26.167969 -1.6037,8.232056 -4.13475,16.539347 -8,24 0.67805,0.02578 1.35609,0.05156 2.05469,0.07813 6.80199,0.414526 12.95175,1.520444 18.94531,4.921875 2.53955,3.809328 2.67288,6.601464 2,11 -5.67728,18.721804 -19.96514,34.704494 -37,44.000004 -12.12899,5.86186 -25.38354,10.02361 -39,8 -3.21462,-2.44396 -3.90105,-3.39533 -4.5625,-7.4375 0.7159,-4.53401 2.02418,-5.70993 5.5625,-8.5625 3.3125,-0.75 3.3125,-0.75 7,-1 15.07669,-1.44487 29.81232,-8.68036 40,-20.000004 3.28585,-4.482552 6.16328,-9.225197 9,-14 -2.6256,0.308014 -5.2504,0.621202 -7.875,0.9375 -0.74637,0.08701 -1.49273,0.174023 -2.26172,0.263672 -4.0586,0.432089 -4.0586,0.432089 -7.86328,1.798828 -4.05264,0.540351 -5.5373,0.341994 -8.875,-2.125 -2.56285,-3.467389 -2.59993,-4.651698 -2.125,-8.875 1.57422,-3.191406 1.57422,-3.191406 3.6875,-6.5625 7.08088,-11.795749 10.45233,-24.095391 13.3125,-37.4375 -11.38942,2.021087 -19.61986,3.947339 -27.5,12.8125 -2.5,2.1875 -2.5,2.1875 -5.5625,2.6875 -3.21626,-0.547448 -4.64507,-1.207569 -6.9375,-3.5 -0.99456,-2.983677 -1.1956,-5.200419 -1.31641,-8.324219 -0.0419,-1.028027 -0.0838,-2.056054 -0.12695,-3.115234 -0.0393,-1.071862 -0.0786,-2.143717 -0.11914,-3.248053 -0.0432,-1.083457 -0.0864,-2.166914 -0.13086,-3.283203 C 119.20053,24.352992 119.09848,21.676595 119,19 106.54364,22.242066 88.638881,27.564486 81.625,39.300781 80.78858,40.861602 79.988474,42.442827 79.238281,44.046875 77.732155,46.422469 76.645443,47.095366 74,48 71.120507,48.114093 68.871332,47.602053 66,47 63.507575,43.261362 63.366102,40.329061 64,36 68.632542,23.009778 80.311787,15.423471 92.25,9.75 103.00411,4.7974029 115.11562,0.03833584 127.0625,-0.3125 Z"
     style="fill:#073141"
     id="path12" />
  <path
     d="M 420.30469,27.429687 C 424.54815,29.901961 428.25474,32.843167 432,36 c 3.22315,2.148764 4.1715,2.255708 7.89453,2.308593 1.43376,0.0377 1.43376,0.0377 2.89649,0.07617 2.00254,0.03495 4.00515,0.06625 6.00781,0.09375 5.43113,0.149548 9.54468,0.388937 14.20117,3.521485 1.54587,3.091737 1.2936,5.594295 1,8.999999 -1.86708,2.364975 -3.32061,3.660308 -6,5 -4.63715,0.437901 -9.28284,0.511083 -13.9375,0.625 -1.28197,0.0709 -2.56394,0.141797 -3.88476,0.214844 -8.90793,0.172619 -13.48081,-1.505654 -19.97144,-7.655027 -0.72808,-0.720989 -1.45616,-1.441978 -2.2063,-2.184815 -5.65042,-4.372053 -10.68505,-6.455115 -17.84765,-6.335937 -3.16688,0.494285 -4.89861,2.150491 -7.15235,4.335937 -0.66,0 -1.32,0 -2,0 -0.2591,0.52336 -0.5182,1.046719 -0.78515,1.585938 -1.52373,3.027847 -3.07711,6.037639 -4.65235,9.039062 -0.59683,1.147266 -1.19367,2.294532 -1.80859,3.476563 C 382,61.999999 382,61.999999 379,63.999999 c -2.05078,0.273438 -2.05078,0.273438 -4.3125,0.375 -4.58269,0.468685 -7.25909,1.356057 -10.6875,4.625 -4.42588,6.30102 -4.00217,12.491487 -3.625,19.8125 0.38889,8.423989 -1.12833,13.113411 -6.73096,19.405521 -1.19884,1.27573 -2.41983,2.53057 -3.64404,3.78198 -1.90419,3.80839 -1.71453,7.87025 -1,12 3.32173,6.1077 8.8813,9.47867 14.86328,12.67578 C 366,138 366,138 368,141 c 0.41858,3.83694 0.54644,6.11203 -1.5,9.4375 -3.54544,2.21591 -6.50551,2.35714 -10.5,1.5625 -9.82636,-3.68267 -18.36112,-11.63702 -23.16015,-20.85937 C 329.79604,123.38246 330.41933,114.79495 333,107 c 1.96691,-4.26048 4.07462,-8.024595 7.3125,-11.437501 2.24552,-3.409853 1.85833,-5.776188 1.72266,-9.769531 -0.13897,-11.040017 3.38033,-22.525123 10.8164,-30.871094 3.67077,-2.990992 7.26896,-4.316866 11.77344,-5.671875 5.67301,-1.87022 7.2056,-4.48886 9.86719,-9.652343 9.49756,-16.362378 29.67169,-19.864539 45.8125,-12.167969 z"
     style="fill:#073141"
     id="path13" />
  <path
     d="m 491.8125,46.75 c 1.17627,-0.02063 2.35254,-0.04125 3.56445,-0.0625 C 506.3242,46.637993 506.3242,46.637993 511,50 c 1.86911,3.73823 1.60977,8.090809 0.35889,12.007324 -0.89429,2.028976 -1.87358,3.976143 -2.92139,5.930176 -0.36062,0.696577 -0.72123,1.393154 -1.09277,2.11084 -2.51722,4.735495 -5.34906,8.995437 -8.80176,13.111816 C 496.46257,85.640839 494.74551,88.277005 493,91 c 0.53625,0.06188 1.0725,0.12375 1.625,0.1875 3.90493,1.335896 7.5067,4.075897 9.375,7.8125 0.83428,6.59215 -0.2341,11.54909 -4,17 -12.74639,16.22504 -37.12741,33.11202 -58.19531,36.33594 -3.33006,0.0674 -5.46166,-0.12154 -8.30469,-1.89844 -2.11007,-3.42886 -2.12491,-5.4797 -1.5,-9.4375 3.88019,-4.86552 8.18198,-6.60892 13.8125,-8.75 14.86082,-5.97011 31.40249,-13.26125 40.1875,-27.25 -1.16918,-0.0142 -2.33836,-0.0284 -3.54297,-0.043 -1.54822,-0.0469 -3.09639,-0.0952 -4.64453,-0.14453 -0.76893,-0.006 -1.53785,-0.0116 -2.33008,-0.0176 -4.25988,-0.16454 -6.03146,-0.44106 -9.49414,-3.1582 C 464,99 464,99 463.375,96 464.50106,90.594887 469.64377,87.405038 473.65747,83.850586 480.10819,78.099274 485.26082,72.273417 490,65 489.11957,64.98582 488.23914,64.97164 487.33203,64.95703 477.88725,64.569177 477.88725,64.569177 473.6875,61.875 471.5426,58.220725 471.31738,56.171594 472,52 c 5.02518,-6.58472 12.26857,-5.217254 19.8125,-5.25 z"
     style="fill:#073141"
     id="path14" />
  <path
     d="m 237,108 c -0.0464,0.82242 -0.0928,1.64484 -0.14063,2.49219 -0.28993,8.96739 0.81279,15.68818 5.95313,23.13281 3.92592,2.46772 8.22536,1.56087 12.625,0.71094 13.0908,-3.53107 25.13297,-8.25811 36.95312,-14.91797 C 295,118 295,118 298,117 c -0.52126,8.2098 -2.48255,14.43361 -7.25,21.1875 -2.1402,3.4396 -2.54576,4.83372 -1.75,8.8125 3.02069,5.41162 7.27648,10.42494 13,13 3.97538,0.95269 7.93873,1.55319 12,2 0.29342,5.67276 0.006,8.99067 -3,14 -2.91876,-0.59675 -4.9621,-1.44789 -7.39844,-3.15234 -0.63784,-0.44231 -1.27569,-0.88462 -1.93286,-1.34034 -1.01163,-0.71518 -1.01163,-0.71518 -2.0437,-1.44482 -0.69956,-0.4871 -1.39912,-0.97421 -2.11987,-1.47607 -3.54157,-2.47339 -7.05921,-4.97885 -10.56372,-7.5044 -0.6331,-0.45576 -1.26619,-0.91153 -1.91846,-1.3811 -1.20066,-0.86736 -2.39838,-1.73879 -3.59277,-2.61475 -4.60217,-3.33873 -7.67427,-4.21111 -13.30689,-4.26318 -1.81219,-0.0192 -1.81219,-0.0192 -3.66099,-0.0389 -1.95941,-0.0111 -1.95941,-0.0111 -3.95839,-0.0224 -0.66525,-0.004 -1.33049,-0.008 -2.01589,-0.0123 -3.51887,-0.0208 -7.0377,-0.0352 -10.55662,-0.0445 -3.63297,-0.0111 -7.26532,-0.0455 -10.89807,-0.0852 -2.79586,-0.0261 -5.59157,-0.0345 -8.38753,-0.0381 -1.98981,-0.007 -3.97951,-0.0337 -5.96915,-0.0604 -1.21128,0.003 -2.42256,0.006 -3.67055,0.009 -1.06572,-0.006 -2.13145,-0.0117 -3.22947,-0.0178 -3.48032,0.61132 -4.62597,1.73663 -6.77663,4.48771 -0.33,0.99 -0.66,1.98 -1,3 -2.64,0 -5.28,0 -8,0 3.06448,-18.64227 12.85741,-36.46667 28,-48 5.96034,-4 5.96034,-4 9,-4 z"
     style="fill:#ef6422"
     id="path15" />
  <path
     d="m 293.40625,247.40625 c 0.80232,-4e-5 1.60464,-8e-5 2.43127,-1.2e-4 1.69112,0.005 3.38224,0.0229 5.07312,0.0519 2.58135,0.0419 5.16008,0.0411 7.7417,0.0342 1.64716,0.0105 3.2943,0.0234 4.94141,0.0391 1.15176,3e-4 1.15176,3e-4 2.32678,6.1e-4 4.51172,0.0991 7.4966,0.66162 11.07947,3.46814 1.16044,2.32087 1.13851,3.69414 1.16113,6.27856 0.01,0.88465 0.0192,1.76929 0.0291,2.68074 0.004,0.95832 0.008,1.91663 0.0129,2.90398 0.006,0.98413 0.0114,1.96827 0.0173,2.98222 0.01,2.08559 0.016,4.17119 0.0198,6.2568 0.01,3.18687 0.0407,6.37309 0.0723,9.55981 0.007,2.02539 0.0118,4.05078 0.0156,6.07617 0.0124,0.95224 0.0247,1.90448 0.0374,2.88558 -0.0286,8.53049 -0.0286,8.53049 -3.36554,12.37614 -3.76969,1.25656 -7.31717,1.18175 -11.24609,1.20312 -1.21128,0.009 -1.21128,0.009 -2.44704,0.0173 -1.70717,0.009 -3.41437,0.016 -5.12156,0.0198 -2.60962,0.01 -5.21845,0.0408 -7.82789,0.0723 -1.6595,0.007 -3.319,0.0118 -4.97851,0.0156 -0.77927,0.0123 -1.55855,0.0247 -2.36144,0.0374 -3.24024,-0.0133 -5.60131,-0.14015 -8.47865,-1.69855 -2.55317,-2.76584 -2.67224,-5.46397 -2.73169,-9.05908 -0.0161,-0.88457 -0.0321,-1.76914 -0.0487,-2.68052 -0.0446,-4.03503 -0.0855,-8.06991 -0.10855,-12.10513 -0.0166,-2.12804 -0.0439,-4.25603 -0.082,-6.38379 -0.0548,-3.07093 -0.0766,-6.14056 -0.0913,-9.21191 -0.0227,-0.94911 -0.0453,-1.89821 -0.0687,-2.87607 0.014,-4.37652 0.17844,-6.71118 2.59946,-10.45255 3.83198,-2.43025 6.99895,-2.58566 11.39891,-2.49171 z"
     style="fill:#063142"
     id="path16" />
  <path
     d="m 229.40625,247.40625 c 0.80232,-4e-5 1.60464,-8e-5 2.43127,-1.2e-4 1.69112,0.005 3.38224,0.0229 5.07312,0.0519 2.58135,0.0419 5.16008,0.0411 7.7417,0.0342 1.64716,0.0105 3.2943,0.0234 4.94141,0.0391 1.15176,3e-4 1.15176,3e-4 2.32678,6.1e-4 4.51172,0.0991 7.4966,0.66162 11.07947,3.46814 1.16044,2.32087 1.13851,3.69414 1.16113,6.27856 0.01,0.88465 0.0192,1.76929 0.0291,2.68074 0.004,0.95832 0.008,1.91663 0.0129,2.90398 0.006,0.98413 0.0114,1.96827 0.0173,2.98222 0.01,2.08559 0.016,4.17119 0.0198,6.2568 0.01,3.18687 0.0407,6.37309 0.0723,9.55981 0.007,2.02539 0.0118,4.05078 0.0156,6.07617 0.0124,0.95224 0.0247,1.90448 0.0374,2.88558 -0.0286,8.53049 -0.0286,8.53049 -3.36554,12.37614 -3.76969,1.25656 -7.31717,1.18175 -11.24609,1.20312 -1.21128,0.009 -1.21128,0.009 -2.44704,0.0173 -1.70717,0.009 -3.41437,0.016 -5.12156,0.0198 -2.60962,0.01 -5.21845,0.0408 -7.82789,0.0723 -1.6595,0.007 -3.319,0.0118 -4.97851,0.0156 -0.77927,0.0123 -1.55855,0.0247 -2.36144,0.0374 -3.24024,-0.0133 -5.60131,-0.14015 -8.47865,-1.69855 -2.55317,-2.76584 -2.67224,-5.46397 -2.73169,-9.05908 -0.0161,-0.88457 -0.0321,-1.76914 -0.0487,-2.68052 -0.0446,-4.03503 -0.0855,-8.06991 -0.10855,-12.10513 -0.0166,-2.12804 -0.0439,-4.25603 -0.082,-6.38379 -0.0548,-3.07093 -0.0766,-6.14056 -0.0913,-9.21191 -0.0227,-0.94911 -0.0453,-1.89821 -0.0687,-2.87607 0.014,-4.37652 0.17844,-6.71118 2.59946,-10.45255 3.83198,-2.43025 6.99895,-2.58566 11.39891,-2.49171 z"
     style="fill:#063142"
     id="path17" />
  <path
     d="m 46,156 c 3.047204,1.36622 5.159877,2.94597 7.5625,5.25 7.667593,6.82984 16.779146,10.57414 26.4375,13.75 1.214436,14.84311 1.214436,14.84311 -1.5,19.66406 -2.052807,2.01272 -4.156777,3.67314 -6.5,5.33594 -1.302329,1.1337 -2.59419,2.27954 -3.875,3.4375 -0.653555,0.56332 -1.307109,1.12664 -1.980469,1.70703 -2.467359,2.13478 -4.902425,4.30282 -7.332031,6.48047 -1.196895,1.07121 -1.196895,1.07121 -2.417969,2.16406 C 55.604336,214.51867 54.814141,215.24828 54,216 c -0.859805,0.70713 -1.719609,1.41426 -2.605469,2.14282 -2.996508,3.57546 -3.126039,6.31484 -3.101562,10.78296 -0.01512,0.74759 -0.03024,1.49518 -0.04582,2.26543 -0.04279,2.37407 -0.05171,4.74687 -0.05965,7.12129 -0.02315,1.61527 -0.04852,3.23051 -0.07617,4.8457 C 48.048565,247.10558 48.01616,251.05217 48,255 c -6.75,-0.875 -6.75,-0.875 -9,-2 0.103125,-1.21688 0.20625,-2.43375 0.3125,-3.6875 -0.0061,-3.45259 -0.121587,-4.08228 -2.4375,-6.875 C 35.92625,241.63312 34.9775,240.82875 34,240 26.984144,232.75088 22.201912,224.36022 21.875,214.0625 21.91625,213.05187 21.9575,212.04125 22,211 c 4.142751,0.86537 8.191086,1.7145 12.1875,3.125 3.192392,0.99319 5.491463,1.30818 8.8125,0.875 2.5,-1.5 2.5,-1.5 4,-4 0.387559,-4.4477 -0.291382,-7.24662 -2.3125,-11.1875 -4.718528,-9.91963 -7.997366,-20.68268 -4.890625,-31.61719 C 41.457442,163.89061 43.435372,159.84694 46,156 Z"
     style="fill:#fb9701"
     id="path18" />
  <path
     d="M 379.19531,448.37109 C 381,449 381,449 383,450.5 c 3.32869,8.32172 -0.098,17.42615 -3.1875,25.3125 -7.88456,18.16877 -19.74437,27.70165 -37.50782,35.34765 -3.32352,1.21112 -5.79789,1.2782 -9.30468,0.83985 -3.38122,-2.44599 -4.76937,-3.89297 -5.625,-8 0.8736,-4.19327 2.17862,-5.44968 5.625,-8 1.52444,-0.51272 3.06944,-0.9663 4.625,-1.375 9.63111,-2.57309 17.30948,-8.03493 22.375,-16.625 1.45945,-2.61829 2.79486,-5.25558 4,-8 0.34933,-0.77989 0.69867,-1.55977 1.05859,-2.36329 1.03759,-2.9061 1.39858,-5.57542 1.75391,-8.63671 0.63298,-3.91872 1.1333,-5.91551 3.3125,-9.3125 3.42964,-2.01306 5.24467,-2.11763 9.07031,-1.31641 z"
     style="fill:#0a3240"
     id="path19" />
  <path
     d="m 125,457 c 2,1.625 2,1.625 3,4 0.79181,11.79078 -5.55815,22.50105 -12.71484,31.41406 C 106.12935,502.77499 93.976933,510.55174 80.125,512.5625 75.929577,511.80732 74.46669,510.43842 72,507 c -0.625,-3 -0.625,-3 0,-6 2.691095,-3.85724 5.217067,-5.21686 9.625,-6.375 9.577497,-2.55495 17.814253,-8.4229 23.375,-16.625 2.9511,-5.12344 5.71858,-10.29008 7.125,-16.0625 C 113,459 113,459 114.625,457 c 3.59755,-1.51476 6.68196,-1.13692 10.375,0 z"
     style="fill:#0b3340"
     id="path20" />
  <path
     d="m 469,241 c 2.60449,2.19754 2.94752,3.40608 3.24609,6.78516 C 471.50599,257.45355 462.75637,266.59979 456,273 c -6.72382,5.67634 -13.77426,9.89069 -22,13 -0.96551,0.36609 -1.93102,0.73219 -2.92578,1.10937 -7.09987,2.34421 -7.09987,2.34421 -11.69922,0.20313 -2.68748,-2.61676 -3.26057,-3.45429 -3.75,-7.125 0.38589,-3.28007 0.96707,-4.82942 3.43359,-7.04297 3.58381,-2.11279 7.66277,-2.93372 11.64453,-4.05078 12.74842,-4.22933 20.68977,-15.40631 27.21875,-26.52734 C 460.58684,238.69448 464.99447,239.95152 469,241 Z"
     style="fill:#0a3240"
     id="path21" />
  <path
     d="m 388,312 c 2.5,1.5 2.5,1.5 4,4 0.783,4.27091 0.97937,6.48991 -1.39844,10.15625 -3.6917,4.32042 -7.65343,8.70985 -13.03906,10.78125 -3.69504,0.0901 -5.55863,-0.80142 -8.5625,-2.9375 -1.79376,-3.80277 -2.33288,-5.88247 -1.125,-9.9375 C 373.12967,316.48959 378.24745,310.67011 388,312 Z"
     style="fill:#053042"
     id="path22" />
  <path
     d="m 468,312 c 2.5,1.5 2.5,1.5 4,4 0.783,4.27091 0.97937,6.48991 -1.39844,10.15625 -3.6917,4.32042 -7.65343,8.70985 -13.03906,10.78125 -3.69504,0.0901 -5.55863,-0.80142 -8.5625,-2.9375 -1.79376,-3.80277 -2.33288,-5.88247 -1.125,-9.9375 C 453.12967,316.48959 458.24745,310.67011 468,312 Z"
     style="fill:#053041"
     id="path23" />
  <path
     d="m 300,40 c 2.5,1.5 2.5,1.5 4,4 0.783,4.270913 0.97937,6.489914 -1.39844,10.15625 -3.6917,4.320415 -7.65343,8.709854 -13.03906,10.78125 C 285.86746,65.027623 284.00387,64.136083 281,62 279.20624,58.197228 278.66712,56.117533 279.875,52.0625 285.12967,44.489591 290.24745,38.670107 300,40 Z"
     style="fill:#053041"
     id="path24" />
  <path
     d="m 220,32 c 2.5,1.5 2.5,1.5 4,4 0.783,4.270913 0.97937,6.489914 -1.39844,10.15625 -3.6917,4.320415 -7.65343,8.709854 -13.03906,10.78125 C 205.86746,57.027623 204.00387,56.136083 201,54 199.20624,50.197228 198.66712,48.117533 199.875,44.0625 205.12967,36.489591 210.24745,30.670107 220,32 Z"
     style="fill:#053041"
     id="path25" />
  <path
     d="m 120.0625,239.375 c 4.02995,0.85744 5.50679,2.3364 7.9375,5.625 0.75,2.8125 0.75,2.8125 0,6 -2.04709,2.9712 -4.43254,5.47403 -7,8 -0.52465,0.53496 -1.0493,1.06992 -1.58984,1.62109 -2.41972,2.26568 -4.2139,3.33886 -7.47266,4.00391 -4.02995,-0.85744 -5.50679,-2.3364 -7.9375,-5.625 -0.75,-2.8125 -0.75,-2.8125 0,-6 2.04709,-2.9712 4.43254,-5.47403 7,-8 0.52465,-0.53496 1.0493,-1.06992 1.58984,-1.62109 2.41972,-2.26568 4.2139,-3.33886 7.47266,-4.00391 z"
     style="fill:#053243"
     id="path26" />
  <path
     d="m 224.625,463.9375 c 3.66898,1.15505 5.22705,1.88354 7.375,5.0625 0.6875,2.75 0.6875,2.75 0,6 -2.04028,2.97566 -4.43288,5.47437 -7,8 -0.52465,0.53496 -1.0493,1.06992 -1.58984,1.62109 -2.41972,2.26568 -4.2139,3.33886 -7.47266,4.00391 -4.02995,-0.85744 -5.50679,-2.3364 -7.9375,-5.625 -0.75,-2.8125 -0.75,-2.8125 0,-6 2.04745,-2.97173 4.43751,-5.46863 7,-8 0.51305,-0.54656 1.02609,-1.09312 1.55469,-1.65625 2.75974,-2.68515 4.18661,-3.33929 8.07031,-3.40625 z"
     style="fill:#0d343f"
     id="path27" />
  <path
     d="m 192.625,367.9375 c 3.66898,1.15505 5.22705,1.88354 7.375,5.0625 0.6875,2.75 0.6875,2.75 0,6 -2.04028,2.97566 -4.43288,5.47437 -7,8 -0.52465,0.53496 -1.0493,1.06992 -1.58984,1.62109 -2.41972,2.26568 -4.2139,3.33886 -7.47266,4.00391 -4.02995,-0.85744 -5.50679,-2.3364 -7.9375,-5.625 -0.75,-2.8125 -0.75,-2.8125 0,-6 2.04745,-2.97173 4.43751,-5.46863 7,-8 0.51305,-0.54656 1.02609,-1.09312 1.55469,-1.65625 2.75974,-2.68515 4.18661,-3.33929 8.07031,-3.40625 z"
     style="fill:#0d3543"
     id="path28" />
  <path
     d="m 264,352 c 5.28,0 10.56,0 16,0 0,7.92 0,15.84 0,24 -5.28,0 -10.56,0 -16,0 0,-7.92 0,-15.84 0,-24 z"
     style="fill:#055177"
     id="path29" />
  <path
     d="m 296,264 c 5.28,0 10.56,0 16,0 0,7.92 0,15.84 0,24 -5.28,0 -10.56,0 -16,0 0,-7.92 0,-15.84 0,-24 z"
     style="fill:#055177"
     id="path30" />
  <path
     d="m 232,264 c 5.28,0 10.56,0 16,0 0,7.92 0,15.84 0,24 -5.28,0 -10.56,0 -16,0 0,-7.92 0,-15.84 0,-24 z"
     style="fill:#055177"
     id="path31" />
  <path
     d="m 186,176 c 4.64963,2.29927 4.64963,2.29927 6,5 0.29123,3.3492 0.36462,5.35757 -1.3125,8.3125 -3.20636,3.20635 -6.82121,2.87888 -11.125,2.9375 -1.13309,0.0258 -2.26617,0.0516 -3.43359,0.0781 C 172.69947,191.96848 171.36799,191.46852 169,189 c -1.12436,-2.67384 -1.28539,-5.12376 -1,-8 3.6818,-6.79716 11.16221,-6.01551 18,-5 z"
     style="fill:#063244"
     id="path32" />
  <path
     d="m 154,176 c 4.64963,2.29927 4.64963,2.29927 6,5 0.29123,3.3492 0.36462,5.35757 -1.3125,8.3125 -3.20636,3.20635 -6.82121,2.87888 -11.125,2.9375 -1.13309,0.0258 -2.26617,0.0516 -3.43359,0.0781 C 140.69947,191.96848 139.36799,191.46852 137,189 c -1.12436,-2.67384 -1.28539,-5.12376 -1,-8 3.6818,-6.79716 11.16221,-6.01551 18,-5 z"
     style="fill:#063244"
     id="path33" />
</svg>
