<?xml version="1.0" encoding="UTF-8" standalone="no"?>
<!-- Generator: visioncortex VTracer -->

<svg
   id="svg"
   version="1.1"
   style="display:block"
   viewBox="0 0 512 512"
   width="512"
   height="512"
   xmlns="http://www.w3.org/2000/svg"
   xmlns:svg="http://www.w3.org/2000/svg">
  <defs
     id="defs18" />
  <path
     d="m 232,0 c 4.98461,3.2853138 6.3289,7.9282547 8.10547,13.378906 1.35643,4.585658 1.35643,4.585658 4.74414,7.609131 1.06444,0.500922 1.06444,0.500922 2.15039,1.011963 0.86274,0.488474 0.86274,0.488474 1.74292,0.986816 5.64885,3.105987 11.27403,4.2268 17.56958,5.388184 11.69027,2.363515 22.28064,5.656372 29.6875,15.625 7.37001,12.004581 9.40425,24.112871 10,38 2.47323,-1.969788 4.94304,-3.943455 7.40625,-5.925781 C 315.2925,74.565788 317.20209,73.08641 319.125,71.625 329.34477,62.293907 335.74691,51.30598 337.50781,37.578125 338.15196,34.204016 339.47024,32.292597 342,30 c 2.99181,-1.495907 4.64162,-1.42743 8,-1 20.15636,9.738914 34.04426,31.599651 41.2312,51.973145 3.62917,10.720972 5.15671,20.659035 5.1438,31.964355 10e-4,1.1799 0.003,2.35979 0.004,3.57544 -0.10572,8.84821 -1.27396,16.95924 -3.50391,25.49878 -1.25277,5.0407 -1.7067,9.97468 0.3125,14.86328 2.26408,2.65443 3.36756,3.45099 6.8125,4.125 14.78252,-0.92391 25.84975,-12.3941 35.39062,-22.54297 9.38849,-10.98309 12.91034,-21.91528 12.25391,-36.08203 0.42469,-4.032249 1.49582,-5.561804 4.35547,-8.375 3.95739,-1.495012 5.5456,-1.198283 9.4375,0.5 18.71575,12.19174 36.14574,42.72196 41.10937,64.19922 0.14954,0.75926 0.29907,1.51851 0.45313,2.30078 0.34031,1.67062 0.34031,1.67062 0.6875,3.375 1.24376,14.42758 -0.15384,27.5155 -8.6875,39.625 -6.09484,7.05473 -12.72443,13.81085 -21.6875,16.9375 C 469.138,221.05032 466.39997,219.26665 463,217 c -2.06632,0.27471 -2.06632,0.27471 -4.23047,1.11719 -0.80244,0.27715 -1.60488,0.55429 -2.43164,0.83984 -0.83338,0.30293 -1.66676,0.60586 -2.52539,0.91797 -1.26747,0.44279 -1.26747,0.44279 -2.56055,0.89453 -2.08852,0.73158 -4.17183,1.47539 -6.25195,2.23047 3.67944,7.17407 7.81174,14.02946 12.0625,20.875 0.55357,0.89525 1.10714,1.79051 1.67749,2.71289 2.93516,4.73097 5.9124,9.42799 8.95923,14.08789 0.59482,0.92378 1.18964,1.84755 1.80249,2.79932 1.13352,1.75861 2.28196,3.50773 3.44775,5.24511 3.60823,5.6393 5.31652,10.52078 5.05054,17.27979 -1.64605,5.90641 -4.19597,8.52474 -9,12 -2.64458,1.32229 -4.67761,1.09677 -7.625,1.0625 -1.00289,-0.009 -2.00578,-0.0181 -3.03906,-0.0273 C 457.17965,299.0178 457.17965,299.0178 456,299 c 8.94577,16.25691 17.92762,32.49176 27.01172,48.67187 0.50322,0.89993 1.00643,1.79986 1.5249,2.72706 0.96646,1.71782 1.94319,3.42991 2.93067,5.13574 0.67554,1.1778 0.67554,1.1778 1.36474,2.37939 0.3955,0.68014 0.791,1.36029 1.19849,2.06104 2.41335,5.04063 2.42609,9.50288 0.84448,14.7749 -2.08109,3.60723 -3.49384,5.78457 -6.875,8.25 -2.69922,0.65112 -2.69922,0.65112 -5.6875,1.13672 -1.4908,0.24883 -1.4908,0.24883 -3.01172,0.50268 -0.75926,0.119 -1.51851,0.238 -2.30078,0.3606 8.83476,16.38284 8.83476,16.38284 17.8125,32.6875 0.37737,0.68514 0.75475,1.37027 1.14355,2.07617 2.31602,4.1916 4.68617,8.34568 7.11059,12.47573 1.49722,2.56117 2.97276,5.13453 4.44615,7.70948 0.73122,1.26633 1.47158,2.52745 2.22174,3.78266 4.7551,7.96724 7.86978,14.78691 6.26547,24.26846 -2.15196,4.635 -5.20395,8.07966 -10,10 -4.42759,0.55419 -8.8175,0.46495 -13.27344,0.39062 -1.27888,-0.006 -2.55776,-0.0113 -3.87539,-0.0172 -3.38372,-0.0186 -6.76634,-0.0544 -10.14975,-0.0988 -3.45897,-0.0411 -6.91806,-0.0592 -10.3772,-0.0793 C 457.54918,478.15126 450.77465,478.08436 444,478 c 0.0157,0.63502 0.0314,1.27005 0.0476,1.92432 0.0627,2.90013 0.10148,5.80013 0.13989,8.70068 0.0377,1.49854 0.0377,1.49854 0.0762,3.02734 0.063,6.3363 -0.26443,11.13474 -4.79883,15.99219 -6.38236,4.88063 -10.68127,4.60347 -18.62133,4.65064 -2.00602,0.0171 -4.01174,0.061 -6.01734,0.10522 C 402.61676,512.48051 402.61676,512.48051 397,508 c -3.5791,-4.61516 -5.1328,-8.08733 -5.09766,-13.88672 0.003,-0.93779 0.006,-1.87558 0.01,-2.8418 0.008,-0.97646 0.0168,-1.95293 0.0254,-2.95898 0.005,-0.98807 0.009,-1.97613 0.0137,-2.99414 0.0118,-2.43951 0.0282,-4.87891 0.0488,-7.31836 -0.7133,0.009 -1.42661,0.0178 -2.16153,0.0269 -6.73805,0.0803 -13.47596,0.14113 -20.21438,0.18033 -3.46393,0.0208 -6.92747,0.0491 -10.39118,0.0945 -3.98644,0.052 -7.97273,0.0712 -11.95947,0.0889 -1.23771,0.0206 -2.47543,0.0413 -3.75064,0.0626 -10.76337,0.003 -10.76337,0.003 -15.52304,-4.45323 -3.75852,-4.94541 -4.43291,-8.51044 -4.33594,-14.66797 C 324,457 324,457 326,453 c -11.55,-0.33 -23.1,-0.66 -35,-1 0.0348,3.15562 0.0696,6.31125 0.10547,9.5625 0.0234,3.0747 0.0416,6.14939 0.0593,9.22412 0.015,2.12798 0.0355,4.25592 0.0615,6.38379 0.0366,3.06827 0.0535,6.13614 0.0667,9.20459 0.0155,0.94303 0.031,1.88606 0.0469,2.85767 0.002,6.59427 -0.64416,12.6033 -5.0938,17.82592 -0.59683,0.45504 -1.19367,0.91008 -1.80859,1.37891 -0.59942,0.47309 -1.19883,0.94617 -1.81641,1.43359 -2.81281,1.9588 -4.58855,2.26395 -7.97558,2.30591 -0.90144,0.0128 -1.80288,0.0257 -2.73163,0.0389 -1.46558,0.0111 -1.46558,0.0111 -2.96076,0.0224 -1.00395,0.008 -2.00791,0.0161 -3.04229,0.0245 -2.12846,0.0139 -4.25695,0.0246 -6.38544,0.0324 -3.24848,0.0172 -6.49593,0.0611 -9.74414,0.10522 -2.0677,0.0101 -4.13541,0.0186 -6.20313,0.0254 -0.96895,0.0175 -1.9379,0.035 -2.93621,0.0531 C 234.89716,512.46045 231.5368,511.88237 227,508 c -6.10755,-6.44686 -6.28664,-12.99481 -6.19531,-21.42969 0.003,-0.99033 0.006,-1.98066 0.009,-3.001 0.0112,-3.14823 0.0362,-6.29617 0.0617,-9.44431 0.01,-2.14062 0.0192,-4.28125 0.0273,-6.42188 0.0203,-5.23457 0.0594,-10.46852 0.0977,-15.70312 -11.55,0.33 -23.1,0.66 -35,1 0.66,1.32 1.32,2.64 2,4 0.69598,4.83141 0.65219,9.48191 -1.625,13.875 -2.51102,3.30398 -4.51216,5.6193 -8.375,7.125 -4.42827,0.55038 -8.81722,0.46496 -13.27344,0.39062 -1.27888,-0.006 -2.55776,-0.0113 -3.8754,-0.0172 -3.38371,-0.0186 -6.76633,-0.0544 -10.14975,-0.0988 -3.45897,-0.0411 -6.91805,-0.0592 -10.37719,-0.0793 C 133.54918,478.15126 126.77465,478.08436 120,478 c 0.0209,0.59426 0.0419,1.18852 0.0635,1.80078 0.0839,2.7329 0.13542,5.46552 0.18652,8.19922 0.0335,0.93457 0.067,1.86914 0.10156,2.83203 0.0877,6.26801 -0.72023,10.9596 -4.35156,16.16797 -6.16747,5.86662 -12.1705,5.2468 -20.28687,5.29517 -2.00812,0.0172 -4.01596,0.0611 -6.02368,0.10522 -1.27552,0.008 -2.55105,0.0168 -3.86523,0.0254 -1.16443,0.0146 -2.32885,0.0292 -3.52857,0.0442 -5.13125,-0.73173 -8.19767,-3.25329 -11.60815,-7.03247 -2.49151,-3.59885 -2.80982,-6.27694 -2.78516,-10.54297 0.005,-1.47436 0.005,-1.47436 0.01,-2.97851 0.0126,-1.53624 0.0126,-1.53624 0.0254,-3.10352 0.005,-1.03576 0.009,-2.07152 0.0137,-3.13867 0.0118,-2.558 0.0282,-5.11589 0.0488,-7.67383 -0.7133,0.009 -1.42661,0.0178 -2.16153,0.0269 -6.73805,0.0803 -13.47596,0.14113 -20.21438,0.18033 -3.46393,0.0208 -6.92747,0.0491 -10.39118,0.0945 -3.98644,0.052 -7.97273,0.0712 -11.95947,0.0889 -1.23771,0.0206 -2.47543,0.0413 -3.75064,0.0626 -10.67594,0.003 -10.67594,0.003 -15.5228,-4.45319 -4.34338,-4.57198 -4.54256,-8.63746 -4.45068,-14.66504 0.81389,-6.02262 3.78334,-10.78576 6.82568,-15.95996 0.96402,-1.71038 0.96402,-1.71038 1.94751,-3.45532 1.28814,-2.28172 2.58651,-4.55771 3.89575,-6.82739 1.90172,-3.30051 3.7494,-6.627 5.5835,-9.96534 1.14711,-2.08511 2.30565,-4.16345 3.46777,-6.24023 3.28404,-5.87169 6.54801,-11.75452 9.814,-17.63626 1.66183,-2.99258 3.32433,-5.98479 4.98678,-8.97702 0.84716,-1.52488 0.84716,-1.52488 1.71143,-3.08057 0.60304,-1.08547 0.60304,-1.08547 1.21826,-2.19287 -0.74621,-0.10304 -1.49241,-0.20609 -2.26123,-0.31226 -0.98372,-0.15347 -1.96743,-0.30695 -2.98096,-0.46508 -0.97308,-0.1443 -1.94616,-0.28859 -2.94873,-0.43726 -4.03543,-1.12828 -6.0881,-3.21652 -8.55517,-6.51587 -2.12528,-3.84668 -2.64575,-6.91752 -2.25391,-11.26953 2.21353,-7.30027 5.99817,-13.87902 9.8125,-20.4375 1.15212,-2.0085 2.30311,-4.01764 3.45313,-6.02734 0.60392,-1.05301 1.20785,-2.10601 1.83007,-3.19092 3.3714,-5.9207 6.66694,-11.88347 9.9668,-17.84424 7.39491,-13.35127 7.39491,-13.35127 10.9375,-19.5 -0.72445,0.0464 -1.44891,0.0928 -2.19531,0.14062 -7.79708,0.2911 -11.32166,-0.93999 -17.11719,-6.26562 -2.45565,-4.18369 -2.86971,-8.0616 -2.6875,-12.875 1.11821,-3.68352 2.54236,-6.26982 4.57422,-9.51172 0.55301,-0.88301 1.10601,-1.76601 1.67578,-2.67578 0.54141,-0.81855 1.08281,-1.63711 1.64063,-2.48047 1.3301,-2.79604 1.08346,-3.4763 0.10937,-6.33203 -0.98347,-1.79957 -0.98347,-1.79957 -2.21484,-3.53125 -0.65839,-0.96873 -0.65839,-0.96873 -1.33008,-1.95703 -0.45955,-0.66387 -0.9191,-1.32774 -1.39258,-2.01172 -0.90706,-1.32147 -1.81208,-2.64434 -2.71484,-3.96875 -0.40211,-0.58201 -0.80422,-1.16402 -1.21851,-1.76367 C 32,244 32,244 31.09155,241.80273 30.55123,240.91038 30.55123,240.91038 30,240 26.49083,239.5797 26.49083,239.5797 24.16797,239.66406 20.65741,238.58876 18.89616,235.98224 17,233 c -1.2906,-2.70234 -2.23205,-5.45672 -3.125,-8.3125 -0.25153,-0.78834 -0.50306,-1.57668 -0.76221,-2.38892 C 4.06604,192.9157 7.06605,163.7077 21.125,136.4375 31.68524,116.82852 48.99954,94.640638 69,84 c 4.38262,-0.626088 6.25126,-0.509781 9.9375,2 2.16485,3.148879 2.73518,5.109404 2.48828,8.925781 -0.57412,2.796854 -1.90734,5.087799 -3.27734,7.570309 C 72.0147,115.86931 67.3348,138.60747 72.375,152.5 c 0.53625,1.155 1.0725,2.31 1.625,3.5 0.30938,0.78375 0.61875,1.5675 0.9375,2.375 1.40969,2.156 2.69138,2.63703 5.0625,3.625 0.825,0.53625 1.65,1.0725 2.5,1.625 5.75802,2.26208 11.91124,2.41804 17.87891,0.68359 5.25982,-2.38538 9.0874,-5.85692 11.47558,-11.23169 2.10601,-5.93592 2.65431,-11.301 2.58301,-17.5769 -0.009,-0.96051 -0.0181,-1.92103 -0.0273,-2.91064 C 114.03581,116.93172 109.45742,104.60737 102,91 c -2.11212,-3.884673 -2.55147,-6.509423 -2,-11 2.82761,-3.976327 5.66126,-5.720489 10.45703,-6.65625 18.23407,-2.46482 36.87193,-1.430608 52.41797,9.46875 8.66024,6.806289 19.02124,15.789906 21.125,27.1875 0.66,0 1.32,0 2,0 0.27844,-0.86238 0.55687,-1.72477 0.84375,-2.61328 1.10886,-3.24792 2.36154,-6.39665 3.65625,-9.57422 C 195.63939,84.386229 196.08122,72.628723 191.4375,59 187.64859,47.754035 187.68729,37.806904 193,27 199.87196,14.496292 216.29719,-2.5555554 232,0 Z"
     style="fill:#010100"
     id="path1" />
  <path
     d="m 232,0 c 4.98461,3.2853138 6.3289,7.9282547 8.10547,13.378906 1.35643,4.585658 1.35643,4.585658 4.74414,7.609131 1.06444,0.500922 1.06444,0.500922 2.15039,1.011963 0.86274,0.488474 0.86274,0.488474 1.74292,0.986816 5.64885,3.105987 11.27403,4.2268 17.56958,5.388184 11.69027,2.363515 22.28064,5.656372 29.6875,15.625 7.37001,12.004581 9.40425,24.112871 10,38 2.47323,-1.969788 4.94304,-3.943455 7.40625,-5.925781 C 315.2925,74.565788 317.20209,73.08641 319.125,71.625 329.34477,62.293907 335.74691,51.30598 337.50781,37.578125 338.15196,34.204016 339.47024,32.292597 342,30 c 2.99181,-1.495907 4.64162,-1.42743 8,-1 20.15636,9.738914 34.04426,31.599651 41.2312,51.973145 3.62917,10.720972 5.15671,20.659035 5.1438,31.964355 10e-4,1.1799 0.003,2.35979 0.004,3.57544 -0.10572,8.84821 -1.27396,16.95924 -3.50391,25.49878 -1.25277,5.0407 -1.7067,9.97468 0.3125,14.86328 2.26408,2.65443 3.36756,3.45099 6.8125,4.125 14.78252,-0.92391 25.84975,-12.3941 35.39062,-22.54297 9.38849,-10.98309 12.91034,-21.91528 12.25391,-36.08203 0.42469,-4.032249 1.49582,-5.561804 4.35547,-8.375 3.95739,-1.495012 5.5456,-1.198283 9.4375,0.5 18.71575,12.19174 36.14574,42.72196 41.10937,64.19922 0.14954,0.75926 0.29907,1.51851 0.45313,2.30078 0.34031,1.67062 0.34031,1.67062 0.6875,3.375 1.24376,14.42758 -0.15384,27.5155 -8.6875,39.625 -6.09484,7.05473 -12.72443,13.81085 -21.6875,16.9375 C 469.138,221.05032 466.39997,219.26665 463,217 c -2.01887,0.29129 -2.01887,0.29129 -4.125,1.15234 -0.78891,0.28166 -1.57781,0.56332 -2.39063,0.85352 -1.22976,0.46116 -1.22976,0.46116 -2.48437,0.93164 -1.622,0.6006 -3.24692,1.19342 -4.875,1.77734 -0.7193,0.26934 -1.43859,0.53867 -2.17969,0.81617 C 445,223 445,223 442,222 c -1.40698,-1.97778 -1.40698,-1.97778 -2.85547,-4.55078 -0.54076,-0.92619 -1.08152,-1.85238 -1.63867,-2.80664 -1.11904,-1.95283 -2.22861,-3.91112 -3.32813,-5.875 C 430.69056,202.84061 427.76057,198.98736 421,197 c -4.33407,-0.5978 -6.31508,-0.36261 -10.1875,1.6875 -5.81371,4.78016 -9.23936,11.12379 -13.0625,17.5 -1.25457,2.07721 -2.5098,4.15402 -3.76563,6.23047 -0.65291,1.08072 -1.30582,2.16143 -1.97851,3.2749 -2.64571,4.36208 -5.31885,8.7069 -7.99707,13.04907 -1.33935,2.17229 -2.67594,4.34629 -4.00977,6.52198 -3.33182,5.43272 -6.69413,10.84122 -10.12402,16.21264 -0.65227,1.03512 -1.30453,2.07024 -1.97656,3.13672 -1.23037,1.95188 -2.47438,3.89524 -3.73438,5.82813 -3.45839,5.52855 -4.98292,9.02193 -4.16406,15.55859 1.66748,5.26573 3.42434,7.94956 8,11 3.33103,0.9002 3.33103,0.9002 6.8125,1.25 1.16145,0.14953 2.32289,0.29906 3.51953,0.45312 1.32065,0.14696 1.32065,0.14696 2.66797,0.29688 -1.32022,3.45065 -2.82206,6.6824 -4.58203,9.92969 -0.51353,0.94899 -1.02706,1.89798 -1.55615,2.87573 -0.55253,1.01296 -1.10505,2.02592 -1.67432,3.06958 -0.57315,1.05486 -1.1463,2.10971 -1.73682,3.19653 -4.0407,7.4109 -8.16206,14.77357 -12.32568,22.11597 -0.54141,0.95906 -1.08281,1.91812 -1.64062,2.90625 -2.25468,3.99161 -4.51623,7.97525 -6.85547,11.91797 -4.90336,8.47977 -4.90336,8.47977 -4.62891,17.98828 2.37339,4.83805 5.20909,7.55935 10,10 2.99633,0.58357 5.95249,0.86456 9,1 -7.29841,14.78132 -7.29841,14.78132 -11,21 -0.66,0 -1.32,0 -2,0 -0.36126,-0.67764 -0.72252,-1.35529 -1.09473,-2.05347 -7.63755,-14.30654 -15.42199,-28.50259 -23.52685,-42.55102 -2.22775,-3.87154 -4.43192,-7.75618 -6.62842,-11.64551 -0.57488,-1.01151 -0.57488,-1.01151 -1.16138,-2.04346 C 317,342.11654 317,342.11654 317,341 c 0.86883,-0.0258 1.73766,-0.0516 2.63281,-0.0781 8.24387,-0.40573 12.92369,-1.19917 18.67969,-7.42187 3.01576,-4.4678 3.49194,-9.17736 2.6875,-14.5 -1.57227,-3.92656 -3.6422,-7.52623 -5.75,-11.1875 -0.59055,-1.05663 -1.1811,-2.11326 -1.78955,-3.2019 C 331.65807,301.39661 329.83242,298.19693 328,295 c -1.00292,-1.76284 -2.00554,-3.52585 -3.00781,-5.28906 -1.9246,-3.37687 -3.85902,-6.74792 -5.79688,-10.11719 -3.44564,-6.00959 -6.82734,-12.05443 -10.19488,-18.108 -0.97407,-1.75087 -1.94987,-3.50077 -2.92572,-5.25064 C 302.91683,250.54847 299.8491,244.84777 297,239 c 1.37672,-0.0387 1.37672,-0.0387 2.78125,-0.0781 8.80092,-0.40676 15.48931,-0.90555 21.65625,-7.54687 3.29203,-5.00389 3.25296,-9.4808 2.5625,-15.375 -1.30731,-3.68519 -3.17661,-6.90595 -5.1875,-10.25 -0.81151,-1.41599 -0.81151,-1.41599 -1.6394,-2.8606 -1.13899,-1.98442 -2.28767,-3.96331 -3.44556,-5.93676 -2.19583,-3.75302 -4.32795,-7.54003 -6.45899,-11.33008 -1.61129,-2.8638 -3.23235,-5.72192 -4.85449,-8.57959 -3.654,-6.45229 -7.25482,-12.93363 -10.85156,-19.41797 -0.62157,-1.11802 -1.24314,-2.23604 -1.88355,-3.38794 -2.87967,-5.18118 -5.75303,-10.36546 -8.59846,-15.56552 -1.56266,-2.85206 -3.13534,-5.6986 -4.70549,-8.54654 -0.56775,-1.04591 -1.1355,-2.09183 -1.72046,-3.16943 -3.22193,-5.82276 -6.02226,-10.83677 -11.90454,-14.2681 -5.53755,-1.38439 -9.89173,-1.47337 -15.19531,0.76953 -4.59498,2.8051 -6.5999,6.95269 -9.05469,11.60547 -0.50427,0.9183 -1.00853,1.83659 -1.52808,2.78271 -1.09472,1.9954 -2.18193,3.99493 -3.26245,5.99805 -2.34228,4.3253 -4.74354,8.61683 -7.1416,12.91138 C 223.36495,152.49553 220.18458,158.24892 217,164 c -2.54011,4.5842 -5.08175,9.16754 -7.625,13.75 -0.61351,1.10545 -1.22703,2.2109 -1.85913,3.34985 -4.8148,8.66384 -9.67799,17.29969 -14.56909,25.92066 -0.5058,0.89171 -1.01159,1.78342 -1.53272,2.70215 -0.44392,0.78125 -0.88784,1.5625 -1.34521,2.36743 -2.5946,4.63626 -2.50663,8.6484 -2.06885,13.90991 1.79354,5.28097 4.60999,7.79895 9,11 3.56087,1.18696 6.97331,1.35095 10.6875,1.5625 0.70189,0.0432 1.40379,0.0864 2.12695,0.13086 1.7283,0.10581 3.4569,0.20671 5.18555,0.30664 -4.11976,8.74743 -8.84105,17.11944 -13.61914,25.51855 -5.0509,8.88017 -10.03418,17.79645 -14.9707,26.74073 -2.81027,5.08809 -5.63581,10.15958 -8.58204,15.17041 -0.47219,0.81364 -0.94439,1.62728 -1.4309,2.46557 -0.85412,1.46686 -1.72131,2.92625 -2.60498,4.37549 -2.78742,4.82523 -3.27493,8.15793 -2.79224,13.72925 1.79451,5.88199 4.16861,8.50495 9,12 2.8327,1.41635 5.47466,1.3463 8.625,1.5625 1.18852,0.0838 2.37703,0.16758 3.60156,0.25391 0.91524,0.0606 1.83047,0.12117 2.77344,0.18359 -4.11401,8.73523 -8.82745,17.09626 -13.59937,25.4834 -4.5982,8.08347 -9.13743,16.19799 -13.65063,24.3291 -0.332,0.59757 -0.66401,1.19514 -1.00607,1.81082 -3.46205,6.14044 -3.46205,6.14044 -6.74393,12.37668 -0.66,0 -1.32,0 -2,0 -1.83672,-3.31063 -3.66881,-6.62381 -5.5,-9.9375 -0.52465,-0.94553 -1.0493,-1.89105 -1.58984,-2.86523 -0.49629,-0.89913 -0.99258,-1.79825 -1.50391,-2.72461 -0.69126,-1.24898 -0.69126,-1.24898 -1.39648,-2.5232 C 147,385 147,385 147,384 c 0.58008,-0.0258 1.16016,-0.0516 1.75781,-0.0781 6.9486,-0.50451 10.90111,-2.27276 15.61719,-7.60937 2.08831,-4.25693 2.39425,-7.7042 1.625,-12.3125 -1.71042,-4.29906 -3.95081,-8.24111 -6.25,-12.25 -0.63317,-1.13808 -1.26634,-2.27616 -1.9187,-3.44873 C 155.91163,344.85368 153.95729,341.42638 152,338 c -1.0954,-1.9347 -2.19048,-3.86958 -3.28516,-5.80469 -2.42911,-4.27758 -4.87858,-8.54307 -7.33642,-12.8042 -2.22114,-3.85296 -4.4309,-7.71214 -6.62842,-11.57861 -0.57488,-0.99894 -0.57488,-0.99894 -1.16138,-2.01807 C 131,301.2287 131,301.2287 131,299 c 0.79664,-0.098 1.59328,-0.19594 2.41406,-0.29688 8.51712,-1.11523 8.51712,-1.11523 15.58594,-5.70312 2.80183,-4.8565 3.89423,-9.45259 3,-15 -1.38628,-3.28836 -3.25024,-6.19793 -5.1875,-9.1875 -0.81042,-1.29877 -0.81042,-1.29877 -1.63721,-2.62378 -1.14044,-1.825 -2.28838,-3.64534 -3.44336,-5.46118 -2.2025,-3.46862 -4.35939,-6.96433 -6.51587,-10.46167 -1.60831,-2.60632 -3.22437,-5.20772 -4.84106,-7.80884 -4.19475,-6.76465 -8.32263,-13.5699 -12.44287,-20.38013 -2.85269,-4.70461 -5.72807,-9.39499 -8.64307,-14.06128 -0.5522,-0.88655 -1.1044,-1.7731 -1.67334,-2.68652 C 104.78487,201.24837 101.77545,198.59182 97,197 c -5.38453,-0.63347 -8.50768,0.31288 -12.90601,3.18896 -4.19613,3.62912 -6.60268,8.52191 -9.28149,13.31104 -1.30585,2.25605 -2.61316,4.51124 -3.92187,6.76562 -0.64905,1.12987 -1.29809,2.25973 -1.9668,3.42383 -2.85616,4.91492 -5.84968,9.73987 -8.86133,14.56055 -1.05489,1.69649 -2.10958,3.3931 -3.16406,5.08984 -0.49017,0.78746 -0.98033,1.57492 -1.48535,2.38623 -2.08543,3.35586 -4.15689,6.72024 -6.22559,10.08643 -0.6252,1.01707 -1.25039,2.03414 -1.89453,3.08203 C 46.86629,259.58934 46.43961,260.28414 46,261 c -3.08476,-1.32461 -4.68096,-2.52651 -6.50781,-5.33594 -0.42926,-0.65226 -0.85852,-1.30453 -1.30078,-1.97656 -0.43442,-0.68063 -0.86883,-1.36125 -1.31641,-2.0625 -0.44215,-0.67289 -0.8843,-1.34578 -1.33984,-2.03906 -3.35824,-5.15403 -3.35824,-5.15403 -4.43702,-7.7876 C 30.55456,240.90816 30.55456,240.90816 30,240 26.49083,239.5797 26.49083,239.5797 24.16797,239.66406 20.65741,238.58876 18.89616,235.98224 17,233 c -1.2906,-2.70234 -2.23205,-5.45672 -3.125,-8.3125 -0.25153,-0.78834 -0.50306,-1.57668 -0.76221,-2.38892 C 4.06604,192.9157 7.06605,163.7077 21.125,136.4375 31.68524,116.82852 48.99954,94.640638 69,84 c 4.38262,-0.626088 6.25126,-0.509781 9.9375,2 2.16485,3.148879 2.73518,5.109404 2.48828,8.925781 -0.57412,2.796854 -1.90734,5.087799 -3.27734,7.570309 C 72.0147,115.86931 67.3348,138.60747 72.375,152.5 c 0.53625,1.155 1.0725,2.31 1.625,3.5 0.30938,0.78375 0.61875,1.5675 0.9375,2.375 1.40969,2.156 2.69138,2.63703 5.0625,3.625 0.825,0.53625 1.65,1.0725 2.5,1.625 5.75802,2.26208 11.91124,2.41804 17.87891,0.68359 5.25982,-2.38538 9.0874,-5.85692 11.47558,-11.23169 2.10601,-5.93592 2.65431,-11.301 2.58301,-17.5769 -0.009,-0.96051 -0.0181,-1.92103 -0.0273,-2.91064 C 114.03581,116.93172 109.45742,104.60737 102,91 c -2.11212,-3.884673 -2.55147,-6.509423 -2,-11 2.82761,-3.976327 5.66126,-5.720489 10.45703,-6.65625 18.23407,-2.46482 36.87193,-1.430608 52.41797,9.46875 8.66024,6.806289 19.02124,15.789906 21.125,27.1875 0.66,0 1.32,0 2,0 0.27844,-0.86238 0.55687,-1.72477 0.84375,-2.61328 1.10886,-3.24792 2.36154,-6.39665 3.65625,-9.57422 C 195.63939,84.386229 196.08122,72.628723 191.4375,59 187.64859,47.754035 187.68729,37.806904 193,27 199.87196,14.496292 216.29719,-2.5555554 232,0 Z"
     style="fill:#fd9700"
     id="path2" />
  <path
     d="m 255,129 c 0.66,0 1.32,0 2,0 0.38108,0.68699 0.76216,1.37398 1.15479,2.08179 8.66154,15.61122 17.35278,31.20524 26.08496,46.7771 1.82439,3.25557 3.64616,6.5126 5.46728,9.77002 0.61013,1.09095 1.22026,2.1819 1.84888,3.3059 1.1955,2.13766 2.39066,4.27552 3.58545,6.41358 2.48135,4.43427 4.96939,8.86315 7.51489,13.26098 0.38237,0.66105 0.76474,1.3221 1.15869,2.00318 0.97128,1.67212 1.94895,3.34052 2.92725,5.00854 C 308,220 308,220 308,222 c -0.89308,0.0146 -1.78616,0.0292 -2.7063,0.0442 -3.31587,0.0611 -6.63092,0.13524 -9.94629,0.21826 -1.43446,0.0332 -2.86905,0.0613 -4.30371,0.084 -2.06331,0.0336 -4.12542,0.0859 -6.18823,0.14185 -1.86169,0.0393 -1.86169,0.0393 -3.76099,0.0794 -3.04723,0.18841 -3.04723,0.18841 -4.9873,1.74731 -2.0485,3.11769 -1.81441,6.18549 -1.10718,9.68506 1.70355,4.01507 3.89318,7.69591 6.125,11.4375 1.29472,2.23802 2.58898,4.47631 3.88281,6.71484 0.66548,1.13808 1.33096,2.27617 2.0166,3.44873 3.05874,5.26245 6.01452,10.58113 8.97559,15.89893 1.15832,2.06931 2.31718,4.13832 3.47656,6.20703 2.41313,4.30897 4.82433,8.619 7.23438,12.92969 1.22127,2.18364 2.44263,4.36723 3.66406,6.55078 0.87423,1.56331 0.87423,1.56331 1.76611,3.1582 3.81827,6.81967 7.67926,13.61242 11.60108,20.37305 C 325,323 325,323 325,324 c -1.15786,0.0376 -1.15786,0.0376 -2.33911,0.0759 -3.4913,0.11591 -6.98233,0.23866 -10.47339,0.36157 -1.21494,0.0393 -2.42988,0.0786 -3.68164,0.11914 -1.74507,0.0628 -1.74507,0.0628 -3.52539,0.12695 -1.07355,0.0367 -2.1471,0.0733 -3.25317,0.11109 -2.82042,0.10077 -2.82042,0.10077 -5.7273,1.20535 -2.02592,8.68252 0.67172,13.54478 5,21 0.83817,1.47213 1.67534,2.94482 2.51172,4.41797 1.4622,2.56777 2.92859,5.1329 4.40356,7.69336 4.41202,7.66286 8.70066,15.39026 12.95972,23.13867 5.73208,10.42586 11.50513,20.82644 17.34521,31.19238 4.01624,7.14297 7.8927,14.33874 11.77979,21.55762 -62.04,0 -124.08,0 -188,0 3.83176,-7.66352 7.68472,-15.1496 11.9375,-22.5625 1.14545,-2.0112 2.28994,-4.02294 3.43359,-6.03516 0.59281,-1.04301 1.18562,-2.08602 1.79639,-3.16064 3.1442,-5.56204 6.23681,-11.15258 9.33252,-16.7417 4.80321,-8.66299 9.62925,-17.31228 14.5,-25.9375 0.53528,-0.95149 1.07057,-1.90298 1.62207,-2.8833 2.17727,-3.85722 4.36025,-7.69891 6.70605,-11.45654 C 215.01719,340.27667 217,336.07281 217,329 c -0.33,-0.99 -0.66,-1.98 -1,-3 -3.16438,-1.24562 -6.49134,-1.19612 -9.85938,-1.31641 -1.67255,-0.0628 -1.67255,-0.0628 -3.3789,-0.12695 -1.15887,-0.0393 -2.31774,-0.0786 -3.51172,-0.11914 -1.17434,-0.0432 -2.34867,-0.0864 -3.55859,-0.13086 C 192.79438,324.20065 189.89728,324.09858 187,324 c 7.41291,-14.13901 15.21816,-28.06209 23,-42 0.91072,-1.63147 0.91072,-1.63147 1.83984,-3.2959 1.18192,-2.11619 2.36453,-4.232 3.54785,-6.34741 1.15219,-2.06036 2.3026,-4.12171 3.45118,-6.18408 2.91726,-5.22531 5.88069,-10.41571 8.92675,-15.56714 0.90855,-1.55413 0.90855,-1.55413 1.83545,-3.13965 1.1487,-1.96097 2.31098,-3.91408 3.48926,-5.85742 3.17885,-5.45714 4.99001,-9.25963 3.90967,-15.6084 -3.23798,-3.38272 -6.19391,-3.41215 -10.73438,-3.51172 -1.2955,-0.0354 -2.59101,-0.0709 -3.92578,-0.10742 -1.36327,-0.0231 -2.72655,-0.0459 -4.08984,-0.0684 -1.37894,-0.0332 -2.75785,-0.0677 -4.13672,-0.10352 C 210.74227,222.12648 207.37152,222.05733 204,222 c 1.37404,-3.60528 2.97293,-6.9706 4.80078,-10.36719 0.558,-1.0381 1.11601,-2.07619 1.69092,-3.14575 0.60086,-1.10948 1.20173,-2.21896 1.8208,-3.36206 0.62665,-1.1604 1.25329,-2.3208 1.89893,-3.51636 4.48272,-8.28166 9.07521,-16.49805 13.73535,-24.68115 3.10896,-5.46588 6.18142,-10.94988 9.21338,-16.45874 0.35537,-0.64567 0.71075,-1.29135 1.0769,-1.95659 1.73918,-3.16219 3.47507,-6.32615 5.20776,-9.4919 2.91659,-5.32061 5.85781,-10.62737 8.90284,-15.87573 0.46543,-0.80462 0.93086,-1.60923 1.4104,-2.43823 C 254.1679,130.14322 254.57774,129.58014 255,129 Z"
     style="fill:#a3c300"
     id="path3" />
  <path
     d="m 232,0 c 4.98461,3.2853138 6.3289,7.9282547 8.10547,13.378906 1.35643,4.585658 1.35643,4.585658 4.74414,7.609131 1.06444,0.500922 1.06444,0.500922 2.15039,1.011963 0.86274,0.488474 0.86274,0.488474 1.74292,0.986816 5.64885,3.105987 11.27403,4.2268 17.56958,5.388184 11.69027,2.363515 22.28064,5.656372 29.6875,15.625 7.37001,12.004581 9.40425,24.112871 10,38 2.47323,-1.969788 4.94304,-3.943455 7.40625,-5.925781 C 315.2925,74.565788 317.20209,73.08641 319.125,71.625 329.34477,62.293907 335.74691,51.30598 337.50781,37.578125 338.15196,34.204016 339.47024,32.292597 342,30 c 2.99181,-1.495907 4.64162,-1.42743 8,-1 20.15636,9.738914 34.04426,31.599651 41.2312,51.973145 3.62917,10.720972 5.15671,20.659035 5.1438,31.964355 10e-4,1.1799 0.003,2.35979 0.004,3.57544 -0.10572,8.84821 -1.27396,16.95924 -3.50391,25.49878 -1.25277,5.0407 -1.7067,9.97468 0.3125,14.86328 2.26408,2.65443 3.36756,3.45099 6.8125,4.125 14.78252,-0.92391 25.84975,-12.3941 35.39062,-22.54297 9.38849,-10.98309 12.91034,-21.91528 12.25391,-36.08203 0.42469,-4.032249 1.49582,-5.561804 4.35547,-8.375 3.95739,-1.495012 5.5456,-1.198283 9.4375,0.5 18.71575,12.19174 36.14574,42.72196 41.10937,64.19922 0.14954,0.75926 0.29907,1.51851 0.45313,2.30078 0.34031,1.67062 0.34031,1.67062 0.6875,3.375 1.24376,14.42758 -0.15384,27.5155 -8.6875,39.625 -6.09484,7.05473 -12.72443,13.81085 -21.6875,16.9375 -3.01293,0.0814 -4.69912,-0.42449 -7.3125,-1.9375 -2.46293,-2.87342 -2.96983,-4.59271 -3.25,-8.375 1.61761,-4.69107 4.00551,-6.18894 7.96484,-9 2.74815,-1.95424 5.0032,-4.14745 7.28516,-6.625 0.70125,-0.7425 1.4025,-1.485 2.125,-2.25 6.08219,-8.92054 6.21206,-19.66107 4.25391,-30.04297 C 480.5484,149.00232 473.19853,136.51283 465,125 c -1.75244,2.62865 -3.18396,5.27814 -4.61279,8.08911 C 456.62917,140.41575 452.56209,146.8714 447,153 c -0.73734,0.81855 -1.47469,1.63711 -2.23438,2.48047 -10.11804,10.66363 -24.58167,22.57516 -39.83984,23.75781 C 397.58979,179.38897 392.05121,179.34761 386,175 c -0.61359,-0.4009 -1.22719,-0.8018 -1.85938,-1.21484 C 377.82508,169.12947 375.41355,162.24065 373,155 c -0.99773,-9.86285 1.36935,-18.61842 4,-28 4.84485,-17.48348 -0.53112,-36.960839 -8.91406,-52.394531 C 365.3782,69.829983 362.37103,65.333011 359,61 358.51273,60.372227 358.02547,59.744453 357.52344,59.097656 355.14099,56.102767 355.14099,56.102767 352,54 c -0.17596,1.084746 -0.17596,1.084746 -0.35547,2.191406 -4.69105,20.441612 -27.09316,36.567109 -43.69604,47.156984 -1.97246,1.23535 -3.95536,2.44994 -5.94849,3.65161 -0.96486,0.58382 -0.96486,0.58382 -1.94922,1.17944 -3.93374,2.32275 -6.44112,3.72245 -11.05078,2.82056 -2.875,-1.9375 -2.875,-1.9375 -5,-5 -0.88593,-4.63972 -0.033,-9.093085 1.00391,-13.640625 1.09099,-5.338521 1.3631,-10.483925 1.37109,-15.921875 0.0245,-0.881074 0.049,-1.762148 0.0742,-2.669922 C 286.483,66.130526 284.1969,60.661506 280.3125,54.1875 276.99331,51.047729 273.20755,49.657026 269,48 c -0.66,-0.33 -1.32,-0.66 -2,-1 -1.76966,-0.105302 -3.54093,-0.184299 -5.3125,-0.25 C 246.59235,45.55542 236.3182,38.045927 226.53125,27.113281 225.00727,25.010033 224.41269,23.539216 224,21 c -7.03979,4.877825 -14.29664,10.142536 -16,19 -0.57262,6.860986 -0.0702,11.741453 3,18 1.8367,6.071676 2.32091,11.550716 2.25,17.875 -0.008,0.889131 -0.0164,1.778262 -0.0249,2.694336 C 213.12198,84.603194 212.84974,90.21845 211,96 c -0.38027,1.194961 -0.76055,2.389922 -1.15234,3.621094 C 205.5944,112.19821 197.62936,131.68532 185,138 c -3.73721,0.49829 -5.45687,0.36209 -8.625,-1.75 -3.05659,-3.43503 -3.96456,-7.74211 -5.28906,-12.05469 C 166.73074,111.38038 158.63208,101.78087 147,95 c -7.42524,-3.623406 -15.89177,-4.091964 -24,-5 0.32613,0.727031 0.65227,1.454063 0.98828,2.203125 C 127.10509,99.374551 129.32145,106.3731 131,114 c 0.30938,1.14275 0.30938,1.14275 0.625,2.30859 3.71219,14.87454 3.02856,35.21169 -4.625,48.69141 -7.60601,10.06764 -15.58386,16.26201 -28,19 -13.134,1.45119 -23.08279,-1.7322 -33.48437,-9.72656 -6.69717,-6.05241 -11.99022,-14.08973 -12.76758,-23.23877 -0.0788,-3.37088 -0.059,-6.72599 0.002,-10.09717 0.005,-1.14533 0.0103,-2.29066 0.0156,-3.4707 0.0516,-5.58063 0.24525,-10.97082 1.23437,-16.4668 -19.80081,24.42641 -29.93611,49.44072 -26.76855,81.33008 1.05794,7.64861 3.72971,14.67743 6.78027,21.73242 1.08235,3.21712 1.30871,5.56605 0.98828,8.9375 -1.88261,3.1769 -3.27127,5.4772 -6.9375,6.58594 -3.76982,0.29987 -3.76982,0.29987 -6.0625,-0.58594 -4.35172,-4.30514 -6.31685,-8.52981 -8.125,-14.3125 -0.25153,-0.78834 -0.50306,-1.57668 -0.76221,-2.38892 C 4.06606,192.9157 7.06607,163.7077 21.12502,136.4375 31.68524,116.82852 48.99954,94.640638 69,84 c 4.38262,-0.626088 6.25126,-0.509781 9.9375,2 2.16485,3.148879 2.73518,5.109404 2.48828,8.925781 -0.57412,2.796854 -1.90734,5.087799 -3.27734,7.570309 C 72.0147,115.86931 67.3348,138.60747 72.375,152.5 c 0.53625,1.155 1.0725,2.31 1.625,3.5 0.30938,0.78375 0.61875,1.5675 0.9375,2.375 1.40969,2.156 2.69138,2.63703 5.0625,3.625 0.825,0.53625 1.65,1.0725 2.5,1.625 5.75802,2.26208 11.91124,2.41804 17.87891,0.68359 5.25982,-2.38538 9.0874,-5.85692 11.47558,-11.23169 2.10601,-5.93592 2.65431,-11.301 2.58301,-17.5769 -0.009,-0.96051 -0.0181,-1.92103 -0.0273,-2.91064 C 114.03581,116.93172 109.45742,104.60737 102,91 c -2.11212,-3.884673 -2.55147,-6.509423 -2,-11 2.82761,-3.976327 5.66126,-5.720489 10.45703,-6.65625 18.23407,-2.46482 36.87193,-1.430608 52.41797,9.46875 8.66024,6.806289 19.02124,15.789906 21.125,27.1875 0.66,0 1.32,0 2,0 0.27844,-0.86238 0.55687,-1.72477 0.84375,-2.61328 1.10886,-3.24792 2.36154,-6.39665 3.65625,-9.57422 C 195.63939,84.386229 196.08122,72.628723 191.4375,59 187.64859,47.754035 187.68729,37.806904 193,27 199.87196,14.496292 216.29719,-2.5555554 232,0 Z"
     style="fill:#010000"
     id="path4" />
  <path
     d="m 418,215 c 3.64747,4.26959 6.41562,8.86565 9.25,13.6875 4.9131,8.27037 9.89651,16.49442 14.9375,24.6875 0.68095,1.10755 1.36189,2.21509 2.06348,3.3562 4.34417,7.0453 8.76735,14.02777 13.34277,20.92505 C 459,280 459,280 459,282 c -0.68103,0.0146 -1.36206,0.0292 -2.06372,0.0442 -3.0835,0.0744 -6.16592,0.17111 -9.24878,0.26831 -1.07186,0.0226 -2.14371,0.0451 -3.24805,0.0684 -1.02802,0.0355 -2.05605,0.0709 -3.11523,0.10742 -0.94787,0.0262 -1.89573,0.0524 -2.87232,0.0794 -2.86164,0.50462 -3.78323,1.0802 -5.4519,3.43237 -1.05137,7.31142 1.55729,11.85089 5.1875,18.0625 0.541,0.95753 1.08201,1.91506 1.6394,2.90161 1.14118,2.01581 2.28984,4.0274 3.44556,6.03491 1.64589,2.85914 3.27264,5.72809 4.8916,8.60254 2.11662,3.75722 4.2394,7.51082 6.36719,11.26172 3.61076,6.37669 7.19114,12.77008 10.75644,19.17227 0.68104,1.22242 1.36286,2.44441 2.04547,3.66596 0.94965,1.69988 1.89621,3.40149 2.84262,5.10318 0.54568,0.97952 1.09135,1.95905 1.65357,2.96826 C 473,366 473,366 473,367 c -0.83193,0.0219 -0.83193,0.0219 -1.68066,0.0442 -2.5238,0.0747 -5.04631,0.17127 -7.56934,0.26831 -0.8727,0.0226 -1.74539,0.0451 -2.64453,0.0684 -3.4812,0.14616 -6.44096,0.36945 -9.71485,1.59961 -1.96354,2.85156 -2.03255,5.07351 -1.86718,8.49463 0.90373,4.78813 3.4479,8.6099 5.97656,12.7124 1.20179,2.03287 2.39951,4.06815 3.59375,6.10547 0.6368,1.08072 1.27359,2.16143 1.92969,3.2749 3.48815,6.05683 6.7193,12.24898 9.97656,18.43208 5.49842,10.40638 11.13625,20.71028 17.01562,30.9082 0.49758,0.8669 0.99516,1.73379 1.50782,2.62696 0.43232,0.74644 0.86464,1.49289 1.31006,2.26196 1.22736,2.31781 2.19244,4.76774 3.1665,7.20288 -49.83,0 -99.66,0 -151,0 2,-6 2,-6 4,-9 2.60937,-0.70313 2.60937,-0.70313 5.75,-1.25 5.31224,-1.2053 7.98578,-2.614 11.26172,-6.93359 2.32385,-4.27112 2.56213,-9.04046 1.98828,-13.81641 -0.53625,-1.03125 -1.0725,-2.0625 -1.625,-3.125 C 363,424 363,424 363.64062,421.32031 c 1.62544,-3.97017 3.60793,-7.60058 5.73438,-11.32031 0.8895,-1.58974 1.77882,-3.17959 2.66797,-4.76953 2.0824,-3.69929 4.19734,-7.37857 6.32031,-11.05469 1.10851,-1.95418 2.21659,-3.9086 3.32422,-5.86328 0.54124,-0.91975 1.08249,-1.83949 1.64014,-2.78711 2.30744,-4.10447 3.65543,-6.7089 3.75439,-11.48242 -0.88776,-2.99081 -0.88776,-2.99081 -2.53516,-4.9375 -3.99831,-1.73546 -7.98084,-1.6814 -12.29687,-1.79297 -0.88816,-0.0342 -1.77633,-0.0683 -2.69141,-0.10352 C 367.37252,367.12671 365.18684,367.0575 363,367 c 6.44421,-12.29135 13.19713,-24.40873 19.95369,-36.53023 2.42072,-4.34363 4.83464,-8.69099 7.24553,-13.04008 0.68545,-1.23601 1.37092,-2.47202 2.05639,-3.70801 1.30359,-2.35053 2.60636,-4.70151 3.9087,-7.05274 0.59031,-1.06379 1.18062,-2.12759 1.78881,-3.22363 0.77586,-1.39968 0.77586,-1.39968 1.56739,-2.82763 1.00588,-1.77972 2.05557,-3.53524 3.14258,-5.26661 1.73444,-3.05016 1.85173,-4.89444 1.33691,-8.35107 -2.05775,-2.61474 -3.27578,-3.84589 -6.56543,-4.5459 -0.94263,-0.0209 -1.88525,-0.0419 -2.85645,-0.0635 -1.0248,-0.0322 -2.0496,-0.0645 -3.10546,-0.0977 -1.59522,-0.0213 -1.59522,-0.0213 -3.22266,-0.043 -1.07894,-0.0297 -2.15789,-0.0593 -3.26953,-0.0898 C 382.32024,282.0895 379.66088,282.0368 377,282 c 5.18058,-9.96216 11.14995,-19.40302 17.08935,-28.92432 2.0456,-3.29291 4.07626,-6.59479 6.10206,-9.8999 0.3534,-0.57622 0.7068,-1.15243 1.07092,-1.74611 1.72856,-2.81869 3.45561,-5.63829 5.18054,-8.45921 C 410.17224,226.89289 413.98831,220.89542 418,215 Z"
     style="fill:#5fa816"
     id="path5" />
  <path
     d="m 93,216 c 4.259494,1.41983 5.296143,4.51656 7.375,8.25 0.89614,1.56642 1.79469,3.13146 2.69531,4.69531 0.47599,0.8279 0.95197,1.6558 1.44239,2.50879 2.49712,4.27447 5.11772,8.47076 7.7373,12.6709 4.84617,7.79215 9.65991,15.60309 14.4375,23.4375 0.60038,0.98178 1.20076,1.96356 1.81934,2.9751 0.55848,0.917 1.11697,1.83401 1.69238,2.77881 0.49331,0.80896 0.98661,1.61793 1.49487,2.45141 1.19474,2.04217 2.27689,4.10258 3.30591,6.23218 -0.67579,0.009 -1.35158,0.0187 -2.04785,0.0283 -3.06812,0.0537 -6.13472,0.13739 -9.20215,0.22168 -1.06348,0.0142 -2.12695,0.0284 -3.22266,0.043 -1.0248,0.0322 -2.04961,0.0644 -3.10546,0.0977 -1.41394,0.0314 -1.41394,0.0314 -2.85645,0.0635 -3.37548,0.71826 -4.57319,1.74317 -6.56543,4.54589 -0.69013,4.71533 0.45903,7.54947 2.78906,11.61328 0.90722,1.60561 0.90722,1.60561 1.83277,3.24365 0.66104,1.14034 1.32209,2.28068 2.00317,3.45557 0.68527,1.20322 1.36925,2.40717 2.052,3.61182 1.40761,2.4803 2.82157,4.95681 4.24048,7.43066 2.54871,4.45049 5.04332,8.93075 7.53857,13.41138 5.58571,10.02859 11.24582,20.01319 16.98999,29.9519 0.70347,1.22227 0.70347,1.22227 1.42115,2.46924 0.62044,1.07314 0.62044,1.07314 1.25341,2.16797 C 149,366 149,366 149,367 c -0.58491,0.004 -1.16982,0.008 -1.77246,0.0125 -2.6602,0.033 -5.31811,0.10362 -7.97754,0.17505 -0.92039,0.006 -1.84078,0.0116 -2.78906,0.0176 -5.50471,0.17039 -5.50471,0.17039 -10.16406,2.9082 -1.69676,3.77674 -1.64657,6.08633 -0.29688,9.88665 1.96874,4.25877 4.21563,8.34116 6.5,12.4375 0.94371,1.72694 0.94371,1.72694 1.90649,3.48877 2.79529,5.09891 5.63112,10.17046 8.55835,15.19482 0.63616,1.09841 0.63616,1.09841 1.28516,2.219 0.7704,1.32016 1.55233,2.63367 2.34766,3.93896 2.45193,4.17916 2.45193,4.17916 2.1914,7.02564 C 148,426 148,426 146.9375,427.75 c -1.99069,4.77765 -1.2709,9.1572 0.1875,13.9375 2.08514,3.68376 4.10982,6.36338 7.875,8.3125 1.69815,0.34607 3.40866,0.63486 5.125,0.875 4.45347,0.68412 4.45347,0.68412 6.40625,2.72656 C 167.92757,456.02518 169,458.16322 169,461 c -49.83,0 -99.66,0 -151,0 5.066292,-10.13258 10.171293,-20.12438 15.6875,-30 1.400179,-2.51857 2.797862,-5.03851 4.195313,-7.55859 0.520174,-0.93712 0.520174,-0.93712 1.050857,-1.89318 3.974741,-7.16958 7.865323,-14.38462 11.735764,-21.61097 2.729159,-5.07384 5.57371,-10.00062 8.643066,-14.87476 C 62.271578,380.07182 63.004147,376.75102 62,371 c -1.816614,-2.15816 -3.329916,-2.89643 -6.108643,-3.32593 -2.54928,-0.19425 -5.085601,-0.29551 -7.641357,-0.36157 -0.888164,-0.0342 -1.776328,-0.0683 -2.691406,-0.10352 C 43.372522,367.12671 41.18684,367.0575 39,367 43.992912,356.52396 49.633675,346.46691 55.375,336.38672 59.298788,329.49308 63.153472,322.56192 67,315.625 c 0.933926,-1.68356 0.933926,-1.68356 1.886719,-3.40112 1.170825,-2.11133 2.339561,-4.22382 3.505859,-6.33765 1.029512,-1.84856 2.073806,-3.689 3.136719,-5.51855 0.454394,-0.78649 0.908789,-1.57298 1.376953,-2.38331 0.395098,-0.67063 0.790195,-1.34127 1.197266,-2.03222 C 79.711138,292.45145 79.523218,289.79333 79,286 c -1.666357,-2.35612 -2.589024,-2.92753 -5.451904,-3.43237 -0.947864,-0.0262 -1.895728,-0.0524 -2.872315,-0.0794 -1.028027,-0.0354 -2.056054,-0.0709 -3.115234,-0.10743 -1.071856,-0.0226 -2.143711,-0.0451 -3.248047,-0.0684 -1.083457,-0.0342 -2.166914,-0.0683 -3.283203,-0.10352 C 58.352968,282.12645 55.676968,282.05732 53,282 c 1.311308,-3.52246 2.862569,-6.58519 4.878906,-9.75391 0.583382,-0.92353 1.166763,-1.84706 1.767823,-2.79858 0.632204,-0.9933 1.264409,-1.98661 1.915771,-3.01001 1.355832,-2.14739 2.709927,-4.29587 4.0625,-6.44531 0.352805,-0.5606 0.705611,-1.1212 1.069107,-1.69878 4.932898,-7.85842 9.709681,-15.81277 14.493637,-23.7624 C 84.980018,228.24907 88.854346,222.05542 93,216 Z"
     style="fill:#5fa716"
     id="path6" />
  <path
     d="m 352,54 c 8.72064,2.906879 15.07487,16.231489 19.13184,24.184082 C 373.57411,83.292539 375.37495,88.58536 377,94 c 0.24621,0.803086 0.49242,1.606172 0.74609,2.433594 C 381.31684,110.64269 379.15356,125.23821 375,139 c -2.96165,10.26069 -0.46223,18.65126 4,28 0.33,0.99 0.66,1.98 1,3 -9.70838,0.62189 -9.70838,0.62189 -14.375,-1.625 -4.34372,-3.93003 -7.80504,-7.6803 -9.625,-13.375 -0.22887,-7.41105 1.45136,-14.6603 3.28125,-21.79688 C 363.81531,112.99698 360.8042,92.54317 352,74 350.95303,72.406357 349.89263,70.821357 348.8125,69.25 347.57031,67.207031 347.57031,67.207031 347,65 c 1.08498,-4.029175 2.84021,-7.444661 5,-11 z"
     style="fill:#f17a00"
     id="path7" />
  <path
     d="m 293,332 c 1.73877,2.60816 3.02777,5.05807 4.375,7.875 2.79891,5.64492 5.85202,11.10552 9,16.5625 4.93119,8.55146 9.7452,17.16222 14.5,25.8125 5.18969,9.43932 10.41165,18.85844 15.6875,28.25 4.56285,8.1244 9.06337,16.27247 13.4375,24.5 -5.61,0 -11.22,0 -17,0 -1.05188,-2.16563 -2.10375,-4.33125 -3.1875,-6.5625 -4.95664,-10.01441 -10.53055,-19.67207 -16.06836,-29.37256 -2.89731,-5.09139 -5.75897,-10.20262 -8.61914,-15.31494 -0.57178,-1.0215 -1.14356,-2.043 -1.73267,-3.09546 -6.29189,-11.24946 -12.55768,-22.51369 -18.79907,-33.79126 -1.03605,-1.86191 -2.08085,-3.719 -3.13574,-5.57031 -0.45907,-0.80824 -0.91814,-1.61649 -1.39111,-2.44922 -0.6022,-1.04897 -0.6022,-1.04897 -1.21656,-2.11914 C 278,335 278,335 278,333 c 4.95,-0.33 9.9,-0.66 15,-1 z"
     style="fill:#8eaa00"
     id="path8" />
  <path
     d="m 274,229 c 0.31711,1.41152 0.31711,1.41152 0.64062,2.85156 1.51688,5.27734 4.35913,9.80722 7.10938,14.52344 1.18422,2.06214 2.36779,4.12466 3.55078,6.1875 0.61182,1.06219 1.22364,2.12437 1.854,3.21875 2.96714,5.17581 5.87431,10.38479 8.78272,15.59375 1.16787,2.0873 2.33584,4.17454 3.50391,6.26172 1.80352,3.2246 3.60673,6.44938 5.40966,9.67431 1.84082,3.29244 3.68222,6.58454 5.52393,9.87647 0.58274,1.04205 1.16547,2.08409 1.76587,3.15771 3.81831,6.81986 7.67941,13.61276 11.60132,20.37354 C 325,323 325,323 325,324 c -5.61,0 -11.22,0 -17,0 -0.88688,-1.83563 -1.77375,-3.67125 -2.6875,-5.5625 -4.22995,-8.55955 -8.99506,-16.81218 -13.71875,-25.10547 -3.74728,-6.58348 -7.4238,-13.20521 -11.09375,-19.83203 -4.8841,-8.81022 -9.79402,-17.60499 -14.75,-26.375 -0.53689,-0.95068 -1.07379,-1.90137 -1.62695,-2.88086 -1.95185,-3.44785 -3.8989,-6.88154 -5.98243,-10.25195 C 257,232 257,232 257,230 c 2.64581,-0.16704 5.29165,-0.33365 7.9375,-0.5 0.75475,-0.0477 1.50949,-0.0954 2.28711,-0.14453 C 272.88672,229 272.88672,229 274,229 Z"
     style="fill:#8eaa00"
     id="path9" />
  <path
     d="m 448,373 c 0.33,0 0.66,0 1,0 0.0503,0.94746 0.10055,1.89492 0.15234,2.87109 0.78222,5.36548 3.6741,9.60138 6.41016,14.19141 5.35397,9.21172 10.46476,18.51727 15.4375,27.9375 5.50086,10.40519 11.13617,20.71014 17.01562,30.9082 0.49758,0.8669 0.99516,1.73379 1.50782,2.62696 0.43232,0.74644 0.86464,1.49289 1.31006,2.26196 1.22736,2.31781 2.19244,4.76774 3.1665,7.20288 -49.83,0 -99.66,0 -151,0 0,-0.33 0,-0.66 0,-1 44.22,0 88.44,0 134,0 -12.62556,-23.68136 -12.62556,-23.68136 -25.67578,-47.08594 -3.96129,-6.99904 -7.77316,-14.07716 -11.57422,-21.16406 -0.33291,-0.61885 -0.66582,-1.2377 -1.00882,-1.87531 -0.94256,-1.75361 -1.88102,-3.50941 -2.81931,-5.26532 -0.54043,-1.01094 -1.08087,-2.02189 -1.63769,-3.06347 C 433,379 433,379 432,376 c 5.28,0 10.56,0 16,0 0,-0.99 0,-1.98 0,-3 z"
     style="fill:#529113"
     id="path10" />
  <path
     d="m 464,124 c 3.93263,3.93263 6.51276,7.61928 9.375,12.3125 0.48388,0.79237 0.96776,1.58474 1.46631,2.40112 8.19397,13.75055 14.1535,28.95407 10.51025,45.1731 -3.10669,8.4571 -8.16868,14.89044 -15.72656,19.73828 -4.05948,2.56961 -4.05948,2.56961 -5.6875,7.125 0.0206,1.0725 0.0412,2.145 0.0625,3.25 -1,3 -1,3 -2.71826,3.90723 -0.72977,0.24202 -1.45954,0.48404 -2.21143,0.73339 -1.19302,0.39832 -1.19302,0.39832 -2.41015,0.80469 -1.25491,0.39832 -1.25491,0.39832 -2.53516,0.80469 -0.82887,0.28102 -1.65773,0.56203 -2.51172,0.85156 -6.21961,2.02966 -6.21961,2.02966 -9.61328,0.89844 -3,-4.33333 -3,-4.33333 -3,-7 1.99775,-1.33384 3.98547,-2.55203 6.0625,-3.75 10.33339,-6.1939 18.94693,-13.37248 22.46484,-25.42188 C 470.21709,169.73411 466.77136,154.27392 459,140 c -0.66,-0.66 -1.32,-1.32 -2,-2 2.31,-4.62 4.62,-9.24 7,-14 z"
     style="fill:#f27a00"
     id="path11" />
  <path
     d="m 239,452 c 11.22,0 22.44,0 34,0 0,14.19 0,28.38 0,43 -11.22,0 -22.44,0 -34,0 0,-14.19 0,-28.38 0,-43 z"
     style="fill:#773d21"
     id="path12" />
  <path
     d="m 255,129 c 0.66,0 1.32,0 2,0 0.38108,0.68699 0.76216,1.37398 1.15479,2.08179 8.66154,15.61122 17.35278,31.20524 26.08496,46.7771 1.82439,3.25557 3.64616,6.5126 5.46728,9.77002 0.9152,1.63642 0.9152,1.63642 1.84888,3.3059 1.1955,2.13766 2.39066,4.27552 3.58545,6.41358 2.48135,4.43427 4.96939,8.86315 7.51489,13.26098 0.38237,0.66105 0.76474,1.3221 1.15869,2.00318 0.97128,1.67212 1.94895,3.34052 2.92725,5.00854 C 308,220 308,220 308,222 c -9.24,0 -18.48,0 -28,0 0,-0.33 0,-0.66 0,-1 3.63,0 7.26,0 11,0 -4.29885,-9.00639 -9.03629,-17.68596 -14.02344,-26.32715 -4.32038,-7.49416 -8.53677,-15.04281 -12.72656,-22.61035 -5.99744,-10.83141 -5.99744,-10.83141 -12.0625,-21.625 -0.58395,-1.03254 -1.16789,-2.06508 -1.76953,-3.12891 -1.3454,-2.39098 -1.3454,-2.39098 -3.41797,-4.30859 2.64,-4.62 5.28,-9.24 8,-14 z"
     style="fill:#8da900"
     id="path13" />
  <path
     d="m 431,288 c 0.33,0 0.66,0 1,0 0.19207,1.06605 0.38414,2.13211 0.58203,3.23047 1.56972,6.23378 4.92905,11.54749 8.10547,17.08203 0.67108,1.18539 1.34115,2.37136 2.01025,3.55786 1.39329,2.46892 2.7909,4.93532 4.19141,7.40015 3.3734,5.94736 6.67432,11.93504 9.98584,17.91699 4.5258,8.15804 9.06394,16.30857 13.68896,24.41089 C 473,365.89224 473,365.89224 473,367 c -5.28,0 -10.56,0 -16,0 -0.92039,-1.65902 -1.84078,-3.31805 -2.78906,-5.02734 -6.42893,-11.58339 -12.86511,-23.16261 -19.33594,-34.72266 -0.56493,-1.00998 -1.12986,-2.01996 -1.71191,-3.06055 -2.95577,-5.27683 -5.92993,-10.54241 -8.92872,-15.79492 -0.60569,-1.06315 -1.21139,-2.12631 -1.83544,-3.22168 -1.15934,-2.03274 -2.32227,-4.06344 -3.48926,-6.0918 -0.51418,-0.90202 -1.02835,-1.80404 -1.55811,-2.73339 -0.45552,-0.79399 -0.91104,-1.58797 -1.38037,-2.40601 C 415,292 415,292 415,290 c 5.28,0 10.56,0 16,0 0,-0.66 0,-1.32 0,-2 z"
     style="fill:#539213"
     id="path14" />
  <path
     d="m 418,215 c 3.64747,4.26959 6.41562,8.86565 9.25,13.6875 4.9131,8.27037 9.89651,16.49442 14.9375,24.6875 0.68095,1.10755 1.36189,2.21509 2.06348,3.3562 4.34417,7.0453 8.76735,14.02777 13.34277,20.92505 C 459,280 459,280 459,282 c -6.93,0 -13.86,0 -21,0 1.98,-0.99 1.98,-0.99 4,-2 -2.56082,-4.23018 -5.12355,-8.45921 -7.6875,-12.6875 -0.38222,-0.63043 -0.76443,-1.26086 -1.15823,-1.9104 -5.68261,-9.36957 -11.40827,-18.71063 -17.2175,-28.00244 -0.49347,-0.79189 -0.98694,-1.58378 -1.49536,-2.39966 -0.42596,-0.68063 -0.85191,-1.36125 -1.29078,-2.0625 -0.3797,-0.63938 -0.75941,-1.27875 -1.15063,-1.9375 -0.40718,-0.68554 -0.81437,-1.37108 -1.23389,-2.07739 C 410.5133,228.28815 410.26048,227.65369 410,227 c 1.30078,-2.76172 1.30078,-2.76172 3.3125,-5.6875 0.65613,-0.97324 1.31227,-1.94648 1.98828,-2.94922 C 417,216 417,216 418,215 Z"
     style="fill:#529013"
     id="path15" />
  <path
     d="m 239,452 c 5.61,0 11.22,0 17,0 0,13.86 0,27.72 0,42 -5.61,0 -11.22,0 -17,0 0,-13.86 0,-27.72 0,-42 z"
     style="fill:#a0522d"
     id="path16" />
  <path
     d="m 410,478 c 5.61,0 11.22,0 17,0 0,5.61 0,11.22 0,17 -5.61,0 -11.22,0 -17,0 0,-5.61 0,-11.22 0,-17 z"
     style="fill:#9c502b"
     id="path17" />
  <path
     d="m 85,478 c 5.61,0 11.22,0 17,0 0,5.61 0,11.22 0,17 -5.61,0 -11.22,0 -17,0 0,-5.61 0,-11.22 0,-17 z"
     style="fill:#9c502b"
     id="path18" />
</svg>
