<?xml version="1.0" encoding="UTF-8"?>
<!-- Generator: visioncortex VTracer -->
<svg id="svg" version="1.1" xmlns="http://www.w3.org/2000/svg" style="display: block;" viewBox="0 0 512 512"><path d="M0 0 C2.82424288 2.19022918 4.41508603 3.83017207 6 7 C5.70257529 14.7486964 3.29608854 21.00287928 0.375 28.125 C-14.2320323 65.00155606 -28.58141499 111.41211604 -12 150 C-5.56922595 162.30902335 2.69870243 170.07990679 15.73046875 175.0390625 C28.00271241 178.82875968 40.4997795 177.51990022 52.1875 172.3125 C59.92259477 168.06546467 65.95824447 162.35466389 69 154 C69.74208716 150.17418376 69.91469806 146.33162724 70.1328125 142.44726562 C70.52261994 137.45179856 71.25748805 134.65036677 75 131 C78.16649513 129.41675243 81.57458194 129.35625764 85 130 C108.35808766 143.4245531 123.7985498 173.4093264 130.66845703 198.43505859 C139.41822082 232.77597632 135.94977351 270.12453332 123 303 C147.33906843 301.03719116 147.33906843 301.03719116 167.83203125 289.12890625 C168.8191665 287.92685041 169.79209089 286.7128915 170.74609375 285.484375 C172.61608652 283.27067639 174.1727117 282.55166601 177 282 C181.5789676 282 183.36964375 282.38457701 186.67944336 285.6159668 C189.36709131 289.04290098 189.6314778 291.76861214 189.62890625 296.14453125 C189.632995 296.82303131 189.63708374 297.50153137 189.64129639 298.20059204 C189.64386689 300.40579761 189.60604235 302.60775523 189.5625 304.8125 C189.55479584 305.56854523 189.54709167 306.32459045 189.53915405 307.10354614 C189.39052986 320.9915702 187.97518191 334.41488425 185 348 C184.81808105 348.8451416 184.63616211 349.6902832 184.44873047 350.56103516 C178.33686922 378.06167981 166.21417129 403.73719056 149 426 C148.56252441 426.56589844 148.12504883 427.13179688 147.67431641 427.71484375 C131.71171751 448.03198604 112.1642255 464.81031722 90 478 C89.32388672 478.4031543 88.64777344 478.80630859 87.95117188 479.22167969 C49.51741594 501.88818761 5.745653 512.48994036 -38.6875 512.3125 C-39.65999695 512.31034485 -40.6324939 512.3081897 -41.63446045 512.30596924 C-55.63464345 512.25617111 -69.25808459 511.89765629 -83 509 C-84.53164795 508.69400879 -84.53164795 508.69400879 -86.09423828 508.38183594 C-100.56381814 505.45425491 -114.35955724 501.64646548 -128 496 C-128.70302246 495.71511719 -129.40604492 495.43023437 -130.13037109 495.13671875 C-148.3673084 487.7079547 -164.79881232 477.52558923 -180 465 C-180.93070312 464.26652344 -181.86140625 463.53304688 -182.8203125 462.77734375 C-187.72095453 458.88487195 -192.16325349 455.02378852 -196.14453125 450.19140625 C-197.52155861 448.56506446 -198.96856929 446.99744582 -200.44921875 445.46484375 C-211.31011382 434.20111948 -220.05662801 421.01464821 -227 407 C-227.33064453 406.35047363 -227.66128906 405.70094727 -228.00195312 405.03173828 C-236.05242922 389.15441043 -241.87373726 372.94316194 -245.75 355.5625 C-245.9365918 354.73137695 -246.12318359 353.90025391 -246.31542969 353.04394531 C-250.16308189 334.63462195 -251.51923371 316.46182963 -251.375 297.6875 C-251.37067963 296.62058929 -251.36635925 295.55367859 -251.36190796 294.45443726 C-251.30376731 282.21038319 -251.17727982 269.99235545 -249.8125 257.8125 C-249.71179199 256.86012451 -249.61108398 255.90774902 -249.50732422 254.92651367 C-248.70311986 249.175316 -247.22205187 246.03569037 -243 242 C-238.86154887 240.47057241 -236.04696102 240.94576259 -232.05615234 242.7355957 C-227.47228603 245.55438502 -223.93949406 249.75755607 -220.25 253.625 C-213.45335569 260.58838009 -206.74656304 267.10147324 -199 273 C-197.20674111 274.45637499 -195.41505653 275.91469073 -193.625 277.375 C-190.53972241 279.88243295 -187.42135716 281.97922327 -184 284 C-184.01571045 282.76362793 -184.0314209 281.52725586 -184.04760742 280.25341797 C-184.32826069 255.98187138 -184.41104869 232.08120289 -181 208 C-180.85546387 206.95344238 -180.71092773 205.90688477 -180.56201172 204.82861328 C-173.96190972 158.33553598 -159.07947771 105.76913009 -127 70 C-121.53468237 67.57096994 -118.38259748 68.02271929 -113 70 C-112.566875 69.1028125 -112.566875 69.1028125 -112.125 68.1875 C-111 66 -111 66 -109 63 C-109.350625 61.9275 -109.70125 60.855 -110.0625 59.75 C-111.23936583 55.04253667 -110.36152195 53.15302136 -108 49 C-104.74004414 46.82669609 -103.77020034 46.75078541 -100 46.8125 C-98.700625 46.82216797 -98.700625 46.82216797 -97.375 46.83203125 C-95 47 -95 47 -92 48 C-89.52969969 46.42852477 -87.25346259 44.83657918 -84.9375 43.0625 C-78.23493976 38 -78.23493976 38 -76 38 C-76.11859375 37.41992188 -76.2371875 36.83984375 -76.359375 36.2421875 C-76.48828125 35.46101563 -76.6171875 34.67984375 -76.75 33.875 C-76.95882812 32.72644531 -76.95882812 32.72644531 -77.171875 31.5546875 C-76.91604513 27.75212529 -75.40614629 25.912907 -73 23 C-70.76529552 21.46328163 -68.77486587 20.25297223 -66.375 19.0625 C-65.71677246 18.72677979 -65.05854492 18.39105957 -64.38037109 18.04516602 C-46.57395989 9.17951788 -20.16913458 -3.04689718 0 0 Z " transform="translate(288,0)" style="fill: #010000;"/><path d="M0 0 C-0.68841043 5.98309653 -2.77806551 11.41099957 -4.75 17.0625 C-8.54979761 28.24791541 -11.70607387 39.41033835 -14 51 C-14.16371094 51.82467773 -14.32742187 52.64935547 -14.49609375 53.49902344 C-20.14699426 83.30635608 -19.74627689 116.68121738 -3.4375 143.1875 C-2.31730828 144.80967608 -1.17400317 146.41633296 0 148 C0.45761719 148.639375 0.91523438 149.27875 1.38671875 149.9375 C10.48958498 161.62255464 26.42851712 170.0993718 41 172 C56.03719666 173.04218195 70.45183246 172.16256169 84 165 C84.82242187 164.56816406 85.64484375 164.13632813 86.4921875 163.69140625 C97.31964343 157.61947428 105.61291165 148.70573574 110 137 C113.70998148 140.50133577 116.69257033 144.1240391 119.4375 148.4375 C119.82510498 149.04585693 120.21270996 149.65421387 120.61206055 150.28100586 C138.71422884 179.4825331 140.44469046 214.1642018 133.15625 246.9453125 C129.90791843 259.91063592 125.51905437 272.91599741 119.80688477 285.00341797 C118.50969993 288.21321452 118.41347589 290.61119405 119 294 C121.76033274 297.65904573 123.21969118 298.87810181 127.80078125 299.59375 C129.3050119 299.59290606 130.80944783 299.55953771 132.3125 299.5 C133.12847656 299.48300049 133.94445312 299.46600098 134.78515625 299.44848633 C152.03876779 298.88509651 168.85763186 296.38191505 185.125 290.55078125 C187 290 187 290 190 290 C192.35943738 328.88702349 171.82235977 369.46567148 146.75 397.875 C137.5111119 407.96816885 128.07686308 416.94921768 117 425 C115.77216797 425.92039062 115.77216797 425.92039062 114.51953125 426.859375 C107.09557148 432.28122837 99.08073094 436.65088962 91 441 C90.36320312 441.34708008 89.72640625 441.69416016 89.0703125 442.05175781 C80.69291774 446.58371981 72.12171373 450.2585129 63.1875 453.5625 C62.22569824 453.92158447 61.26389648 454.28066895 60.27294922 454.65063477 C59.37205566 454.97346436 58.47116211 455.29629395 57.54296875 455.62890625 C56.3367688 456.0631189 56.3367688 456.0631189 55.10620117 456.50610352 C53 457 53 457 50 456 C50.83402344 455.32195312 51.66804688 454.64390625 52.52734375 453.9453125 C70.27987614 439.33896598 86.85863826 419.32124122 94 397 C94.33617778 392.77376505 94.2115628 391.35701222 92 387.625 C88.83252551 384.8152954 88.83252551 384.8152954 85 384.3125 C81.88212875 384.58209037 80.92146454 385.0553318 78.25 386.9375 C75.46522276 390.72789124 73.70243325 394.63454268 72 399 C71.67 399 71.34 399 71 399 C71.0314209 398.17145508 71.0314209 398.17145508 71.06347656 397.32617188 C71.82200113 374.14796556 67.24650393 355.31034771 52.2734375 337.13671875 C48.75408086 333.82900727 45.83620495 331.96966879 40.92578125 332.05078125 C37.45320379 333.1773985 35.77300125 334.62772514 33.1875 337.1875 C28.73407852 341.39350917 24.26813573 344.8811037 19 348 C17.96875 348.61875 16.9375 349.2375 15.875 349.875 C8.54962125 352.72660432 -1.15645213 352.05236549 -8.4375 349.4375 C-17.5667959 345.11549114 -23.56567799 338.24942339 -27.19140625 328.94140625 C-32.44339811 312.81943822 -30.60716838 297.9547572 -24.1875 282.5 C-22.49076712 277.49910309 -23.36685024 273.89944927 -25 269 C-30.40503684 267.19832105 -34.48838456 267.32198398 -39.60546875 269.6171875 C-40.81218925 270.34923909 -42.00598362 271.10292945 -43.1875 271.875 C-43.82969482 272.27847656 -44.47188965 272.68195313 -45.13354492 273.09765625 C-74.09816321 291.63501196 -95.41779607 316.79930065 -104.23828125 350.33203125 C-110.14020155 378.75204745 -104.86846136 407.79150395 -90.1875 432.62890625 C-89.795625 433.41136719 -89.40375 434.19382812 -89 435 C-89.33 435.66 -89.66 436.32 -90 437 C-106.79035968 421.47595236 -118.02641005 401.9719734 -124 380 C-124.29040161 379.02220581 -124.29040161 379.02220581 -124.58666992 378.0246582 C-126.3869152 371.24477308 -126.33755517 364.38701363 -126.31567383 357.41821289 C-126.31253181 355.33360533 -126.33597727 353.25044691 -126.36132812 351.16601562 C-126.50378792 321.49838005 -111.53318331 297.08042428 -96.95458984 272.32714844 C-78.43833134 240.80834118 -61.64001119 210.34532439 -55 174 C-27.83154588 187.12374479 -5.20853652 210.63669525 5.12890625 239.109375 C7.76318945 248.11938712 8.07768753 257.05258856 8.125 266.375 C8.13213013 267.55364624 8.13213013 267.55364624 8.1394043 268.75610352 C8.12894939 272.35220481 7.91352551 275.53658106 7 279 C6.20715618 287.00214947 6.20715618 287.00214947 9.0625 294.25 C12.82049317 296.48880444 14.64495517 296.40186973 19 296 C22.21872546 294.92962623 25.21326266 293.5039196 28.25 292 C29.08974365 291.59136719 29.9294873 291.18273437 30.79467773 290.76171875 C42.0930069 285.12618501 51.99870427 277.44713296 60.65625 268.23828125 C62 267 62 267 64 267 C71.07266586 282.32118435 76.6538638 297.26495348 80.10546875 313.80859375 C81.78023242 323.6183128 81.78023242 323.6183128 88 331 C91.67825595 331.61304266 93.46568226 331.26122201 96.8125 329.625 C99.09605332 328.18398646 99.09605332 328.18398646 100 326 C102.73148801 300.52103811 88.03856658 264.52236731 72.71582031 244.30566406 C70.24337584 241.19926754 70.24337584 241.19926754 67 239 C63.0014794 238.73922692 60.34908578 238.7631338 57 241 C55.29519364 243.20168459 53.72977781 245.37870803 52.1875 247.6875 C45.67457326 257.07248365 38.56998516 263.62552892 29 270 C28.67 270 28.34 270 28 270 C27.94054199 268.97398682 27.94054199 268.97398682 27.87988281 267.92724609 C26.81642021 249.11387502 26.81642021 249.11387502 22 231 C21.62875 229.99453125 21.2575 228.9890625 20.875 227.953125 C15.74731702 214.931509 8.86457545 203.72791743 0 193 C-0.72058594 192.12472656 -1.44117188 191.24945313 -2.18359375 190.34765625 C-16.89450596 173.26140409 -44.0368057 151.03787739 -67.0546875 147.53515625 C-70.12998615 147.82939927 -70.12998615 147.82939927 -72.87890625 149.75 C-76.12169554 154.71869372 -75.27083539 159.22663112 -74.9375 165 C-74.39391542 184.5255582 -80.61817387 200.65758305 -89 218 C-89.57597371 219.23025683 -90.15151163 220.4607178 -90.7265625 221.69140625 C-98.45429655 237.9168282 -107.91731318 253.36247139 -117.01953125 268.84765625 C-133.32832404 296.65867647 -145.46837591 321.84644842 -145.375 354.625 C-145.37368576 355.75350876 -145.37368576 355.75350876 -145.37234497 356.90481567 C-145.32828581 368.37772886 -144.65587073 379.06107154 -141 390 C-140.75862305 390.76231934 -140.51724609 391.52463867 -140.26855469 392.31005859 C-133.62357268 413.02652136 -122.76859641 430.06440278 -108 446 C-111.90842238 446 -114.52497894 444.37923895 -117.875 442.5625 C-118.87539307 442.021698 -118.87539307 442.021698 -119.89599609 441.4699707 C-148.57654715 425.6592468 -172.17572005 401.11885488 -187 372 C-187.60199219 370.83597656 -188.20398438 369.67195313 -188.82421875 368.47265625 C-196.92476199 351.99851775 -202.64242215 334.52276101 -205.59423828 316.41113281 C-205.98430254 314.09327803 -206.43688996 311.79590818 -206.90234375 309.4921875 C-209.22995304 297.03086667 -209.29180336 284.57196109 -209.3125 271.9375 C-209.31608521 271.03326294 -209.31967041 270.12902588 -209.32336426 269.1973877 C-209.32890949 266.59879946 -209.3182608 264.00086962 -209.30078125 261.40234375 C-209.30155167 260.6146611 -209.30232208 259.82697845 -209.30311584 259.01542664 C-209.25437443 255.20844784 -209.14701731 252.22720367 -207 249 C-206.62230469 249.40089844 -206.24460938 249.80179688 -205.85546875 250.21484375 C-200.61387219 255.62829594 -194.89855061 260.32236543 -189 265 C-188.48099121 265.41717285 -187.96198242 265.8343457 -187.42724609 266.26416016 C-176.17215189 275.29771886 -164.19427885 284.13428686 -149.625 286.5625 C-145.91305814 285.76708389 -144.38706633 283.86447959 -142 281 C-139.73162532 276.46325064 -140.95152722 270.15796609 -141.5 265.2109375 C-142.20580841 257.66863604 -142.15541727 250.12944573 -142.125 242.5625 C-142.12245209 241.80523621 -142.11990417 241.04797241 -142.11727905 240.26776123 C-142.09723629 235.17824099 -142.05349181 230.08927371 -142 225 C-141.98912354 223.54231201 -141.98912354 223.54231201 -141.97802734 222.05517578 C-141.36934788 170.13172284 -127.87848597 109.76847512 -96.4375 67.5078125 C-91.23112026 60.90280936 -91.23112026 60.90280936 -89.3125 52.9375 C-89.88464135 49.66069044 -90.46096679 47.82051392 -92 45 C-91.42378906 44.36384766 -91.42378906 44.36384766 -90.8359375 43.71484375 C-89.30788437 41.85584863 -88.05231508 40.16827825 -87 38 C-87.588562 35.645752 -88.25740651 33.31029085 -89 31 C-87.62295085 26.57894746 -86.88058044 24.58705363 -83 22 C-80.625 21.76953125 -80.625 21.76953125 -78 21.8125 C-77.13375 21.81894531 -76.2675 21.82539062 -75.375 21.83203125 C-73 22 -73 22 -70 23 C-67.54869093 21.45025412 -65.29573404 19.87973114 -63 18.125 C-56.33278956 13.11092985 -56.33278956 13.11092985 -53 12 C-52.29875 12.66 -51.5975 13.32 -50.875 14 C-47.59562704 16.28130293 -45.73159102 16.49929311 -41.81640625 15.8671875 C-37.48712636 14.5341776 -33.5879267 12.40923781 -29.59545898 10.30566406 C-24.11707475 7.45423343 -18.54474243 5.13174462 -12.75 3 C-11.93998535 2.69755371 -11.1299707 2.39510742 -10.29541016 2.08349609 C-6.53199527 0.72618589 -4.089433 0 0 0 Z " transform="translate(266,25)" style="fill: #FB4747;"/><path d="M0 0 C27.16845412 13.12374479 49.79146348 36.63669525 60.12890625 65.109375 C62.76318945 74.11938712 63.07768753 83.05258856 63.125 92.375 C63.13213013 93.55364624 63.13213013 93.55364624 63.1394043 94.75610352 C63.12894939 98.35220481 62.91352551 101.53658106 62 105 C61.20715618 113.00214947 61.20715618 113.00214947 64.0625 120.25 C67.82049317 122.48880444 69.64495517 122.40186973 74 122 C77.21872546 120.92962623 80.21326266 119.5039196 83.25 118 C84.08974365 117.59136719 84.9294873 117.18273437 85.79467773 116.76171875 C97.0930069 111.12618501 106.99870427 103.44713296 115.65625 94.23828125 C117 93 117 93 119 93 C126.07266586 108.32118435 131.6538638 123.26495348 135.10546875 139.80859375 C136.82458972 149.56420515 136.82458972 149.56420515 143 157 C145.67790896 157.87238858 145.67790896 157.87238858 148 158 C148 160.97 148 163.94 148 167 C146.88625 167.391875 145.7725 167.78375 144.625 168.1875 C141.93862247 169.34888342 141.1544666 169.75151025 139.5625 172.3125 C138.67785884 176.53911887 138.63107291 179.89321874 140 184 C142.97503122 185.15835673 142.97503122 185.15835673 146 186 C146.33 186.33 146.66 186.66 147 187 C146.53308129 206.46691871 146.53308129 206.46691871 143 210 C141.9275 210.0825 140.855 210.165 139.75 210.25 C135.11887335 211.17622533 133.86534599 212.28279439 131 216 C129.49419423 218.93779754 128.19905691 221.92532334 127 225 C126.67 225 126.34 225 126 225 C126.02094727 224.44763672 126.04189453 223.89527344 126.06347656 223.32617188 C126.82200113 200.14796556 122.24650393 181.31034771 107.2734375 163.13671875 C103.75408086 159.82900727 100.83620495 157.96966879 95.92578125 158.05078125 C92.45320379 159.1773985 90.77300125 160.62772514 88.1875 163.1875 C83.73407852 167.39350917 79.26813573 170.8811037 74 174 C72.96875 174.61875 71.9375 175.2375 70.875 175.875 C63.54962125 178.72660432 53.84354787 178.05236549 46.5625 175.4375 C37.4332041 171.11549114 31.43432201 164.24942339 27.80859375 154.94140625 C22.55660189 138.81943822 24.39283162 123.9547572 30.8125 108.5 C32.50923288 103.49910309 31.63314976 99.89944927 30 95 C24.59496316 93.19832105 20.51161544 93.32198398 15.39453125 95.6171875 C14.18781075 96.34923909 12.99401638 97.10292945 11.8125 97.875 C11.17030518 98.27847656 10.52811035 98.68195313 9.86645508 99.09765625 C-19.09816321 117.63501196 -40.41779607 142.79930065 -49.23828125 176.33203125 C-55.14020155 204.75204745 -49.86846136 233.79150395 -35.1875 258.62890625 C-34.795625 259.41136719 -34.40375 260.19382812 -34 261 C-34.33 261.66 -34.66 262.32 -35 263 C-51.79035968 247.47595236 -63.02641005 227.9719734 -69 206 C-69.29040161 205.02220581 -69.29040161 205.02220581 -69.58666992 204.0246582 C-71.3869152 197.24477308 -71.33755517 190.38701363 -71.31567383 183.41821289 C-71.31253181 181.33360533 -71.33597727 179.25044691 -71.36132812 177.16601562 C-71.50378792 147.49838005 -56.53318331 123.08042428 -41.95458984 98.32714844 C-23.43833134 66.80834118 -6.64001119 36.34532439 0 0 Z " transform="translate(211,199)" style="fill: #FC8043;"/><path d="M0 0 C0.01458252 0.57854736 0.02916504 1.15709473 0.04418945 1.75317383 C0.34281476 17.14581526 0.34281476 17.14581526 4 32 C4.39832031 33.23169922 4.39832031 33.23169922 4.8046875 34.48828125 C9.18447281 46.94935184 18.2795645 57.698279 30 63.8125 C31.65777487 64.56166238 33.32417637 65.2921321 35 66 C35.67160156 66.3196875 36.34320313 66.639375 37.03515625 66.96875 C47.79546196 71.44702752 62.30519978 69.94096063 73 66 C78.23746308 63.7363507 83.26604087 61.50450289 87.59765625 57.74609375 C90 56 90 56 92.1171875 55.90234375 C97.30053172 58.92416891 99.40405582 67.37469768 101.375 72.75 C105.20847475 91.99723782 98.25433487 110.05681219 88.01953125 126.10546875 C76.40889179 142.53649346 59.02869012 160.4748441 39 166 C27.1866319 167.62144268 13.61223236 160.53314001 4.32666016 153.78369141 C-17.73928604 136.79067101 -30.84555625 114.16785545 -36.58984375 87.234375 C-39.64793012 63.11917962 -34.51910057 39.97253556 -20.0234375 20.3203125 C-18.06538912 17.83306186 -16.05460347 15.40786534 -14 13 C-13.08347656 11.89978516 -13.08347656 11.89978516 -12.1484375 10.77734375 C-3.00280374 0 -3.00280374 0 0 0 Z " transform="translate(216,326)" style="fill: #FDB849;"/><path d="M0 0 C3.25179524 2.61729861 3.86354838 4.49058061 4.9375 8.5 C5.00843466 12.4723407 4.40703358 13.90524254 2 17 C1.608125 17.598125 1.21625 18.19625 0.8125 18.8125 C-2.2826379 20.84034897 -5.50079602 20.6998408 -9 20 C-12.5971139 18.19372392 -14.64979591 15.94761108 -16.0625 12.125 C-15.98245301 8.12265051 -14.8892536 5.50861383 -13 2 C-8.7695445 -0.82030367 -4.96681076 -0.78166202 0 0 Z " transform="translate(193,47)" style="fill: #040101;"/><path d="M0 0 C3.24812693 0.84648156 4.88992576 2.9648036 6.93359375 5.50390625 C7.26359375 5.83390625 7.59359375 6.16390625 7.93359375 6.50390625 C8.06882951 11.17919958 7.46757328 14.66956323 4.93359375 18.62890625 C1.26030491 20.92471178 -0.71990447 20.96856377 -4.90234375 20.19921875 C-8.51858873 19.03732054 -10.05754669 17.71808154 -12.06640625 14.50390625 C-12.62133424 9.71765237 -11.68087955 6.416306 -9.00390625 2.44140625 C-5.71168201 0.2699392 -3.8709167 -0.22684011 0 0 Z " transform="translate(361.06640625,365.49609375)" style="fill: #080302;"/></svg>